{"glyphs":{"0":{"ha":778,"x_min":0,"x_max":0,"o":"m 389 978 b 74 475 146 978 74 725 b 389 -12 74 231 150 -12 b 704 475 629 -12 704 229 b 389 978 704 726 633 978 z m 389 13 b 208 471 210 13 208 267 b 389 953 208 678 208 953 b 569 471 569 953 569 678 b 389 13 569 267 567 13 z "},"1":{"ha":778,"x_min":0,"x_max":0,"o":"m 183 907 l 183 888 b 306 871 225 888 286 881 b 349 775 349 849 346 833 l 349 167 b 343 94 349 138 347 113 b 190 19 335 32 260 24 l 190 0 l 629 0 l 629 19 b 493 50 582 22 513 25 b 471 175 472 78 471 122 l 471 978 b 183 907 397 940 274 910 z "},"2":{"ha":778,"x_min":0,"x_max":0,"o":"m 336 597 b 199 744 250 597 199 658 b 368 953 199 846 253 953 b 538 710 522 953 538 828 b 446 438 538 592 503 521 b 301 265 411 386 361 328 b 65 42 239 200 161 126 l 65 0 l 649 0 l 696 267 l 657 267 b 628 196 649 238 636 214 b 499 122 607 147 567 122 l 229 122 l 228 129 b 404 265 289 174 350 221 b 654 554 500 349 600 442 b 689 707 676 604 689 656 b 667 817 689 747 681 783 b 388 979 621 913 528 979 b 165 906 297 979 217 947 b 76 718 117 864 76 801 b 124 583 76 658 94 615 b 239 531 149 553 186 531 b 336 597 290 531 328 556 z "},"3":{"ha":778,"x_min":0,"x_max":0,"o":"m 364 13 b 200 190 271 13 200 100 b 307 314 200 258 242 314 b 211 368 299 349 256 368 b 154 356 192 368 172 364 b 67 210 103 336 67 279 b 89 121 67 178 74 149 b 367 -12 138 38 236 -12 b 604 65 469 -12 547 19 b 699 260 657 108 699 171 b 682 349 699 292 693 321 b 482 515 649 432 575 490 l 482 522 b 614 607 536 536 583 568 b 669 754 644 642 669 693 b 649 846 669 788 663 818 b 371 978 606 933 501 978 b 176 931 293 978 224 961 b 103 801 138 903 103 861 b 140 707 103 761 118 726 b 231 668 158 685 190 668 b 289 682 251 668 271 672 b 318 715 306 689 314 701 b 228 811 265 715 228 757 b 371 953 228 888 290 953 b 519 749 469 953 519 865 b 383 521 519 635 488 521 b 307 542 361 528 332 542 b 239 507 279 542 239 532 b 310 464 239 478 281 464 b 394 493 340 464 374 482 b 540 268 508 493 540 390 b 364 13 540 138 490 13 z "},"4":{"ha":778,"x_min":0,"x_max":0,"o":"m 44 288 l 44 232 l 401 232 l 401 181 b 328 19 401 65 388 19 l 328 0 l 596 0 l 596 19 b 525 189 540 19 525 89 l 525 232 b 685 232 525 232 685 232 b 685 281 686 232 685 281 b 525 281 686 281 526 281 l 525 978 l 486 978 z m 400 783 l 401 281 l 78 281 b 400 783 185 446 293 618 z "},"5":{"ha":778,"x_min":0,"x_max":0,"o":"m 646 978 l 639 979 b 472 956 606 963 550 956 b 325 978 410 956 367 963 l 192 460 b 190 450 190 457 190 454 b 201 425 190 433 182 425 b 228 460 221 425 219 439 b 386 585 253 529 303 585 b 517 372 494 585 517 493 b 461 133 517 276 499 190 b 308 13 431 82 383 13 b 194 138 238 13 207 82 b 121 232 182 182 176 232 b 61 161 82 232 61 203 b 78 90 61 136 67 113 b 304 -12 119 26 199 -12 b 450 15 356 -12 406 -4 b 671 343 571 68 671 174 b 651 458 671 385 665 422 b 392 619 614 551 518 619 b 253 557 346 619 286 594 l 260 583 l 328 846 b 451 829 328 846 403 829 b 646 978 547 829 628 888 z "},"6":{"ha":778,"x_min":0,"x_max":0,"o":"m 676 843 b 460 978 676 910 554 978 b 76 422 164 978 76 715 b 389 -12 76 194 167 -12 b 707 325 582 -12 707 132 b 424 638 707 504 603 638 b 225 518 329 638 269 582 l 222 521 b 258 808 222 628 219 739 b 438 953 289 864 344 953 b 619 785 583 953 539 785 b 676 843 669 785 676 803 z m 564 319 b 393 13 564 163 532 13 b 219 381 276 13 219 174 l 219 443 b 411 610 260 526 310 610 b 564 319 533 610 564 456 z "},"7":{"ha":778,"x_min":0,"x_max":0,"o":"m 256 -12 b 331 22 286 -12 314 1 b 456 308 376 94 424 221 l 540 531 b 719 949 596 671 656 804 l 719 965 l 310 965 b 196 1001 256 965 201 963 b 197 1040 194 1014 194 1031 l 169 1040 l 82 689 l 107 689 l 126 739 b 253 838 146 796 185 833 b 332 842 272 840 300 842 l 644 842 l 450 514 b 350 343 410 443 376 389 b 286 224 324 297 304 256 b 226 93 263 174 244 135 b 218 60 222 79 218 68 b 217 39 215 53 217 46 b 256 -12 217 14 231 -12 z "},"8":{"ha":778,"x_min":0,"x_max":0,"o":"m 390 13 b 203 229 250 13 203 115 b 321 468 203 343 242 424 l 422 415 b 496 367 451 400 476 382 b 579 225 540 332 579 299 b 390 13 579 125 518 13 z m 468 551 b 618 638 526 579 592 601 b 657 756 644 674 657 713 b 386 978 657 894 521 978 b 197 907 313 978 249 953 b 118 728 153 868 118 806 b 294 483 118 629 176 547 b 83 225 154 415 83 329 b 386 -12 83 71 215 -11 b 693 265 557 -14 693 96 b 468 551 693 379 603 481 z m 379 953 b 553 750 524 954 553 842 b 440 569 553 667 497 607 b 225 776 349 617 225 664 b 379 953 225 865 261 951 z "},"9":{"ha":778,"x_min":0,"x_max":0,"o":"m 107 122 b 324 -12 107 56 229 -12 b 707 543 619 -12 707 250 b 394 978 707 771 617 978 b 76 640 201 978 76 833 b 360 328 76 461 181 328 b 558 447 454 328 514 383 l 561 444 b 525 157 561 338 564 226 b 346 13 494 101 439 13 b 164 181 200 13 244 181 b 107 122 114 181 107 163 z m 219 646 b 390 953 219 803 251 953 b 564 585 507 953 564 792 l 564 522 b 372 356 524 439 474 356 b 219 646 250 356 219 510 z "}," ":{"ha":399,"x_min":0,"x_max":0,"o":""},"!":{"ha":386,"x_min":0,"x_max":0,"o":"m 193 -12 b 276 69 239 -12 276 25 b 193 151 276 115 239 151 b 111 69 147 151 111 115 b 193 -12 111 24 147 -12 z m 193 978 b 111 894 146 978 111 942 b 113 863 111 882 111 871 b 115 831 113 853 113 843 b 121 790 115 821 118 807 b 161 431 142 674 161 569 b 163 260 164 385 163 326 l 224 260 b 256 728 224 440 226 585 b 274 831 264 767 265 797 b 275 863 274 842 275 854 l 275 894 b 193 978 275 942 240 978 z "},"\"":{"ha":460,"x_min":0,"x_max":0,"o":"m 135 1040 b 75 979 100 1040 75 1014 b 81 933 75 969 76 954 b 117 707 90 861 104 781 l 153 707 b 165 783 157 731 160 756 l 178 863 b 188 932 182 888 185 911 b 193 978 192 953 193 968 b 135 1040 193 1013 169 1040 z m 325 1040 b 265 979 290 1040 265 1014 b 271 933 265 969 267 954 b 307 707 281 861 294 781 l 343 707 b 356 783 347 731 350 756 l 368 863 b 383 978 374 899 383 943 b 325 1040 383 1014 361 1040 z "},"#":{"ha":835,"x_min":0,"x_max":0,"o":"m 740 319 l 750 382 l 578 382 l 607 596 l 776 596 l 786 658 l 618 658 l 661 965 l 586 965 l 543 658 l 354 658 l 397 965 l 322 965 l 278 658 l 97 658 l 88 596 l 267 596 l 238 382 l 58 382 l 49 319 l 225 319 l 176 0 l 251 0 l 300 319 l 489 319 l 444 0 l 519 0 l 565 319 z m 342 596 l 531 596 l 501 382 l 313 382 z "},"$":{"ha":808,"x_min":0,"x_max":0,"o":"m 379 1128 l 379 978 b 281 958 344 976 308 971 b 113 713 188 924 113 840 b 171 553 113 638 132 594 b 379 426 222 497 297 463 l 379 14 b 100 294 229 28 125 160 l 72 294 l 92 14 l 114 14 l 156 75 b 379 -12 219 24 282 -7 l 379 -212 l 421 -212 l 421 -12 b 538 7 461 -10 503 -3 b 740 272 647 47 740 126 b 675 436 740 350 717 392 b 421 583 610 499 519 539 l 421 950 b 643 711 538 929 610 828 l 668 711 l 654 960 l 632 960 l 593 904 b 421 976 546 943 490 969 l 421 1128 z m 379 951 l 379 607 b 274 675 339 626 303 646 b 231 775 246 700 231 729 b 379 951 231 858 268 940 z m 421 14 l 421 404 b 492 371 446 393 472 382 b 604 214 551 335 604 300 b 421 14 604 114 538 25 z "},"%":{"ha":840,"x_min":0,"x_max":0,"o":"m 115 0 l 797 965 l 738 965 l 44 0 z m 251 978 b 193 963 232 978 213 972 b 103 778 139 929 103 863 b 115 700 103 750 107 725 b 251 582 133 642 178 582 b 308 597 271 582 289 588 b 399 778 363 626 399 696 b 386 856 399 807 394 832 b 251 978 369 914 325 978 z m 251 613 b 194 647 228 613 208 625 b 174 775 181 669 174 713 b 179 857 174 807 175 835 b 251 946 189 903 200 946 b 328 775 324 946 328 851 b 307 647 328 713 321 669 b 251 613 293 625 275 613 z m 590 383 b 535 368 571 383 553 378 b 443 183 478 336 443 272 b 454 106 443 156 447 131 b 590 -12 475 50 517 -12 b 694 44 638 -12 672 15 b 739 183 721 79 739 125 b 728 263 739 213 735 239 b 590 383 707 319 665 383 z m 590 19 b 535 53 567 19 549 31 b 514 181 521 75 514 118 b 519 264 514 213 515 242 b 590 353 528 308 542 353 b 624 343 603 353 615 350 b 667 181 664 317 667 251 b 647 53 667 118 661 75 b 590 19 633 31 614 19 z "},"&":{"ha":1100,"x_min":0,"x_max":0,"o":"m 565 797 b 435 574 565 700 499 624 b 339 783 399 625 339 701 b 456 953 339 867 379 953 b 565 797 553 953 565 874 z m 342 486 l 589 161 b 356 26 533 113 458 26 b 197 225 239 26 197 135 b 342 486 197 325 214 411 z m 607 138 b 754 18 651 93 704 47 b 871 -12 789 -1 822 -12 b 1057 132 976 -12 1024 44 l 1043 140 b 939 51 1024 101 996 51 b 819 101 901 51 858 78 b 696 233 782 126 731 186 b 854 444 746 290 814 385 b 1024 565 890 499 950 565 l 1024 586 l 736 586 l 736 567 b 822 504 776 567 822 539 b 679 257 822 432 725 317 l 451 550 b 601 658 522 597 569 617 b 667 792 633 700 667 746 b 611 925 667 850 644 894 b 471 978 578 956 533 978 b 382 960 439 978 408 971 b 239 729 304 922 239 844 b 264 622 239 692 253 656 b 326 514 276 589 300 553 b 113 367 228 465 157 415 b 44 210 68 319 44 267 b 65 121 44 178 51 149 b 314 -17 107 42 194 -17 b 607 138 446 -17 538 63 z "},"'":{"ha":269,"x_min":0,"x_max":0,"o":"m 135 1040 b 75 979 100 1040 75 1014 b 81 933 75 969 76 954 b 117 707 90 861 104 781 l 153 707 b 165 783 157 731 160 756 l 178 863 b 188 932 182 888 185 911 b 193 978 192 953 193 968 b 135 1040 193 1013 169 1040 z "},"(":{"ha":415,"x_min":0,"x_max":0,"o":"m 392 1007 l 381 1017 b 133 736 283 919 190 843 b 58 406 78 632 58 519 b 135 68 58 289 75 174 b 386 -222 197 -42 286 -125 l 401 -208 b 303 -75 363 -165 331 -121 b 185 426 222 54 185 215 b 193 582 185 483 188 536 b 392 1007 221 765 294 878 z "},")":{"ha":415,"x_min":0,"x_max":0,"o":"m 68 -212 l 79 -222 b 326 58 176 -125 269 -49 b 401 389 382 163 401 275 b 325 726 401 506 385 621 b 74 1017 263 836 174 919 l 58 1003 b 157 869 97 960 129 915 b 275 368 238 740 275 579 b 267 213 275 311 272 258 b 68 -212 239 29 165 -83 z "},"*":{"ha":646,"x_min":0,"x_max":0,"o":"m 568 601 b 554 644 568 622 563 638 b 446 672 529 663 486 664 b 363 708 421 679 394 689 b 451 747 396 728 425 740 b 514 761 476 753 497 757 b 565 815 550 769 565 774 b 507 871 565 847 539 871 b 449 832 472 871 465 854 b 411 792 440 821 428 808 b 342 740 394 775 372 758 b 365 869 344 793 347 832 b 381 921 372 883 381 903 b 324 978 381 954 357 978 b 267 921 292 978 267 953 b 283 869 267 906 278 879 b 304 740 297 836 304 792 b 247 782 282 753 264 767 b 172 857 219 810 197 835 b 140 871 163 867 151 871 b 82 815 108 871 82 847 b 111 765 82 789 94 776 b 172 751 128 753 146 757 b 285 708 214 743 246 729 b 140 661 238 681 193 672 b 79 603 106 654 79 643 b 136 546 79 571 103 546 b 168 554 151 546 163 549 b 190 582 175 561 183 571 b 228 624 200 593 211 607 b 303 676 244 640 269 657 b 283 557 300 631 294 589 b 271 521 278 543 275 529 b 264 499 265 513 264 506 b 322 438 264 467 289 438 b 378 494 353 438 378 465 b 371 521 378 501 376 511 b 358 557 368 531 364 543 b 342 676 349 592 342 628 b 444 594 379 658 426 625 b 479 556 457 575 469 563 b 508 547 489 549 499 547 b 568 601 540 547 568 569 z "},"+":{"ha":689,"x_min":0,"x_max":0,"o":"m 313 131 l 378 131 l 378 393 l 638 393 l 638 456 l 378 456 l 378 717 l 313 717 l 313 456 l 51 456 l 51 393 l 313 393 z "},",":{"ha":342,"x_min":0,"x_max":0,"o":"m 83 74 b 149 0 83 35 108 0 b 186 10 163 0 175 3 b 158 -87 186 -26 178 -58 b 61 -179 139 -117 106 -147 l 90 -219 b 169 -156 122 -197 149 -175 b 258 26 218 -110 258 -62 b 168 151 258 110 228 151 b 83 74 119 151 83 121 z "},"-":{"ha":579,"x_min":0,"x_max":0,"o":"m 97 283 l 483 283 l 483 388 l 97 388 z "},".":{"ha":388,"x_min":0,"x_max":0,"o":"m 193 -12 b 276 69 240 -12 276 24 b 193 151 276 117 240 151 b 111 69 149 151 111 114 b 193 -12 111 26 149 -12 z "},"/":{"ha":576,"x_min":0,"x_max":0,"o":"m 110 0 l 540 965 l 479 965 l 36 0 z "},":":{"ha":357,"x_min":0,"x_max":0,"o":"m 178 -12 b 261 69 225 -12 261 24 b 178 151 261 117 225 151 b 97 69 133 151 97 115 b 178 -12 97 25 133 -12 z m 178 396 b 261 478 225 396 261 432 b 178 560 261 525 225 560 b 97 478 133 560 97 524 b 178 396 97 433 133 396 z "},";":{"ha":389,"x_min":0,"x_max":0,"o":"m 193 396 b 276 478 239 396 276 433 b 193 560 276 524 239 560 b 111 478 147 560 111 524 b 193 396 111 432 147 396 z m 111 74 b 176 0 111 35 136 0 b 214 10 190 0 203 3 b 186 -87 214 -26 206 -58 b 89 -179 167 -117 133 -147 l 118 -219 b 197 -156 150 -197 176 -175 b 286 26 246 -111 286 -61 b 196 151 286 110 256 151 b 111 74 146 151 111 122 z "},"<":{"ha":728,"x_min":0,"x_max":0,"o":"m 624 158 l 106 421 l 624 682 l 624 753 l 49 461 l 49 381 l 624 90 z "},"=":{"ha":776,"x_min":0,"x_max":0,"o":"m 674 499 l 674 561 l 104 561 l 104 499 z m 674 285 l 674 349 l 104 349 l 104 285 z "},">":{"ha":728,"x_min":0,"x_max":0,"o":"m 624 421 l 106 158 l 106 90 l 679 381 l 679 461 l 106 753 l 106 682 z "},"?":{"ha":500,"x_min":0,"x_max":0,"o":"m 428 664 b 347 882 428 754 389 831 b 164 978 308 932 244 978 b 86 907 113 978 86 953 b 153 840 86 868 114 840 b 247 854 182 840 218 854 b 356 811 282 854 342 835 b 390 708 374 786 390 751 b 193 585 392 614 303 585 l 172 585 l 172 297 l 210 297 l 210 464 b 428 664 338 464 428 536 z m 186 -12 b 269 69 233 -12 269 24 b 186 151 269 117 233 151 b 106 69 142 151 106 115 b 186 -12 106 25 142 -12 z "},"@":{"ha":1289,"x_min":0,"x_max":0,"o":"m 756 240 l 761 240 b 893 97 768 143 813 97 b 1115 225 993 97 1068 161 b 1211 529 1169 300 1211 404 b 1072 854 1211 674 1153 783 b 708 978 986 929 867 978 b 251 804 513 978 357 903 b 65 376 149 708 65 563 b 236 -15 65 203 139 69 b 674 -168 338 -107 486 -168 b 894 -133 753 -168 825 -157 b 1110 -21 964 -110 1036 -72 l 1094 1 b 689 -129 972 -82 831 -129 b 321 25 532 -129 404 -53 b 179 375 238 106 179 218 b 333 765 179 540 247 676 b 715 942 421 853 549 942 b 1031 808 900 942 954 874 b 1154 526 1100 744 1154 651 b 1135 393 1154 482 1149 436 b 1010 190 1108 308 1068 239 b 928 160 982 171 956 160 b 872 210 896 160 872 176 b 906 367 872 256 894 319 l 989 664 l 869 664 l 842 553 l 836 554 b 689 676 817 631 776 676 b 461 563 590 676 513 619 b 356 311 407 506 356 414 b 410 158 356 246 378 193 b 544 97 440 124 483 97 b 756 240 642 97 715 172 z m 794 494 b 719 264 794 404 757 321 b 563 153 686 217 632 153 b 479 285 506 153 479 197 b 619 594 479 424 539 536 b 700 624 644 614 672 624 b 794 494 767 624 794 567 z "},"A":{"ha":967,"x_min":0,"x_max":0,"o":"m 575 18 l 575 0 l 985 0 l 985 18 b 843 146 901 18 874 86 b 793 258 829 175 813 213 l 508 965 l 468 965 l 142 149 b 118 106 135 131 126 117 b -7 17 90 68 44 24 l -7 0 l 297 0 l 297 17 b 179 110 236 17 179 54 b 194 190 179 139 186 161 b 261 365 213 242 238 308 l 606 365 l 669 214 b 683 178 676 200 679 188 b 699 103 692 156 699 133 b 575 18 699 51 640 18 z m 275 397 l 432 796 l 596 397 z "},"B":{"ha":961,"x_min":0,"x_max":0,"o":"m 447 965 l 72 965 l 72 946 b 175 907 115 943 157 929 b 199 794 196 882 199 843 l 199 171 b 171 57 199 121 194 78 b 47 19 146 32 100 22 l 47 0 l 499 0 b 592 3 535 0 565 0 b 758 38 664 3 713 14 b 899 251 833 72 899 149 b 788 449 899 331 861 396 b 588 508 732 485 674 499 l 588 514 b 753 600 663 536 719 565 b 804 736 788 635 804 681 b 447 965 804 907 636 965 z m 329 172 l 329 493 l 386 493 b 531 488 442 493 485 492 b 729 249 653 467 729 375 b 503 29 729 119 654 29 b 329 172 388 29 329 61 z m 647 721 b 510 528 647 617 597 547 b 400 522 476 524 443 522 l 329 522 l 329 914 b 351 936 329 928 338 936 l 447 936 b 647 721 582 936 647 856 z "},"C":{"ha":1004,"x_min":0,"x_max":0,"o":"m 556 978 b 208 836 401 978 288 918 b 75 467 129 751 75 628 b 203 118 75 315 124 194 b 542 -12 278 38 372 -12 b 860 99 700 -12 772 25 l 906 0 l 933 0 l 933 313 l 908 313 b 571 17 863 140 756 17 b 243 474 339 17 243 229 b 265 658 243 543 250 604 b 567 939 301 800 393 939 b 885 676 729 939 849 811 l 910 676 l 899 965 l 871 965 l 842 888 b 556 978 754 942 679 978 z "},"D":{"ha":1107,"x_min":0,"x_max":0,"o":"m 47 0 l 538 0 b 894 131 690 0 814 53 b 1035 467 975 206 1035 318 b 888 824 1035 622 971 743 b 513 965 800 906 674 965 l 72 965 l 72 946 b 175 907 115 943 160 932 b 199 794 196 883 199 843 l 199 171 b 171 56 199 118 194 79 b 47 19 144 32 100 22 z m 517 29 b 329 172 393 29 329 76 l 329 914 b 351 936 329 928 338 936 l 510 936 b 871 464 765 936 871 722 b 517 29 871 215 758 29 z "},"E":{"ha":910,"x_min":0,"x_max":0,"o":"m 326 519 l 326 915 b 347 936 326 929 333 936 l 507 936 b 778 744 672 936 754 885 l 804 744 l 793 965 l 69 965 l 69 946 b 174 903 115 943 153 926 b 194 790 193 881 194 838 l 194 175 b 169 61 194 126 192 83 b 57 19 146 38 106 22 l 57 0 l 835 0 l 854 247 l 826 247 b 796 156 818 211 808 179 b 535 29 756 76 657 29 b 371 60 464 29 408 32 b 326 172 338 79 326 118 l 326 490 b 442 481 372 490 411 486 b 561 332 519 464 561 422 l 586 332 l 586 675 l 561 675 b 326 519 561 546 460 519 z "},"F":{"ha":839,"x_min":0,"x_max":0,"o":"m 326 186 l 326 463 b 481 429 400 463 439 456 b 561 294 522 406 553 354 l 586 294 l 586 663 l 561 663 b 538 585 558 631 547 604 b 326 497 503 517 433 497 l 326 917 b 347 936 326 931 333 936 l 507 936 b 704 882 585 936 661 913 b 782 726 747 851 772 794 l 807 726 l 793 965 l 69 965 l 69 946 b 174 907 115 943 153 931 b 194 794 193 885 194 842 l 194 176 b 169 63 194 128 192 85 b 57 19 146 39 106 22 l 57 0 l 500 0 l 500 19 b 356 64 439 22 386 36 b 326 186 326 86 326 129 z "},"G":{"ha":1090,"x_min":0,"x_max":0,"o":"m 556 978 b 208 836 403 978 286 919 b 75 467 131 750 75 626 b 200 118 75 317 122 196 b 536 -12 275 39 386 -12 b 763 32 685 -12 703 1 b 910 103 813 57 868 99 b 954 104 924 104 938 104 l 954 244 b 1057 379 954 319 985 379 l 1057 404 l 701 404 l 701 379 b 826 232 794 379 826 328 b 765 88 826 174 800 117 b 571 17 718 56 668 17 b 243 474 339 17 243 229 b 567 951 243 701 319 951 b 869 676 722 951 869 828 l 894 676 l 911 965 l 888 965 l 842 888 b 556 978 754 942 679 978 z "},"H":{"ha":1158,"x_min":0,"x_max":0,"o":"m 965 186 l 965 779 b 971 857 965 811 967 838 b 988 901 974 876 979 889 b 1089 946 1006 926 1046 943 l 1089 965 l 708 965 l 708 946 b 813 901 754 943 792 925 b 833 789 831 875 833 842 l 833 510 l 326 510 l 326 779 b 331 857 326 811 326 838 b 450 946 339 919 379 942 l 450 965 l 69 965 l 69 946 b 174 901 115 943 153 925 b 194 789 193 879 194 836 l 194 176 b 169 63 194 128 192 85 b 57 19 146 39 106 22 l 57 0 l 463 0 l 463 19 b 372 40 433 21 399 26 b 326 186 331 63 326 107 l 326 478 l 833 478 l 833 176 b 829 106 833 147 833 125 b 696 19 815 44 769 24 l 696 0 l 1101 0 l 1101 19 b 1031 38 1072 21 1056 22 b 965 186 985 67 965 108 z "},"I":{"ha":519,"x_min":0,"x_max":0,"o":"m 326 210 l 326 756 b 331 849 326 793 326 825 b 349 906 333 872 340 892 b 450 946 365 933 404 943 l 450 965 l 69 965 l 69 946 b 174 907 117 943 154 935 b 194 765 193 874 194 824 l 194 200 b 169 54 194 136 194 86 b 57 19 147 26 108 22 l 57 0 l 463 0 l 463 19 b 351 54 414 22 369 24 b 326 210 325 92 326 138 z "},"J":{"ha":493,"x_min":0,"x_max":0,"o":"m -74 -137 b -137 -204 -115 -137 -137 -162 b 53 -326 -137 -282 -26 -326 b 314 -3 236 -326 314 -196 l 314 793 b 318 871 314 825 314 851 b 438 946 326 933 367 942 l 438 965 l 57 965 l 57 946 b 161 915 103 943 140 939 b 182 803 179 890 182 853 l 182 -54 b 163 -239 182 -122 182 -203 b 82 -293 143 -275 115 -293 b -74 -137 -11 -293 26 -137 z "},"K":{"ha":976,"x_min":0,"x_max":0,"o":"m 326 172 l 326 388 l 400 475 l 657 129 b 689 82 672 110 682 94 b 700 54 696 69 700 61 b 678 28 700 43 692 35 b 608 19 664 22 640 19 l 608 0 l 993 0 l 993 19 b 860 85 922 19 897 43 l 494 588 l 729 882 b 894 947 775 931 806 947 l 894 965 l 593 965 l 593 946 b 683 886 661 944 683 910 b 658 838 683 875 675 858 l 326 435 l 326 792 b 351 918 326 850 326 890 b 450 946 369 942 407 946 l 450 965 l 69 965 l 69 946 b 188 876 138 946 171 932 b 194 801 193 858 194 833 l 194 163 b 189 90 194 133 193 110 b 57 19 175 29 133 19 l 57 0 l 463 0 l 463 19 b 351 47 413 19 372 24 b 326 172 328 75 326 115 z "},"L":{"ha":911,"x_min":0,"x_max":0,"o":"m 867 0 l 885 247 l 860 247 b 753 79 844 175 800 114 b 549 29 700 50 636 29 b 442 35 504 29 471 31 b 326 175 354 51 326 71 l 326 793 b 331 871 326 825 326 851 b 450 946 339 933 379 942 l 450 965 l 69 965 l 69 946 b 174 915 115 943 153 939 b 194 803 193 893 194 850 l 194 163 b 169 49 194 114 192 71 b 57 19 146 25 106 22 l 57 0 z "},"M":{"ha":1310,"x_min":0,"x_max":0,"o":"m 682 225 l 664 225 l 347 965 l 69 965 l 69 946 b 165 907 117 943 146 935 b 200 751 185 874 200 810 l 200 200 b 161 54 200 136 186 86 b 57 19 139 26 108 22 l 57 0 l 392 0 l 392 19 b 322 28 363 21 340 24 b 236 210 254 43 236 121 l 236 824 l 240 824 l 600 -12 l 614 -12 l 979 824 l 985 824 l 985 200 b 981 107 985 161 985 129 b 847 19 968 36 929 24 l 847 0 l 1253 0 l 1253 19 b 1183 28 1224 21 1201 24 b 1117 210 1115 43 1117 121 l 1117 742 b 1119 844 1117 779 1115 821 b 1240 946 1131 900 1161 943 l 1240 965 l 1008 965 z "},"N":{"ha":1114,"x_min":0,"x_max":0,"o":"m 861 -12 l 913 -12 l 913 751 b 917 844 913 790 913 821 b 1067 946 929 915 985 942 l 1067 965 l 746 965 l 746 946 b 858 897 792 943 843 926 b 883 742 882 858 883 811 l 883 235 l 864 235 l 308 965 l 69 965 l 69 946 b 174 893 117 943 154 921 b 207 751 193 860 207 810 l 207 200 b 169 54 207 136 194 86 b 57 19 147 26 108 22 l 57 0 l 385 0 l 385 19 b 319 28 358 21 338 24 b 236 210 258 44 236 124 l 236 786 l 254 786 z "},"O":{"ha":1185,"x_min":0,"x_max":0,"o":"m 593 978 b 222 832 433 978 307 914 b 71 475 139 751 71 632 b 224 131 71 324 140 208 b 593 -12 307 50 386 -12 b 963 131 781 -12 879 50 b 1114 475 1046 211 1114 322 b 964 832 1114 633 1049 750 b 593 978 879 914 753 978 z m 593 13 b 235 471 346 13 235 222 b 593 953 235 711 356 953 b 951 471 846 953 951 726 b 926 299 951 407 943 351 b 593 13 879 158 806 13 z "},"P":{"ha":861,"x_min":0,"x_max":0,"o":"m 825 724 b 729 901 825 800 793 858 b 463 965 667 944 578 965 l 69 965 l 69 946 b 174 907 115 943 153 931 b 194 794 193 885 194 842 l 194 171 b 169 57 194 122 192 79 b 57 19 146 33 106 22 l 57 0 l 499 0 l 499 19 b 356 56 438 19 382 29 b 326 178 328 81 326 119 l 326 456 l 439 456 b 825 724 636 456 825 506 z m 663 708 b 388 485 663 553 547 485 l 326 485 l 326 914 b 347 936 326 928 333 936 l 421 936 b 663 708 560 936 663 849 z "},"Q":{"ha":1188,"x_min":0,"x_max":0,"o":"m 1157 -90 l 1133 -90 b 1085 -176 1121 -132 1104 -160 b 996 -201 1065 -193 1035 -201 b 804 -156 921 -201 861 -175 b 604 -108 743 -132 686 -108 l 582 -108 b 560 -110 572 -110 565 -108 l 560 -106 b 685 -42 594 -79 640 -58 b 939 92 779 -6 871 31 b 1115 474 1038 175 1115 301 b 965 832 1115 629 1049 751 b 594 978 881 914 754 978 b 224 832 435 978 308 914 b 72 471 139 750 72 629 b 213 118 72 321 132 199 b 563 -36 294 33 407 -31 l 400 -129 b 331 -175 371 -146 347 -154 b 317 -204 319 -183 317 -189 b 354 -236 317 -225 331 -236 b 389 -224 368 -236 381 -232 b 508 -146 421 -196 449 -146 b 606 -167 540 -146 574 -149 b 707 -226 638 -186 672 -204 b 950 -301 775 -262 850 -301 b 1161 -143 1061 -301 1161 -207 b 1157 -90 1161 -126 1160 -106 z m 594 -11 b 236 471 346 -11 236 218 b 261 651 236 538 244 599 b 594 953 307 799 408 953 b 953 471 839 953 953 721 b 594 -11 953 229 831 -11 z "},"R":{"ha":988,"x_min":0,"x_max":0,"o":"m 825 724 b 729 901 825 800 793 858 b 463 965 667 944 578 965 l 69 965 l 69 946 b 174 907 115 943 153 931 b 194 794 193 885 194 842 l 194 168 b 169 54 194 119 192 76 b 57 19 146 31 106 22 l 57 0 l 499 0 l 499 19 b 356 53 438 19 382 26 b 326 175 328 78 326 117 l 326 476 l 376 476 b 411 468 389 474 401 474 b 461 407 440 449 442 432 l 779 0 l 1022 0 l 1022 19 b 850 119 942 35 894 64 l 572 471 b 825 724 722 497 825 565 z m 663 717 b 388 506 663 567 542 506 l 326 506 l 326 914 b 347 936 326 928 333 936 l 421 936 b 663 717 558 936 663 853 z "},"S":{"ha":808,"x_min":0,"x_max":0,"o":"m 97 294 l 72 294 l 92 14 l 114 14 l 156 75 b 400 -12 224 18 288 -12 b 538 7 450 -12 496 -6 b 740 272 647 47 740 126 b 675 436 740 350 717 392 b 422 585 608 499 522 539 b 274 675 360 614 314 635 b 231 775 246 700 231 729 b 397 949 231 865 303 949 b 644 711 529 949 611 828 l 668 711 l 654 960 l 631 960 l 593 904 b 393 978 539 949 479 978 b 281 958 351 978 314 972 b 113 713 188 924 113 840 b 171 553 113 638 132 594 b 385 422 225 496 297 460 b 492 371 428 403 463 388 b 604 214 551 335 604 300 b 404 17 604 107 515 17 b 97 294 236 17 124 151 z "},"T":{"ha":1006,"x_min":0,"x_max":0,"o":"m 429 897 l 429 174 b 401 57 429 124 422 83 b 265 19 374 29 325 22 l 265 0 l 740 0 l 740 19 b 585 106 658 22 594 36 b 578 174 579 125 578 147 l 578 897 b 644 935 578 932 610 929 b 719 936 664 935 688 936 b 897 897 789 936 861 928 b 965 742 936 868 960 808 l 985 742 l 972 965 l 44 965 l 26 742 l 46 742 b 75 846 47 786 63 821 b 306 936 110 917 200 936 b 369 935 332 936 353 935 b 429 897 401 932 429 926 z "},"U":{"ha":1079,"x_min":0,"x_max":0,"o":"m 579 17 b 326 304 401 17 326 126 l 326 688 b 354 915 326 854 325 882 b 464 946 378 942 413 946 l 464 965 l 36 965 l 36 946 b 175 844 126 946 175 911 l 175 688 l 175 314 b 267 65 175 188 201 125 b 544 -12 331 10 422 -12 b 890 361 806 -12 890 143 l 890 656 b 896 831 890 725 892 793 b 926 911 900 867 914 893 b 1043 946 947 940 992 946 l 1043 965 l 679 965 l 679 946 b 744 940 706 946 726 944 b 836 839 799 932 825 899 b 846 656 843 800 846 729 l 846 313 b 579 17 846 140 724 17 z "},"V":{"ha":982,"x_min":0,"x_max":0,"o":"m 393 946 l 393 965 l -17 965 l -17 946 b 149 782 88 939 114 860 l 472 -12 l 494 -12 l 833 831 b 858 883 840 849 851 872 b 993 947 879 918 940 940 l 993 965 l 689 965 l 689 947 b 800 869 753 947 800 924 b 767 750 800 821 785 797 l 543 192 l 308 769 b 285 836 297 799 289 821 b 278 878 281 853 278 867 b 393 946 278 928 339 946 z "},"W":{"ha":1474,"x_min":0,"x_max":0,"o":"m 965 946 l 965 965 l 582 965 l 582 946 b 675 922 631 946 661 936 b 726 782 700 897 715 821 b 672 640 710 729 693 694 l 513 199 l 300 788 b 279 889 289 817 279 857 b 394 946 279 943 328 946 l 394 965 l -14 965 l -14 946 b 97 900 42 946 69 931 b 176 721 132 854 151 788 l 438 -12 l 465 -12 l 740 733 l 989 -12 l 1017 -12 l 1331 844 b 1485 947 1356 911 1399 947 l 1485 965 l 1179 965 l 1179 947 b 1293 889 1236 947 1293 942 b 1261 747 1293 840 1279 797 l 1060 197 l 878 767 b 851 894 865 808 851 851 b 965 946 851 947 910 946 z "},"X":{"ha":1025,"x_min":0,"x_max":0,"o":"m 740 867 b 676 743 740 831 710 785 l 540 565 l 383 783 b 347 867 360 817 347 846 b 451 946 347 899 397 946 l 451 965 l 35 965 l 35 946 b 199 849 115 946 163 900 l 471 478 l 225 150 b 3 19 175 89 108 19 l 3 0 l 351 0 l 351 19 b 271 28 313 19 285 22 b 233 71 257 33 233 58 b 256 135 233 99 240 113 b 371 293 292 185 332 239 l 490 450 l 671 201 b 733 90 697 163 718 131 b 735 72 733 85 735 79 b 699 31 735 60 714 38 b 603 19 686 24 640 19 l 603 0 l 1031 0 l 1031 19 b 871 122 968 19 914 63 l 563 543 l 761 803 b 819 874 783 832 803 856 b 978 946 856 913 907 946 l 978 965 l 633 965 l 633 946 b 740 867 689 946 740 917 z "},"Y":{"ha":918,"x_min":0,"x_max":0,"o":"m 143 824 l 393 381 l 393 228 b 368 53 393 161 393 88 b 256 19 350 25 306 19 l 256 0 l 663 0 l 663 19 b 589 28 632 19 608 22 b 525 238 522 43 525 150 l 524 433 l 699 732 b 765 850 725 776 750 824 b 924 946 796 904 846 946 l 924 965 l 638 965 l 638 946 b 714 935 668 946 703 942 b 740 903 726 929 742 919 b 653 710 738 850 725 831 l 511 468 l 501 468 l 301 814 b 269 903 282 846 269 885 b 296 935 269 919 278 929 b 389 946 313 942 347 946 l 389 965 l -7 965 l -7 946 b 143 824 81 946 108 882 z "},"Z":{"ha":965,"x_min":0,"x_max":0,"o":"m 347 936 l 696 936 l 19 6 l 19 0 l 890 0 l 906 294 l 881 294 b 601 29 857 129 790 29 l 208 29 l 878 960 l 878 965 l 114 965 l 96 735 l 121 735 b 347 936 142 854 218 936 z "},"[":{"ha":464,"x_min":0,"x_max":0,"o":"m 247 982 l 436 982 l 436 1040 l 135 1040 l 135 -236 l 436 -236 l 436 -178 l 247 -178 z "},"\\":{"ha":576,"x_min":0,"x_max":0,"o":"m 36 965 l 468 0 l 540 0 l 97 965 z "},"]":{"ha":464,"x_min":0,"x_max":0,"o":"m 218 -178 l 29 -178 l 29 -236 l 331 -236 l 331 1040 l 29 1040 l 29 982 l 218 982 z "},"^":{"ha":601,"x_min":0,"x_max":0,"o":"m 357 513 l 244 513 l 96 289 l 151 289 l 301 436 l 450 289 l 507 289 z "},"_":{"ha":904,"x_min":0,"x_max":0,"o":"m 96 -179 l 810 -179 l 810 -94 l 96 -94 z "},"`":{"ha":344,"x_min":0,"x_max":0,"o":"m 25 863 b 43 828 25 849 31 838 b 89 797 53 817 69 806 l 261 717 l 319 717 l 157 865 b 72 907 126 893 99 907 b 25 863 44 907 25 892 z "},"a":{"ha":621,"x_min":0,"x_max":0,"o":"m 161 142 b 213 247 161 189 185 221 b 392 354 260 292 317 317 l 392 201 b 350 79 392 147 374 111 b 243 25 331 50 286 25 b 161 142 192 25 161 90 z m 200 -10 b 396 110 307 -11 364 43 l 400 110 b 499 -11 400 36 428 -11 b 622 50 558 -11 599 14 l 614 63 b 547 25 604 49 574 25 b 501 151 514 25 501 65 l 501 432 b 294 606 501 568 436 606 b 61 494 172 606 61 543 b 113 436 61 457 75 436 b 181 490 151 436 169 456 b 206 549 189 515 192 535 b 275 581 217 560 246 581 b 392 426 396 581 392 517 l 392 381 l 231 310 b 89 221 174 283 128 260 b 49 122 65 197 49 164 b 200 -10 49 38 113 -8 z "},"b":{"ha":733,"x_min":0,"x_max":0,"o":"m 213 190 l 213 365 b 236 500 213 422 215 471 b 374 567 272 550 306 567 b 553 293 500 567 553 424 b 378 18 553 142 493 18 b 303 33 354 18 322 24 b 213 190 243 61 213 101 z m 390 -12 b 597 76 482 -14 550 26 b 681 297 642 128 681 204 b 597 517 681 389 646 465 b 394 606 554 567 481 606 b 214 515 306 606 256 569 l 210 515 l 210 1021 l -1 976 l -1 957 b 88 913 40 950 72 942 b 101 768 97 892 101 843 l 101 0 l 126 0 l 193 83 b 390 -12 235 33 279 -11 z "},"c":{"ha":600,"x_min":0,"x_max":0,"o":"m 361 19 b 183 310 232 19 183 164 b 344 581 183 443 236 581 b 442 506 422 581 424 536 b 510 460 460 475 475 460 b 564 507 543 460 564 475 b 510 579 564 542 538 567 b 367 606 471 594 424 606 b 142 521 269 606 192 574 b 54 293 89 471 54 394 b 75 168 54 247 63 206 b 325 -11 113 68 190 -11 b 568 93 451 -11 517 33 l 556 107 b 361 19 511 63 439 19 z "},"d":{"ha":757,"x_min":0,"x_max":0,"o":"m 346 606 b 136 518 256 606 181 569 b 53 299 88 469 53 389 b 346 -11 53 119 165 -11 b 454 14 388 -11 425 -7 b 529 96 497 46 501 57 l 543 94 l 543 -11 l 729 1 l 729 21 b 686 22 711 21 697 21 b 632 149 632 31 635 85 b 631 283 631 181 631 231 l 631 1021 l 400 979 l 400 960 b 485 936 440 960 467 950 b 524 842 514 914 524 893 b 524 736 526 813 524 778 l 524 531 b 346 606 478 576 429 606 z m 346 581 b 490 514 410 581 460 551 b 521 372 519 478 521 443 l 521 225 b 464 54 521 136 499 83 b 346 17 436 31 396 17 b 181 304 217 17 181 168 b 346 581 181 438 225 581 z "},"e":{"ha":642,"x_min":0,"x_max":0,"o":"m 381 19 b 182 306 244 19 182 164 b 189 375 182 324 185 361 l 556 375 b 590 397 581 375 590 376 b 363 606 590 543 508 606 b 238 582 318 606 276 599 b 54 290 132 535 54 440 b 349 -11 54 111 168 -15 b 586 104 476 -8 513 33 l 572 119 b 381 19 525 71 464 19 z m 468 433 b 467 415 468 428 468 421 b 400 403 461 397 426 403 l 193 403 b 349 581 211 500 253 582 b 468 433 442 579 468 506 z "},"f":{"ha":461,"x_min":0,"x_max":0,"o":"m 382 996 b 463 936 446 996 453 963 b 521 892 472 907 486 892 b 571 946 551 892 571 917 b 526 1000 571 968 556 985 b 413 1021 497 1015 458 1021 b 151 747 243 1021 151 944 l 151 594 l 25 594 l 25 569 l 151 569 l 151 149 b 135 42 151 101 151 65 b 54 17 121 18 93 19 l 54 0 l 374 0 l 374 17 b 315 24 350 18 331 18 b 257 157 264 38 257 89 l 257 569 l 438 569 l 438 594 l 257 594 l 257 754 b 382 996 257 896 282 996 z "},"g":{"ha":671,"x_min":0,"x_max":0,"o":"m 201 406 b 306 581 201 489 224 581 b 408 404 390 581 408 490 b 307 228 408 318 390 228 b 201 406 218 228 201 324 z m 622 513 b 667 554 647 513 667 528 b 594 606 667 589 643 606 b 539 593 576 606 557 601 b 472 547 521 583 499 568 b 304 606 432 582 375 606 b 146 550 239 606 179 583 b 83 408 110 517 83 475 b 153 258 83 340 114 293 b 199 231 168 247 181 236 l 199 225 b 85 118 143 215 85 179 b 301 0 85 7 200 15 b 357 -6 319 -3 339 -3 b 413 -15 376 -10 394 -12 b 515 -125 468 -24 515 -64 b 324 -267 515 -203 451 -267 b 136 -139 203 -267 136 -221 b 156 -78 136 -117 143 -96 b 204 -46 168 -60 185 -51 b 136 -22 185 -29 163 -22 b 97 -31 122 -22 111 -25 b 36 -135 63 -47 36 -82 b 114 -257 36 -193 74 -232 b 318 -292 165 -285 236 -292 b 610 -99 479 -292 610 -246 b 432 85 610 10 529 72 b 294 106 385 92 342 101 b 167 147 253 110 167 106 b 193 179 167 164 175 174 b 289 203 211 185 243 199 b 526 408 429 213 526 267 b 483 529 526 450 501 500 b 542 561 501 542 524 561 b 622 513 594 561 582 513 z "},"h":{"ha":769,"x_min":0,"x_max":0,"o":"m 233 156 l 233 388 b 253 467 233 419 238 446 b 424 574 285 511 342 574 b 543 313 529 574 543 449 l 543 147 b 540 79 543 118 542 97 b 449 17 532 25 508 21 l 449 0 l 746 0 l 746 17 b 696 22 725 18 708 18 b 654 156 651 38 654 92 l 654 358 b 617 539 654 443 647 494 b 456 606 583 576 526 606 b 236 489 358 606 281 550 l 231 489 l 231 1021 l 25 979 l 25 960 b 108 918 58 960 99 939 b 115 896 114 913 114 904 b 121 836 119 882 119 863 b 124 731 124 810 124 774 l 124 147 b 108 40 124 101 124 64 b 28 17 94 19 64 19 l 28 0 l 325 0 l 325 17 b 275 22 304 18 288 18 b 233 156 228 38 233 90 z "},"i":{"ha":381,"x_min":0,"x_max":0,"o":"m 256 156 l 256 606 l 36 563 l 36 543 b 113 514 74 543 96 531 b 146 314 140 486 146 460 l 146 147 b 142 82 146 121 146 100 b 39 17 133 28 99 21 l 39 0 l 361 0 l 361 17 b 306 22 339 18 319 18 b 256 156 257 36 256 89 z m 196 764 b 267 835 233 764 267 797 b 196 904 267 871 232 904 b 126 835 161 904 126 869 b 196 764 126 797 158 764 z "},"j":{"ha":340,"x_min":0,"x_max":0,"o":"m 39 -264 b -39 -187 -4 -264 -22 -225 b -65 -144 -50 -165 -60 -150 b -97 -135 -72 -139 -83 -135 b -154 -187 -131 -135 -154 -153 b 8 -292 -154 -244 -71 -292 b 239 -3 171 -292 239 -172 l 239 606 l 18 563 l 18 543 b 96 514 56 543 83 524 b 129 314 126 490 129 463 l 129 -76 b 39 -264 129 -179 128 -264 z m 182 764 b 251 835 219 764 251 797 b 182 904 251 869 217 904 b 113 835 147 904 113 869 b 182 764 113 797 144 764 z "},"k":{"ha":690,"x_min":0,"x_max":0,"o":"m 438 526 b 413 474 438 519 431 492 b 338 400 394 456 371 433 l 233 304 l 233 1021 l 18 979 l 18 960 b 83 938 44 960 71 949 b 126 731 121 904 126 882 l 126 147 b 106 42 126 101 125 64 b 18 17 92 18 56 19 l 18 0 l 338 0 l 338 17 b 282 22 315 18 297 18 b 233 156 235 36 233 90 l 233 267 l 265 294 l 399 131 b 444 79 417 110 433 93 b 460 43 457 64 460 58 b 390 17 460 25 419 17 l 390 0 l 685 0 l 685 17 b 622 29 657 17 639 15 b 594 46 614 35 603 40 b 567 76 588 54 578 64 l 332 357 l 500 518 b 536 547 514 531 528 540 b 639 575 561 567 592 575 l 639 594 l 347 594 l 347 575 b 438 526 396 575 439 557 z "},"l":{"ha":364,"x_min":0,"x_max":0,"o":"m 235 151 l 235 1021 l 22 981 l 22 961 b 97 925 40 960 72 950 b 131 742 119 903 131 896 l 131 143 b 125 79 131 117 129 97 b 25 17 117 26 85 21 l 25 0 l 335 0 l 335 17 b 282 22 314 18 294 18 b 235 151 235 36 235 86 z "},"m":{"ha":1203,"x_min":0,"x_max":0,"o":"m 978 313 l 978 147 b 963 42 978 99 978 65 b 882 17 949 18 921 19 l 882 0 l 1181 0 l 1181 17 b 1131 22 1160 18 1143 18 b 1089 156 1083 36 1089 92 l 1089 358 b 1051 540 1089 439 1083 499 b 890 606 1021 579 958 606 b 665 492 788 606 717 553 l 660 492 b 471 606 635 563 565 606 b 246 490 364 606 303 556 l 239 490 l 222 606 l 40 563 l 40 543 b 94 528 58 542 86 535 b 138 314 124 503 138 483 l 138 147 b 135 79 138 118 138 97 b 42 17 131 24 99 21 l 42 0 l 339 0 l 339 17 b 290 22 318 18 303 18 b 247 156 243 38 247 90 l 247 339 b 267 461 247 389 247 429 b 429 572 293 511 367 572 b 558 313 544 572 558 449 l 558 147 b 554 79 558 118 557 97 b 464 17 550 24 521 21 l 464 0 l 763 0 l 763 17 b 710 22 742 18 722 18 b 668 156 663 38 668 90 l 668 339 b 686 461 668 389 668 431 b 849 572 717 510 789 572 b 978 313 971 572 978 439 z "},"n":{"ha":771,"x_min":0,"x_max":0,"o":"m 239 492 l 235 492 l 219 606 l 40 563 l 40 543 b 101 519 58 542 85 536 b 136 338 128 493 136 479 l 136 146 b 133 78 136 117 136 96 b 42 17 129 25 96 21 l 42 0 l 336 0 l 336 17 b 285 22 315 18 297 18 b 243 154 236 39 243 88 l 243 347 b 263 467 243 399 243 433 b 435 574 292 518 360 574 b 549 317 553 574 549 439 l 549 146 b 546 78 549 117 549 96 b 456 17 542 25 511 21 l 456 0 l 746 0 l 746 17 b 697 22 726 18 708 18 b 656 154 650 36 656 90 l 656 363 b 621 543 656 444 651 500 b 461 606 589 581 531 606 b 239 492 360 606 289 551 z "},"o":{"ha":733,"x_min":0,"x_max":0,"o":"m 364 606 b 244 583 322 606 283 599 b 53 301 140 540 53 446 b 78 175 53 256 60 215 b 364 -11 125 74 190 -11 b 586 76 469 -11 536 26 b 681 301 638 128 681 201 b 656 424 681 344 672 385 b 364 606 606 524 511 606 z m 364 581 b 553 301 489 581 554 429 b 364 14 551 139 476 14 b 181 301 214 14 181 163 b 364 581 181 429 242 581 z "},"p":{"ha":760,"x_min":0,"x_max":0,"o":"m 413 -11 b 622 75 504 -11 575 25 b 707 296 671 126 707 199 b 624 518 707 394 672 464 b 414 606 576 569 507 606 b 240 510 329 606 281 560 l 236 510 l 236 601 l 19 558 l 19 539 b 122 475 85 539 111 521 b 128 418 126 465 126 447 b 131 311 131 389 131 354 l 131 -132 b 110 -236 131 -178 124 -211 b 22 -264 93 -258 63 -261 l 22 -281 l 368 -281 l 368 -264 b 301 -257 339 -262 319 -261 b 240 -122 244 -243 240 -196 l 240 68 b 413 -11 285 21 329 -11 z m 400 581 b 581 292 524 581 581 419 b 408 14 581 165 521 14 b 243 153 319 14 244 92 b 240 204 243 167 240 185 l 240 371 b 247 451 240 403 242 431 b 400 581 260 501 315 581 z "},"q":{"ha":732,"x_min":0,"x_max":0,"o":"m 521 407 l 521 197 b 357 14 521 113 457 14 b 181 297 229 14 181 165 b 356 583 181 428 228 583 b 521 407 450 583 521 494 z m 343 606 b 138 514 253 606 183 565 b 53 290 92 463 53 382 b 75 168 53 247 61 204 b 338 -11 115 67 199 -11 b 519 89 444 -11 485 33 l 525 89 l 525 -129 b 500 -232 525 -174 518 -208 b 404 -261 481 -254 446 -258 l 404 -281 l 746 -281 l 746 -261 b 682 -256 718 -260 699 -260 b 631 -119 628 -240 631 -192 l 631 593 l 610 593 l 526 519 b 343 606 483 569 432 606 z "},"r":{"ha":533,"x_min":0,"x_max":0,"o":"m 529 542 b 453 606 529 583 496 606 b 396 594 435 606 414 601 b 257 456 333 571 285 518 l 253 456 l 236 593 l 40 554 l 40 535 b 101 510 61 533 90 519 b 136 421 125 489 133 465 b 139 301 139 392 139 353 l 139 147 b 136 79 139 118 138 97 b 42 17 128 22 104 21 l 42 0 l 340 0 l 340 17 b 290 25 319 18 306 17 b 249 156 247 49 249 90 l 249 246 b 308 494 249 350 264 438 b 374 539 329 521 354 539 b 465 485 428 539 424 486 b 529 542 503 483 529 504 z "},"s":{"ha":508,"x_min":0,"x_max":0,"o":"m 251 581 b 389 432 325 581 363 500 l 407 432 l 407 594 l 392 594 l 363 571 b 306 597 344 581 326 592 b 243 606 285 603 263 606 b 124 558 190 606 151 586 b 75 432 94 529 75 489 b 160 293 75 361 117 326 b 357 124 211 253 357 192 b 260 14 357 67 331 14 b 90 193 178 14 119 88 l 72 193 l 72 0 l 89 0 l 114 40 b 269 -11 156 7 211 -11 b 406 33 325 -11 371 4 b 456 160 440 64 456 107 b 278 357 456 250 354 311 b 167 483 235 388 167 414 b 251 581 167 531 192 581 z "},"t":{"ha":424,"x_min":0,"x_max":0,"o":"m 264 -11 b 414 75 340 -11 374 11 l 397 89 b 300 17 375 57 347 17 b 222 183 228 17 222 67 l 222 571 l 372 571 l 372 596 l 222 596 l 222 772 l 210 772 b 44 585 181 697 115 626 l 44 571 l 113 571 l 113 125 b 264 -11 113 33 171 -11 z "},"u":{"ha":750,"x_min":0,"x_max":0,"o":"m 631 146 b 629 250 631 174 629 208 l 629 594 l 426 594 l 426 575 b 479 560 447 572 467 567 b 519 428 517 536 519 490 l 519 269 b 501 149 519 222 515 182 b 347 19 464 61 413 17 b 239 111 279 22 253 72 b 226 289 225 151 226 207 l 226 594 l 24 594 l 24 575 b 75 560 44 572 64 567 b 117 428 108 538 117 492 l 117 236 b 153 54 117 156 122 97 b 311 -11 182 17 244 -12 b 522 115 442 -8 479 49 l 526 115 l 542 -12 l 728 1 l 728 18 b 685 21 710 18 696 18 b 631 146 631 21 636 92 z "},"v":{"ha":683,"x_min":0,"x_max":0,"o":"m 526 519 b 517 460 526 501 522 482 b 483 369 511 438 500 407 l 382 121 l 378 121 l 243 453 b 228 522 235 474 228 496 b 303 575 228 568 264 571 l 303 594 l 6 594 l 6 575 b 92 517 51 571 76 551 b 117 463 99 503 108 485 l 306 -12 l 356 -12 b 533 411 415 128 475 279 b 571 499 546 440 558 469 b 664 575 585 531 621 575 l 664 594 l 442 594 l 442 575 b 526 519 492 575 526 563 z "},"w":{"ha":956,"x_min":0,"x_max":0,"o":"m 804 522 b 800 472 804 501 807 492 b 758 361 789 438 774 400 l 679 165 l 675 165 l 525 594 l 499 594 l 328 168 l 325 168 l 238 453 b 229 492 233 468 232 481 b 225 518 226 500 225 511 b 311 575 225 558 264 575 l 311 594 l 14 594 l 14 575 b 85 543 46 575 71 558 b 125 463 103 524 115 496 l 265 -11 l 288 -11 l 465 438 l 469 436 l 622 -11 l 640 -11 l 815 426 b 869 538 835 474 844 508 b 940 575 881 556 917 575 l 940 594 l 717 594 l 717 575 b 804 522 764 575 804 563 z "},"x":{"ha":682,"x_min":0,"x_max":0,"o":"m 318 575 l 318 594 l 42 594 l 42 575 b 144 501 100 575 114 540 l 303 276 l 190 125 b 139 67 172 103 153 79 b 67 25 117 46 100 36 b 11 17 53 21 29 17 l 11 0 l 268 0 l 268 17 b 181 53 236 17 181 26 b 207 100 181 67 196 86 l 321 253 l 403 119 b 444 46 418 99 444 67 b 372 17 444 25 404 19 l 372 0 l 671 0 l 671 17 b 608 43 649 17 625 28 b 543 114 589 60 567 85 l 390 343 l 493 475 b 539 529 507 493 529 517 b 646 575 564 554 599 575 l 646 594 l 400 594 l 400 575 b 476 539 443 575 476 563 b 451 471 476 522 469 493 l 369 368 l 282 489 b 261 547 267 508 261 536 b 318 575 261 568 290 575 z "},"y":{"ha":715,"x_min":0,"x_max":0,"o":"m 557 525 b 522 379 557 478 568 483 l 400 104 l 394 106 l 258 415 b 218 538 246 443 218 506 b 301 575 218 563 250 575 l 301 594 l 6 594 l 6 575 b 89 524 51 571 72 547 b 115 463 96 513 106 483 l 335 -37 l 313 -90 b 292 -126 307 -106 297 -117 b 176 -176 271 -156 232 -175 b 85 -239 122 -178 88 -201 b 156 -292 82 -274 108 -292 b 310 -176 211 -292 275 -253 l 554 375 b 629 544 583 442 606 510 b 704 575 644 567 671 575 l 704 594 l 457 594 l 457 575 b 557 525 510 575 557 561 z "},"z":{"ha":624,"x_min":0,"x_max":0,"o":"m 558 0 l 578 174 l 553 174 b 314 25 531 67 446 25 l 172 25 l 574 590 l 574 594 l 90 594 l 74 440 l 99 440 b 289 569 115 536 183 569 l 422 569 l 19 6 l 19 0 z "},"{":{"ha":419,"x_min":0,"x_max":0,"o":"m 364 1011 l 364 1040 b 256 1029 319 1040 283 1036 b 149 826 167 1008 149 938 l 149 582 b 143 519 149 558 147 538 b 36 419 133 456 97 433 l 36 389 b 90 371 57 388 75 381 b 149 226 126 342 149 292 l 149 -43 b 158 -137 149 -81 151 -112 b 368 -236 182 -221 258 -236 l 368 -210 b 261 -49 288 -189 261 -144 l 261 224 b 238 343 261 272 254 311 b 138 401 217 376 185 393 l 138 407 b 238 475 183 419 221 436 b 261 603 256 511 261 550 l 261 853 b 364 1011 261 946 288 992 z "},"|":{"ha":363,"x_min":0,"x_max":0,"o":"m 232 1028 l 132 1028 l 132 -314 l 232 -314 z "},"}":{"ha":419,"x_min":0,"x_max":0,"o":"m 51 -210 l 51 -236 b 225 -197 126 -236 186 -231 b 272 -43 261 -167 272 -112 l 272 226 b 383 389 272 311 303 383 l 383 419 b 293 471 344 429 308 442 b 272 582 276 499 272 536 l 272 826 b 264 928 272 867 271 900 b 57 1040 240 1018 172 1040 l 57 1011 b 160 853 132 992 160 946 l 160 603 b 181 475 160 549 163 510 b 282 407 203 438 233 419 l 282 401 b 221 381 257 397 236 389 b 160 224 172 354 160 297 l 160 -49 b 51 -210 160 -144 132 -189 z "},"~":{"ha":693,"x_min":0,"x_max":0,"o":"m 204 363 b 336 332 253 363 297 344 b 460 303 374 319 415 303 b 589 450 538 303 578 375 l 547 450 b 490 397 535 417 529 397 b 364 426 443 397 403 414 b 243 456 331 439 283 456 b 106 313 164 456 118 389 l 149 313 b 204 363 160 346 165 363 z "}," ":{"ha":360,"x_min":0,"x_max":0,"o":""},"¡":{"ha":386,"x_min":0,"x_max":0,"o":"m 193 814 b 276 896 239 814 276 850 b 193 978 276 940 239 978 b 111 896 147 978 111 942 b 193 814 111 850 147 814 z m 193 -12 b 275 71 240 -12 275 24 l 275 103 b 274 135 275 111 274 124 b 256 238 265 168 264 199 b 224 706 226 383 224 524 l 163 706 b 161 535 163 639 164 581 b 156 413 161 489 158 447 b 121 174 146 328 135 251 b 115 135 118 158 115 144 b 113 103 114 122 113 113 b 111 71 111 94 111 83 b 193 -12 111 24 146 -12 z "},"¢":{"ha":600,"x_min":0,"x_max":0,"o":"m 331 765 l 331 -165 l 372 -165 l 372 765 z m 361 19 b 183 310 232 19 183 164 b 344 581 183 443 236 581 b 442 506 422 581 424 536 b 510 460 460 475 475 460 b 564 507 543 460 564 475 b 510 579 564 542 538 567 b 367 606 471 594 424 606 b 142 521 269 606 192 574 b 54 293 89 471 54 394 b 75 168 54 247 63 206 b 325 -11 113 68 190 -11 b 568 93 451 -11 517 33 l 556 107 b 361 19 511 63 439 19 z "},"£":{"ha":851,"x_min":0,"x_max":0,"o":"m 94 97 b 185 168 93 150 157 168 b 299 104 228 168 272 129 b 192 25 283 75 258 28 b 94 97 133 22 96 43 z m 497 939 b 579 913 535 939 563 928 b 617 847 597 899 608 865 b 696 776 631 814 650 776 b 751 833 732 776 751 794 b 510 978 751 914 621 978 b 389 958 465 978 425 971 b 215 710 288 924 215 844 b 244 533 215 649 228 592 l 94 533 l 94 471 l 268 471 b 319 243 290 411 319 314 b 317 167 319 226 321 178 b 179 207 279 190 233 207 b 49 89 107 207 49 161 b 168 -14 49 22 100 -14 b 222 -7 186 -14 203 -11 b 347 74 278 8 319 32 b 439 26 381 56 414 38 b 611 -12 493 3 540 -12 b 794 193 736 -12 794 60 l 782 199 b 597 111 740 144 708 113 b 381 139 521 110 443 122 b 428 339 410 193 428 256 b 410 471 428 390 422 426 l 665 471 l 665 533 l 393 533 l 361 669 b 340 779 353 700 340 743 b 497 939 340 867 407 939 z "},"¤":{"ha":686,"x_min":0,"x_max":0,"o":"m 588 294 b 535 447 588 351 571 404 l 615 528 l 575 568 l 494 488 b 343 539 457 518 406 539 b 192 488 281 539 229 518 l 111 568 l 72 528 l 153 447 b 100 294 118 404 100 353 b 153 144 100 229 122 182 l 74 64 l 111 26 l 190 106 b 343 53 232 69 283 53 b 496 104 401 53 453 69 l 575 25 l 615 64 l 536 144 b 588 294 567 182 588 231 z m 156 294 b 211 429 156 351 181 399 b 343 483 242 457 286 483 b 417 468 369 483 393 476 b 532 294 479 439 532 383 b 476 163 532 239 507 193 b 343 108 447 131 401 108 b 271 122 317 108 293 113 b 156 294 210 150 156 208 z "},"¥":{"ha":1004,"x_min":0,"x_max":0,"o":"m 776 875 b 760 813 776 858 772 839 b 703 706 750 786 729 750 l 561 468 l 547 468 l 347 800 b 318 875 328 832 318 857 b 432 932 318 919 383 932 l 432 965 l 38 965 l 38 932 b 186 810 125 932 151 867 l 408 443 l 215 443 l 215 394 l 438 394 l 438 281 l 215 281 l 215 233 l 438 233 b 413 65 438 174 436 96 b 300 33 392 38 351 33 l 300 0 l 706 0 l 706 33 b 636 40 676 33 654 36 b 569 233 569 56 569 149 l 785 233 l 785 281 l 569 281 l 569 394 l 785 394 l 785 443 l 592 443 l 749 713 b 814 817 775 757 796 790 b 968 932 851 867 890 932 l 968 965 l 681 965 l 681 932 b 776 875 726 932 776 914 z "},"¦":{"ha":372,"x_min":0,"x_max":0,"o":"m 238 940 l 136 940 l 136 457 l 238 457 z m 238 257 l 136 257 l 136 -225 l 238 -225 z "},"§":{"ha":708,"x_min":0,"x_max":0,"o":"m 481 240 l 267 367 b 158 503 218 396 158 435 b 249 607 158 563 201 582 l 425 504 b 551 349 474 475 553 410 b 481 240 550 303 508 261 z m 349 -178 b 231 -151 304 -178 263 -165 b 179 -93 207 -142 179 -118 b 188 -71 179 -86 181 -78 b 225 -21 203 -56 213 -39 b 235 14 232 -11 235 0 b 154 92 235 57 197 92 b 75 -12 103 92 75 43 b 96 -96 75 -43 82 -71 b 342 -218 139 -172 222 -218 b 542 -153 426 -218 496 -190 b 619 18 583 -117 619 -58 b 510 215 619 93 574 163 b 632 393 572 263 628 318 b 582 535 635 444 614 492 b 414 667 547 578 492 622 l 339 711 b 229 788 290 739 249 765 b 192 872 208 811 192 840 b 350 1001 192 954 244 999 b 471 933 428 1003 471 975 b 467 915 471 926 469 921 b 436 854 453 901 436 883 b 510 783 436 813 469 783 b 588 871 561 783 588 819 b 571 939 588 894 582 918 b 351 1040 536 1004 450 1040 b 114 831 213 1040 114 967 b 210 631 114 744 158 672 b 79 453 136 600 81 526 b 200 249 78 351 133 290 b 304 182 228 226 263 204 l 379 140 b 521 -22 453 97 522 63 b 349 -178 519 -136 449 -178 z "},"¨":{"ha":404,"x_min":0,"x_max":0,"o":"m 97 717 b 171 789 138 717 171 746 b 97 861 171 832 138 861 b 25 789 57 861 25 832 b 97 717 25 746 57 717 z m 307 717 b 379 789 349 717 379 747 b 307 861 379 831 349 861 b 235 789 265 861 235 831 b 307 717 235 747 265 717 z "},"©":{"ha":1174,"x_min":0,"x_max":0,"o":"m 593 763 b 411 686 513 763 453 731 b 339 486 369 640 339 572 b 407 297 339 404 365 339 b 586 225 447 254 507 225 b 753 289 651 225 707 247 l 776 232 l 800 232 l 800 403 l 775 403 b 611 253 751 311 692 253 b 446 489 494 253 446 358 b 457 588 446 525 449 558 b 608 738 475 663 522 738 b 764 596 689 738 746 669 l 783 596 l 778 756 l 756 756 l 744 707 b 593 763 697 740 658 763 z m 135 489 b 592 943 135 729 339 943 b 1039 489 856 943 1039 736 b 592 39 1039 243 842 39 b 135 489 344 39 135 232 z m 71 489 b 593 -25 71 196 311 -25 b 1103 489 879 -25 1103 208 b 593 1007 1103 771 893 1007 b 71 489 304 1007 71 763 z "},"ª":{"ha":474,"x_min":0,"x_max":0,"o":"m 200 679 b 157 728 172 679 157 699 b 183 774 157 744 165 758 b 274 819 201 789 231 803 l 274 778 b 200 679 274 732 244 679 z m 169 636 b 275 696 219 636 256 663 l 279 696 b 335 636 279 656 299 636 b 410 669 369 636 396 650 l 401 685 b 371 668 394 674 383 668 b 343 740 351 668 343 692 l 343 882 b 222 978 343 958 303 978 b 125 958 181 978 149 971 b 90 915 101 946 90 932 b 122 879 90 892 101 879 b 154 908 139 879 149 889 b 211 947 163 942 172 947 b 274 879 253 947 274 925 l 274 856 l 186 817 b 103 765 146 799 118 782 b 79 710 86 749 79 731 b 169 636 79 661 121 636 z "},"«":{"ha":613,"x_min":0,"x_max":0,"o":"m 61 328 l 275 131 l 299 156 l 175 328 l 300 501 l 275 528 z m 276 328 l 489 131 l 513 156 l 390 328 l 514 501 l 489 528 z "},"¬":{"ha":783,"x_min":0,"x_max":0,"o":"m 615 393 l 615 138 l 678 138 l 678 456 l 104 456 l 104 393 z "},"­":{"ha":579,"x_min":0,"x_max":0,"o":"m 97 311 l 483 311 l 483 415 l 97 415 z "},"®":{"ha":1174,"x_min":0,"x_max":0,"o":"m 772 619 b 718 715 772 661 754 692 b 567 751 682 739 632 751 l 343 751 l 343 733 b 394 717 367 732 385 729 b 404 657 404 704 404 682 l 404 331 b 392 269 404 306 403 282 b 336 250 381 257 360 251 l 336 228 l 582 228 l 582 250 b 504 268 549 250 518 254 b 488 332 489 282 488 301 l 488 481 l 511 481 b 529 476 518 479 525 479 b 554 447 543 467 544 461 l 732 228 l 857 228 l 857 250 b 772 303 817 258 793 274 l 629 479 b 772 619 715 493 772 533 z m 671 615 b 536 507 671 536 621 507 l 488 507 l 488 715 b 499 726 488 724 490 726 l 561 726 b 671 615 636 726 671 688 z m 135 489 b 592 943 135 729 339 943 b 1039 489 856 943 1039 736 b 592 39 1039 243 842 39 b 135 489 344 39 135 232 z m 71 489 b 593 -25 71 196 311 -25 b 1103 489 879 -25 1103 208 b 593 1007 1103 771 893 1007 b 71 489 304 1007 71 763 z "},"¯":{"ha":388,"x_min":0,"x_max":0,"o":"m 25 781 l 364 781 l 364 843 l 25 843 z "},"°":{"ha":433,"x_min":0,"x_max":0,"o":"m 67 828 b 78 769 67 807 71 788 b 217 676 100 718 149 676 b 324 722 264 676 297 696 b 367 828 347 746 367 782 b 356 885 367 849 363 867 b 217 978 333 936 286 978 b 158 965 196 978 178 974 b 67 828 108 946 67 897 z m 217 939 b 328 828 279 939 328 890 b 217 714 328 765 279 714 b 104 828 154 714 104 767 b 217 939 104 890 154 939 z "},"±":{"ha":794,"x_min":0,"x_max":0,"o":"m 365 293 l 431 293 l 431 556 l 690 556 l 690 618 l 431 618 l 431 881 l 365 881 l 365 618 l 104 618 l 104 556 l 365 556 z m 690 119 l 690 182 l 104 182 l 104 119 z "},"²":{"ha":540,"x_min":0,"x_max":0,"o":"m 233 750 b 142 835 175 750 142 785 b 256 950 142 893 179 950 b 368 808 358 950 368 879 b 306 644 368 738 344 694 b 206 542 282 614 247 579 b 43 411 163 503 108 463 l 43 375 l 453 375 l 486 550 l 458 550 b 439 510 453 533 444 519 b 349 468 425 482 396 468 l 163 468 l 161 472 b 285 553 204 499 247 526 b 458 724 351 603 421 657 b 482 814 474 753 482 783 b 467 879 482 838 476 860 b 269 975 435 936 368 975 b 113 929 206 975 149 954 b 50 814 78 904 50 865 b 83 731 50 776 63 750 b 165 699 101 713 128 699 b 233 750 201 699 226 718 z "},"³":{"ha":556,"x_min":0,"x_max":0,"o":"m 260 392 b 144 490 194 392 144 438 b 221 561 144 529 174 561 b 150 603 214 588 183 603 b 108 594 136 603 122 600 b 44 504 71 582 44 547 b 61 450 44 485 50 467 b 263 367 96 399 168 367 b 435 414 338 367 393 386 b 503 532 472 440 503 478 b 490 586 503 551 499 569 b 342 688 465 638 411 672 l 342 693 b 439 743 382 701 415 719 b 481 832 461 764 481 794 b 465 888 481 851 475 871 b 265 967 433 940 360 967 b 124 938 208 967 158 957 b 71 857 96 921 71 894 b 99 797 71 832 82 810 b 164 774 111 783 135 774 b 207 785 179 774 194 776 b 228 811 219 790 225 800 b 165 865 190 811 165 835 b 265 942 165 908 210 942 b 368 826 333 942 368 894 b 274 692 368 760 346 692 b 221 708 258 697 239 708 b 174 682 201 708 174 701 b 222 649 174 660 201 649 b 281 671 243 649 267 663 b 383 538 360 671 383 610 b 260 392 383 460 349 392 z "},"´":{"ha":344,"x_min":0,"x_max":0,"o":"m 272 907 b 188 865 246 907 218 893 l 25 717 l 83 717 l 256 797 b 303 828 275 806 290 817 b 319 863 313 838 319 849 b 272 907 319 890 301 907 z "},"µ":{"ha":807,"x_min":0,"x_max":0,"o":"m 211 -292 b 274 -212 254 -292 274 -257 b 269 -164 274 -203 274 -186 b 228 90 260 -81 244 11 l 232 92 b 372 -11 261 24 310 -11 b 471 22 407 -11 440 0 b 554 136 501 46 533 90 l 558 136 l 571 -12 l 756 1 l 756 19 b 714 28 738 19 725 25 b 665 86 696 33 669 60 b 658 250 660 114 658 167 l 658 594 l 456 594 l 456 575 b 503 557 475 575 493 565 b 549 415 535 529 549 478 l 549 247 b 547 207 549 231 549 218 b 539 151 547 183 546 168 b 463 44 517 97 492 68 b 376 15 439 24 408 15 b 285 106 335 15 303 68 b 256 289 265 144 256 204 l 256 594 l 53 594 l 53 575 b 100 560 72 575 90 569 b 146 415 128 535 146 478 l 146 -222 b 211 -292 146 -260 175 -292 z "},"¶":{"ha":790,"x_min":0,"x_max":0,"o":"m 44 707 b 299 467 44 551 140 467 l 321 467 b 342 468 328 468 335 468 l 342 79 b 336 -37 342 42 342 -4 b 333 -83 336 -56 333 -71 b 192 -160 326 -153 276 -160 l 192 -207 l 435 -207 l 435 910 l 500 910 l 500 -207 l 729 -207 l 729 -160 b 644 -149 690 -160 664 -156 b 597 -43 604 -133 604 -100 b 593 79 594 -11 593 32 l 593 718 b 597 819 593 763 594 797 b 729 918 603 903 636 918 l 729 965 l 383 965 b 44 707 188 965 44 892 z "},"·":{"ha":357,"x_min":0,"x_max":0,"o":"m 178 263 b 261 343 224 263 261 297 b 178 426 261 390 225 426 b 97 343 132 426 97 389 b 178 263 97 299 133 263 z "},"¸":{"ha":363,"x_min":0,"x_max":0,"o":"m 176 -272 b 128 -240 153 -272 129 -257 b 92 -206 126 -219 121 -206 b 51 -247 69 -206 51 -225 b 181 -312 51 -296 114 -312 b 339 -199 268 -312 339 -283 b 183 -90 339 -128 288 -90 l 222 15 l 156 15 l 106 -124 l 110 -131 b 131 -129 117 -129 124 -129 b 154 -128 139 -128 147 -128 b 264 -203 249 -129 264 -162 b 176 -272 264 -239 240 -272 z "},"¹":{"ha":528,"x_min":0,"x_max":0,"o":"m 114 924 l 114 899 b 194 889 142 899 182 896 b 224 832 228 871 224 850 l 224 490 b 219 447 224 474 222 458 b 118 403 214 410 164 406 l 118 375 l 421 375 l 421 403 b 329 421 389 404 342 406 b 315 496 315 438 315 464 l 315 967 b 114 924 264 944 176 925 z "},"º":{"ha":479,"x_min":0,"x_max":0,"o":"m 238 978 b 172 965 214 978 193 974 b 67 808 114 942 67 888 b 81 740 67 783 72 760 b 238 636 101 683 161 636 b 306 650 261 636 283 640 b 414 808 365 669 414 731 b 399 876 414 832 408 856 b 238 978 375 935 317 978 z m 332 808 b 238 669 332 736 304 669 b 147 808 174 669 147 738 b 238 946 147 874 176 946 b 332 808 301 946 332 876 z "},"»":{"ha":613,"x_min":0,"x_max":0,"o":"m 339 131 l 551 328 l 339 528 l 314 501 l 438 328 l 315 156 z m 124 131 l 338 328 l 124 528 l 99 501 l 224 328 l 100 156 z "},"¼":{"ha":1113,"x_min":0,"x_max":0,"o":"m 71 924 l 71 899 b 151 889 99 899 139 896 b 181 832 185 871 181 850 l 181 490 b 176 447 181 474 179 458 b 75 403 171 410 121 406 l 75 375 l 378 375 l 378 403 b 286 421 346 404 299 406 b 272 496 272 438 272 464 l 272 967 b 71 924 221 944 133 925 z m 571 179 l 571 138 l 818 138 l 818 108 b 769 25 818 64 803 25 l 769 0 l 949 0 l 949 25 b 911 114 922 25 911 57 l 911 138 l 1021 138 l 1021 175 b 911 175 985 175 990 175 l 911 593 l 878 593 z m 817 471 l 818 175 l 597 175 b 817 471 669 272 744 374 z m 276 0 l 958 965 l 899 965 l 206 0 z "},"½":{"ha":1286,"x_min":0,"x_max":0,"o":"m 939 375 b 847 460 881 375 847 410 b 961 575 847 518 885 575 b 1074 433 1064 575 1074 504 b 1011 269 1074 363 1050 319 b 911 167 988 239 953 204 b 749 36 868 128 814 88 l 749 0 l 1158 0 l 1192 175 l 1164 175 b 1144 135 1158 158 1150 144 b 1054 93 1131 107 1101 93 l 868 93 l 867 97 b 990 178 910 124 953 151 b 1164 349 1057 228 1126 282 b 1188 439 1179 378 1188 408 b 1172 504 1188 463 1182 485 b 975 600 1140 561 1074 600 b 818 554 911 600 854 579 b 756 439 783 529 756 490 b 789 356 756 401 768 375 b 871 324 807 338 833 324 b 939 375 907 324 932 343 z m 72 924 l 72 899 b 153 889 100 899 140 896 b 182 832 186 871 182 850 l 182 490 b 178 447 182 474 181 458 b 76 403 172 410 122 406 l 76 375 l 379 375 l 379 403 b 288 421 347 404 300 406 b 274 496 274 438 274 464 l 274 967 b 72 924 222 944 135 925 z m 276 0 l 958 965 l 899 965 l 206 0 z "},"¾":{"ha":1194,"x_min":0,"x_max":0,"o":"m 301 392 b 186 490 236 392 186 438 b 263 561 186 529 215 561 b 192 603 256 588 225 603 b 150 594 178 603 164 600 b 86 504 113 582 86 547 b 103 450 86 485 92 467 b 304 367 138 399 210 367 b 476 414 379 367 435 386 b 544 532 514 440 544 478 b 532 586 544 551 540 569 b 383 688 507 638 453 672 l 383 693 b 481 743 424 701 457 719 b 522 832 503 764 522 794 b 507 888 522 851 517 871 b 307 967 475 940 401 967 b 165 938 250 967 200 957 b 113 857 138 921 113 894 b 140 797 113 832 124 810 b 206 774 153 783 176 774 b 249 785 221 774 236 776 b 269 811 261 790 267 800 b 207 865 232 811 207 835 b 307 942 207 908 251 942 b 410 826 375 942 410 894 b 315 692 410 760 388 692 b 263 708 300 697 281 708 b 215 682 243 708 215 701 b 264 649 215 660 243 649 b 322 671 285 649 308 663 b 425 538 401 671 425 610 b 301 392 425 460 390 392 z m 660 179 l 660 138 l 907 138 l 907 108 b 858 25 907 64 892 25 l 858 0 l 1038 0 l 1038 25 b 1000 114 1011 25 1000 57 l 1000 138 l 1110 138 l 1110 175 b 1000 175 1074 175 1079 175 l 1000 593 l 967 593 z m 906 471 l 907 175 l 686 175 b 906 471 758 272 833 374 z m 397 0 l 1079 965 l 1018 965 l 325 0 z "},"¿":{"ha":500,"x_min":0,"x_max":0,"o":"m 86 301 b 167 83 86 211 125 135 b 350 -12 206 33 269 -12 b 428 58 401 -12 428 13 b 361 125 428 97 400 125 b 267 111 332 125 296 111 b 158 154 232 111 172 131 b 124 257 140 179 124 214 b 321 381 122 351 211 381 l 342 381 l 342 668 l 304 668 l 304 501 b 86 301 176 501 86 429 z m 328 978 b 244 896 281 978 244 942 b 328 814 244 849 281 814 b 408 896 372 814 408 850 b 328 978 408 940 372 978 z "},"À":{"ha":967,"x_min":0,"x_max":0,"o":"m 206 1156 b 231 1122 206 1142 214 1131 b 300 1096 250 1113 272 1103 l 450 1061 l 525 1061 l 364 1158 b 303 1189 339 1172 319 1182 b 253 1199 286 1196 269 1199 b 206 1156 226 1199 206 1185 z m 575 18 l 575 0 l 985 0 l 985 18 b 843 146 901 18 874 86 b 793 258 829 175 813 213 l 508 965 l 468 965 l 142 149 b 118 106 135 131 126 117 b -7 17 90 68 44 24 l -7 0 l 297 0 l 297 17 b 179 110 236 17 179 54 b 194 190 179 139 186 161 b 261 365 213 242 238 308 l 606 365 l 669 214 b 683 178 676 200 679 188 b 699 103 692 156 699 133 b 575 18 699 51 640 18 z m 275 397 l 432 796 l 596 397 z "},"Á":{"ha":967,"x_min":0,"x_max":0,"o":"m 722 1199 b 675 1189 706 1199 689 1196 b 614 1158 658 1182 636 1172 l 450 1061 l 525 1061 l 678 1096 b 744 1122 706 1103 728 1113 b 769 1156 761 1131 769 1142 b 722 1199 769 1183 751 1199 z m 575 18 l 575 0 l 985 0 l 985 18 b 843 146 901 18 874 86 b 793 258 829 175 813 213 l 508 965 l 468 965 l 142 149 b 118 106 135 131 126 117 b -7 17 90 68 44 24 l -7 0 l 297 0 l 297 17 b 179 110 236 17 179 54 b 194 190 179 139 186 161 b 261 365 213 242 238 308 l 606 365 l 669 214 b 683 178 676 200 679 188 b 699 103 692 156 699 133 b 575 18 699 51 640 18 z m 275 397 l 432 796 l 596 397 z "},"Â":{"ha":967,"x_min":0,"x_max":0,"o":"m 558 1197 l 419 1197 l 283 1061 l 339 1061 l 489 1129 l 636 1061 l 694 1061 z m 575 18 l 575 0 l 985 0 l 985 18 b 843 146 901 18 874 86 b 793 258 829 175 813 213 l 508 965 l 468 965 l 142 149 b 118 106 135 131 126 117 b -7 17 90 68 44 24 l -7 0 l 297 0 l 297 17 b 179 110 236 17 179 54 b 194 190 179 139 186 161 b 261 365 213 242 238 308 l 606 365 l 669 214 b 683 178 676 200 679 188 b 699 103 692 156 699 133 b 575 18 699 51 640 18 z m 275 397 l 432 796 l 596 397 z "},"Ã":{"ha":967,"x_min":0,"x_max":0,"o":"m 578 1061 b 703 1210 649 1061 694 1138 l 661 1210 b 603 1157 649 1178 640 1157 b 506 1186 563 1157 535 1175 b 408 1214 478 1199 444 1214 b 275 1072 331 1214 286 1144 l 317 1072 b 372 1122 329 1106 335 1122 b 578 1061 450 1122 500 1061 z m 575 18 l 575 0 l 985 0 l 985 18 b 843 146 901 18 874 86 b 793 258 829 175 813 213 l 508 965 l 468 965 l 142 149 b 118 106 135 131 126 117 b -7 17 90 68 44 24 l -7 0 l 297 0 l 297 17 b 179 110 236 17 179 54 b 194 190 179 139 186 161 b 261 365 213 242 238 308 l 606 365 l 669 214 b 683 178 676 200 679 188 b 699 103 692 156 699 133 b 575 18 699 51 640 18 z m 275 397 l 432 796 l 596 397 z "},"Ä":{"ha":967,"x_min":0,"x_max":0,"o":"m 374 1061 b 438 1125 410 1061 438 1089 b 374 1188 438 1161 413 1188 b 311 1125 338 1188 311 1161 b 374 1061 311 1089 340 1061 z m 603 1061 b 665 1125 638 1061 665 1089 b 603 1188 665 1161 640 1188 b 539 1125 565 1188 539 1161 b 603 1061 539 1089 568 1061 z m 575 18 l 575 0 l 985 0 l 985 18 b 843 146 901 18 874 86 b 793 258 829 175 813 213 l 508 965 l 468 965 l 142 149 b 118 106 135 131 126 117 b -7 17 90 68 44 24 l -7 0 l 297 0 l 297 17 b 179 110 236 17 179 54 b 194 190 179 139 186 161 b 261 365 213 242 238 308 l 606 365 l 669 214 b 683 178 676 200 679 188 b 699 103 692 156 699 133 b 575 18 699 51 640 18 z m 275 397 l 432 796 l 596 397 z "},"Å":{"ha":967,"x_min":0,"x_max":0,"o":"m 489 972 b 569 1054 536 972 569 1007 b 489 1135 569 1101 536 1135 b 407 1054 442 1135 407 1101 b 489 972 407 1006 440 972 z m 489 1096 b 531 1054 511 1096 531 1075 b 489 1011 531 1032 513 1011 b 446 1054 463 1011 446 1028 b 489 1096 446 1079 465 1096 z m 575 18 l 575 0 l 985 0 l 985 18 b 843 146 901 18 874 86 b 793 258 829 175 813 213 l 508 965 l 468 965 l 142 149 b 118 106 135 131 126 117 b -7 17 90 68 44 24 l -7 0 l 297 0 l 297 17 b 179 110 236 17 179 54 b 194 190 179 139 186 161 b 261 365 213 242 238 308 l 606 365 l 669 214 b 683 178 676 200 679 188 b 699 103 692 156 699 133 b 575 18 699 51 640 18 z m 275 397 l 432 796 l 596 397 z "},"Æ":{"ha":1317,"x_min":0,"x_max":0,"o":"m 464 25 l 464 0 l 1242 0 l 1261 247 l 1238 247 b 1196 156 1229 211 1208 179 b 942 29 1156 76 1064 29 b 778 60 869 29 818 32 b 733 181 744 81 733 126 l 733 489 b 875 458 808 489 831 483 b 957 332 913 435 949 388 l 979 332 l 979 675 l 957 675 b 872 551 951 618 914 572 b 733 522 831 525 806 522 l 733 915 b 754 936 733 929 740 936 l 914 936 b 1094 903 992 936 1050 932 b 1182 744 1138 875 1171 808 l 1206 744 l 1206 965 l 408 965 l 408 946 b 504 928 447 946 490 935 b 529 886 521 919 529 910 b 511 838 529 875 515 847 b 399 618 464 744 433 685 b 203 229 326 481 269 353 b 147 131 182 190 168 165 b 82 57 131 101 106 72 b -14 25 60 42 19 29 l -14 0 l 290 0 l 290 25 b 182 79 249 31 182 31 b 192 128 182 93 185 108 b 367 489 218 201 332 421 l 601 489 l 601 174 b 597 103 601 144 601 122 b 464 25 583 42 538 29 z m 601 522 l 388 522 l 600 931 z "},"Ç":{"ha":1004,"x_min":0,"x_max":0,"o":"m 529 -289 b 481 -257 506 -289 482 -275 b 444 -222 479 -236 474 -222 b 404 -264 422 -222 404 -242 b 533 -329 404 -312 467 -329 b 692 -215 621 -329 692 -300 b 536 -107 692 -144 640 -107 l 575 -1 l 508 -1 l 458 -140 l 463 -147 b 483 -146 469 -146 476 -146 b 507 -144 492 -144 500 -144 b 617 -219 601 -146 617 -179 b 529 -289 617 -256 593 -289 z m 556 978 b 208 836 401 978 288 918 b 75 467 129 751 75 628 b 203 118 75 315 124 194 b 542 -12 278 38 372 -12 b 860 99 700 -12 772 25 l 906 0 l 933 0 l 933 313 l 908 313 b 571 17 863 140 756 17 b 243 474 339 17 243 229 b 265 658 243 543 250 604 b 567 939 301 800 393 939 b 885 676 729 939 849 811 l 910 676 l 899 965 l 871 965 l 842 888 b 556 978 754 942 679 978 z "},"È":{"ha":910,"x_min":0,"x_max":0,"o":"m 219 1156 b 244 1122 219 1142 228 1131 b 314 1096 261 1113 283 1103 l 464 1061 l 539 1061 l 375 1158 b 317 1189 353 1172 331 1182 b 267 1199 300 1196 283 1199 b 219 1156 239 1199 219 1185 z m 326 519 l 326 915 b 347 936 326 929 333 936 l 507 936 b 778 744 672 936 754 885 l 804 744 l 793 965 l 69 965 l 69 946 b 174 903 115 943 153 926 b 194 790 193 881 194 838 l 194 175 b 169 61 194 126 192 83 b 57 19 146 38 106 22 l 57 0 l 835 0 l 854 247 l 826 247 b 796 156 818 211 808 179 b 535 29 756 76 657 29 b 371 60 464 29 408 32 b 326 172 338 79 326 118 l 326 490 b 442 481 372 490 411 486 b 561 332 519 464 561 422 l 586 332 l 586 675 l 561 675 b 326 519 561 546 460 519 z "},"É":{"ha":910,"x_min":0,"x_max":0,"o":"m 667 1199 b 617 1189 650 1199 633 1196 b 556 1158 600 1182 581 1172 l 394 1061 l 469 1061 l 619 1096 b 686 1122 650 1103 669 1113 b 714 1156 706 1131 714 1142 b 667 1199 714 1183 694 1199 z m 326 519 l 326 915 b 347 936 326 929 333 936 l 507 936 b 778 744 672 936 754 885 l 804 744 l 793 965 l 69 965 l 69 946 b 174 903 115 943 153 926 b 194 790 193 881 194 838 l 194 175 b 169 61 194 126 192 83 b 57 19 146 38 106 22 l 57 0 l 835 0 l 854 247 l 826 247 b 796 156 818 211 808 179 b 535 29 756 76 657 29 b 371 60 464 29 408 32 b 326 172 338 79 326 118 l 326 490 b 442 481 372 490 411 486 b 561 332 519 464 561 422 l 586 332 l 586 675 l 561 675 b 326 519 561 546 460 519 z "},"Ê":{"ha":910,"x_min":0,"x_max":0,"o":"m 542 1197 l 403 1197 l 267 1061 l 325 1061 l 472 1129 l 622 1061 l 678 1061 z m 326 519 l 326 915 b 347 936 326 929 333 936 l 507 936 b 778 744 672 936 754 885 l 804 744 l 793 965 l 69 965 l 69 946 b 174 903 115 943 153 926 b 194 790 193 881 194 838 l 194 175 b 169 61 194 126 192 83 b 57 19 146 38 106 22 l 57 0 l 835 0 l 854 247 l 826 247 b 796 156 818 211 808 179 b 535 29 756 76 657 29 b 371 60 464 29 408 32 b 326 172 338 79 326 118 l 326 490 b 442 481 372 490 411 486 b 561 332 519 464 561 422 l 586 332 l 586 675 l 561 675 b 326 519 561 546 460 519 z "},"Ë":{"ha":910,"x_min":0,"x_max":0,"o":"m 344 1061 b 408 1125 381 1061 408 1089 b 344 1188 408 1161 383 1188 b 282 1125 308 1188 282 1161 b 344 1061 282 1089 311 1061 z m 574 1061 b 636 1125 608 1061 636 1089 b 574 1188 636 1161 611 1188 b 510 1125 536 1188 510 1161 b 574 1061 510 1089 539 1061 z m 326 519 l 326 915 b 347 936 326 929 333 936 l 507 936 b 778 744 672 936 754 885 l 804 744 l 793 965 l 69 965 l 69 946 b 174 903 115 943 153 926 b 194 790 193 881 194 838 l 194 175 b 169 61 194 126 192 83 b 57 19 146 38 106 22 l 57 0 l 835 0 l 854 247 l 826 247 b 796 156 818 211 808 179 b 535 29 756 76 657 29 b 371 60 464 29 408 32 b 326 172 338 79 326 118 l 326 490 b 442 481 372 490 411 486 b 561 332 519 464 561 422 l 586 332 l 586 675 l 561 675 b 326 519 561 546 460 519 z "},"Ì":{"ha":519,"x_min":0,"x_max":0,"o":"m 103 1156 b 128 1122 103 1142 111 1131 b 197 1096 146 1113 168 1103 l 347 1061 l 422 1061 l 260 1158 b 200 1189 236 1172 215 1182 b 150 1199 183 1196 167 1199 b 103 1156 122 1199 103 1185 z m 326 210 l 326 756 b 331 849 326 793 326 825 b 349 906 333 872 340 892 b 450 946 365 933 404 943 l 450 965 l 69 965 l 69 946 b 174 907 117 943 154 935 b 194 765 193 874 194 824 l 194 200 b 169 54 194 136 194 86 b 57 19 147 26 108 22 l 57 0 l 463 0 l 463 19 b 351 54 414 22 369 24 b 326 210 325 92 326 138 z "},"Í":{"ha":519,"x_min":0,"x_max":0,"o":"m 375 1199 b 326 1189 358 1199 342 1196 b 265 1158 310 1182 289 1172 l 103 1061 l 178 1061 l 329 1096 b 396 1122 358 1103 379 1113 b 422 1156 414 1131 422 1142 b 375 1199 422 1183 403 1199 z m 326 210 l 326 756 b 331 849 326 793 326 825 b 349 906 333 872 340 892 b 450 946 365 933 404 943 l 450 965 l 69 965 l 69 946 b 174 907 117 943 154 935 b 194 765 193 874 194 824 l 194 200 b 169 54 194 136 194 86 b 57 19 147 26 108 22 l 57 0 l 463 0 l 463 19 b 351 54 414 22 369 24 b 326 210 325 92 326 138 z "},"Î":{"ha":519,"x_min":0,"x_max":0,"o":"m 329 1197 l 190 1197 l 54 1061 l 111 1061 l 260 1129 l 408 1061 l 465 1061 z m 326 210 l 326 756 b 331 849 326 793 326 825 b 349 906 333 872 340 892 b 450 946 365 933 404 943 l 450 965 l 69 965 l 69 946 b 174 907 117 943 154 935 b 194 765 193 874 194 824 l 194 200 b 169 54 194 136 194 86 b 57 19 147 26 108 22 l 57 0 l 463 0 l 463 19 b 351 54 414 22 369 24 b 326 210 325 92 326 138 z "},"Ï":{"ha":519,"x_min":0,"x_max":0,"o":"m 144 1061 b 208 1125 182 1061 208 1089 b 144 1188 208 1161 183 1188 b 83 1125 110 1188 83 1161 b 144 1061 83 1089 111 1061 z m 375 1061 b 436 1125 410 1061 436 1089 b 375 1188 436 1161 411 1188 b 311 1125 338 1188 311 1161 b 375 1061 311 1089 339 1061 z m 326 210 l 326 756 b 331 849 326 793 326 825 b 349 906 333 872 340 892 b 450 946 365 933 404 943 l 450 965 l 69 965 l 69 946 b 174 907 117 943 154 935 b 194 765 193 874 194 824 l 194 200 b 169 54 194 136 194 86 b 57 19 147 26 108 22 l 57 0 l 463 0 l 463 19 b 351 54 414 22 369 24 b 326 210 325 92 326 138 z "},"Ð":{"ha":1107,"x_min":0,"x_max":0,"o":"m 96 531 l 96 497 l 533 497 l 533 531 z m 47 0 l 538 0 b 894 131 690 0 814 53 b 1035 467 975 206 1035 318 b 888 824 1035 622 971 743 b 513 965 800 906 674 965 l 72 965 l 72 946 b 175 907 115 943 160 932 b 199 794 196 883 199 843 l 199 171 b 171 56 199 118 194 79 b 47 19 144 32 100 22 z m 517 29 b 329 172 393 29 329 76 l 329 914 b 351 936 329 928 338 936 l 510 936 b 871 464 765 936 871 722 b 517 29 871 215 758 29 z "},"Ñ":{"ha":1114,"x_min":0,"x_max":0,"o":"m 657 1061 b 782 1210 728 1061 775 1138 l 740 1210 b 682 1157 729 1178 719 1157 b 585 1186 642 1157 615 1175 b 488 1214 557 1199 524 1214 b 354 1072 411 1214 365 1144 l 397 1072 b 453 1122 408 1106 414 1122 b 657 1061 529 1122 581 1061 z m 861 -12 l 913 -12 l 913 751 b 917 844 913 790 913 821 b 1067 946 929 915 985 942 l 1067 965 l 746 965 l 746 946 b 858 897 792 943 843 926 b 883 742 882 858 883 811 l 883 235 l 864 235 l 308 965 l 69 965 l 69 946 b 174 893 117 943 154 921 b 207 751 193 860 207 810 l 207 200 b 169 54 207 136 194 86 b 57 19 147 26 108 22 l 57 0 l 385 0 l 385 19 b 319 28 358 21 338 24 b 236 210 258 44 236 124 l 236 786 l 254 786 z "},"Ò":{"ha":1185,"x_min":0,"x_max":0,"o":"m 311 1156 b 336 1122 311 1142 319 1131 b 406 1096 354 1113 376 1103 l 556 1061 l 631 1061 l 468 1158 b 408 1189 444 1172 424 1182 b 358 1199 392 1196 375 1199 b 311 1156 331 1199 311 1185 z m 593 978 b 222 832 433 978 307 914 b 71 475 139 751 71 632 b 224 131 71 324 140 208 b 593 -12 307 50 386 -12 b 963 131 781 -12 879 50 b 1114 475 1046 211 1114 322 b 964 832 1114 633 1049 750 b 593 978 879 914 753 978 z m 593 13 b 235 471 346 13 235 222 b 593 953 235 711 356 953 b 951 471 846 953 951 726 b 926 299 951 407 943 351 b 593 13 879 158 806 13 z "},"Ó":{"ha":1185,"x_min":0,"x_max":0,"o":"m 828 1199 b 779 1189 811 1199 794 1196 b 718 1158 763 1182 742 1172 l 556 1061 l 631 1061 l 782 1096 b 849 1122 811 1103 832 1113 b 875 1156 867 1131 875 1142 b 828 1199 875 1183 856 1199 z m 593 978 b 222 832 433 978 307 914 b 71 475 139 751 71 632 b 224 131 71 324 140 208 b 593 -12 307 50 386 -12 b 963 131 781 -12 879 50 b 1114 475 1046 211 1114 322 b 964 832 1114 633 1049 750 b 593 978 879 914 753 978 z m 593 13 b 235 471 346 13 235 222 b 593 953 235 711 356 953 b 951 471 846 953 951 726 b 926 299 951 407 943 351 b 593 13 879 158 806 13 z "},"Ô":{"ha":1185,"x_min":0,"x_max":0,"o":"m 663 1197 l 524 1197 l 388 1061 l 444 1061 l 593 1129 l 742 1061 l 799 1061 z m 593 978 b 222 832 433 978 307 914 b 71 475 139 751 71 632 b 224 131 71 324 140 208 b 593 -12 307 50 386 -12 b 963 131 781 -12 879 50 b 1114 475 1046 211 1114 322 b 964 832 1114 633 1049 750 b 593 978 879 914 753 978 z m 593 13 b 235 471 346 13 235 222 b 593 953 235 711 356 953 b 951 471 846 953 951 726 b 926 299 951 407 943 351 b 593 13 879 158 806 13 z "},"Õ":{"ha":1185,"x_min":0,"x_max":0,"o":"m 682 1061 b 807 1210 753 1061 800 1138 l 765 1210 b 707 1157 754 1178 744 1157 b 610 1186 667 1157 640 1175 b 513 1214 582 1199 549 1214 b 379 1072 436 1214 390 1144 l 422 1072 b 478 1122 433 1106 439 1122 b 682 1061 554 1122 606 1061 z m 593 978 b 222 832 433 978 307 914 b 71 475 139 751 71 632 b 224 131 71 324 140 208 b 593 -12 307 50 386 -12 b 963 131 781 -12 879 50 b 1114 475 1046 211 1114 322 b 964 832 1114 633 1049 750 b 593 978 879 914 753 978 z m 593 13 b 235 471 346 13 235 222 b 593 953 235 711 356 953 b 951 471 846 953 951 726 b 926 299 951 407 943 351 b 593 13 879 158 806 13 z "},"Ö":{"ha":1185,"x_min":0,"x_max":0,"o":"m 478 1061 b 542 1125 515 1061 542 1089 b 478 1188 542 1161 517 1188 b 417 1125 443 1188 417 1161 b 478 1061 417 1089 444 1061 z m 708 1061 b 769 1125 743 1061 769 1089 b 708 1188 769 1161 744 1188 b 644 1125 671 1188 644 1161 b 708 1061 644 1089 672 1061 z m 593 978 b 222 832 433 978 307 914 b 71 475 139 751 71 632 b 224 131 71 324 140 208 b 593 -12 307 50 386 -12 b 963 131 781 -12 879 50 b 1114 475 1046 211 1114 322 b 964 832 1114 633 1049 750 b 593 978 879 914 753 978 z m 593 13 b 235 471 346 13 235 222 b 593 953 235 711 356 953 b 951 471 846 953 951 726 b 926 299 951 407 943 351 b 593 13 879 158 806 13 z "},"×":{"ha":581,"x_min":0,"x_max":0,"o":"m 76 250 l 118 208 l 292 382 l 465 210 l 503 249 l 331 421 l 504 594 l 464 636 l 290 464 l 117 636 l 76 596 l 250 424 z "},"Ø":{"ha":1185,"x_min":0,"x_max":0,"o":"m 999 1040 l 97 -101 l 147 -101 l 1049 1040 z m 593 978 b 222 832 433 978 307 914 b 71 475 139 751 71 632 b 224 131 71 324 140 208 b 593 -12 307 50 386 -12 b 963 131 781 -12 879 50 b 1114 475 1046 211 1114 322 b 964 832 1114 633 1049 750 b 593 978 879 914 753 978 z m 593 13 b 235 471 346 13 235 222 b 593 953 235 711 356 953 b 951 471 846 953 951 726 b 926 299 951 407 943 351 b 593 13 879 158 806 13 z "},"Ù":{"ha":1079,"x_min":0,"x_max":0,"o":"m 258 1156 b 283 1122 258 1142 267 1131 b 353 1096 300 1113 322 1103 l 503 1061 l 578 1061 l 414 1158 b 356 1189 392 1172 369 1182 b 306 1199 339 1196 322 1199 b 258 1156 278 1199 258 1185 z m 579 17 b 326 304 401 17 326 126 l 326 688 b 354 915 326 854 325 882 b 464 946 378 942 413 946 l 464 965 l 36 965 l 36 946 b 175 844 126 946 175 911 l 175 688 l 175 314 b 267 65 175 188 201 125 b 544 -12 331 10 422 -12 b 890 361 806 -12 890 143 l 890 656 b 896 831 890 725 892 793 b 926 911 900 867 914 893 b 1043 946 947 940 992 946 l 1043 965 l 679 965 l 679 946 b 744 940 706 946 726 944 b 836 839 799 932 825 899 b 846 656 843 800 846 729 l 846 313 b 579 17 846 140 724 17 z "},"Ú":{"ha":1079,"x_min":0,"x_max":0,"o":"m 775 1199 b 725 1189 758 1199 742 1196 b 664 1158 708 1182 689 1172 l 503 1061 l 578 1061 l 728 1096 b 794 1122 758 1103 778 1113 b 822 1156 814 1131 822 1142 b 775 1199 822 1183 803 1199 z m 579 17 b 326 304 401 17 326 126 l 326 688 b 354 915 326 854 325 882 b 464 946 378 942 413 946 l 464 965 l 36 965 l 36 946 b 175 844 126 946 175 911 l 175 688 l 175 314 b 267 65 175 188 201 125 b 544 -12 331 10 422 -12 b 890 361 806 -12 890 143 l 890 656 b 896 831 890 725 892 793 b 926 911 900 867 914 893 b 1043 946 947 940 992 946 l 1043 965 l 679 965 l 679 946 b 744 940 706 946 726 944 b 836 839 799 932 825 899 b 846 656 843 800 846 729 l 846 313 b 579 17 846 140 724 17 z "},"Û":{"ha":1079,"x_min":0,"x_max":0,"o":"m 608 1197 l 469 1197 l 333 1061 l 392 1061 l 539 1129 l 689 1061 l 744 1061 z m 579 17 b 326 304 401 17 326 126 l 326 688 b 354 915 326 854 325 882 b 464 946 378 942 413 946 l 464 965 l 36 965 l 36 946 b 175 844 126 946 175 911 l 175 688 l 175 314 b 267 65 175 188 201 125 b 544 -12 331 10 422 -12 b 890 361 806 -12 890 143 l 890 656 b 896 831 890 725 892 793 b 926 911 900 867 914 893 b 1043 946 947 940 992 946 l 1043 965 l 679 965 l 679 946 b 744 940 706 946 726 944 b 836 839 799 932 825 899 b 846 656 843 800 846 729 l 846 313 b 579 17 846 140 724 17 z "},"Ü":{"ha":1079,"x_min":0,"x_max":0,"o":"m 425 1061 b 489 1125 461 1061 489 1089 b 425 1188 489 1161 464 1188 b 363 1125 389 1188 363 1161 b 425 1061 363 1089 392 1061 z m 654 1061 b 717 1125 689 1061 717 1089 b 654 1188 717 1161 692 1188 b 590 1125 617 1188 590 1161 b 654 1061 590 1089 619 1061 z m 579 17 b 326 304 401 17 326 126 l 326 688 b 354 915 326 854 325 882 b 464 946 378 942 413 946 l 464 965 l 36 965 l 36 946 b 175 844 126 946 175 911 l 175 688 l 175 314 b 267 65 175 188 201 125 b 544 -12 331 10 422 -12 b 890 361 806 -12 890 143 l 890 656 b 896 831 890 725 892 793 b 926 911 900 867 914 893 b 1043 946 947 940 992 946 l 1043 965 l 679 965 l 679 946 b 744 940 706 946 726 944 b 836 839 799 932 825 899 b 846 656 843 800 846 729 l 846 313 b 579 17 846 140 724 17 z "},"Ý":{"ha":918,"x_min":0,"x_max":0,"o":"m 693 1199 b 644 1189 676 1199 660 1196 b 583 1158 628 1182 607 1172 l 421 1061 l 496 1061 l 647 1096 b 714 1122 676 1103 697 1113 b 740 1156 732 1131 740 1142 b 693 1199 740 1183 721 1199 z m 143 824 l 393 381 l 393 228 b 368 53 393 161 393 88 b 256 19 350 25 306 19 l 256 0 l 663 0 l 663 19 b 589 28 632 19 608 22 b 525 238 522 43 525 150 l 524 433 l 699 732 b 765 850 725 776 750 824 b 924 946 796 904 846 946 l 924 965 l 638 965 l 638 946 b 714 935 668 946 703 942 b 740 903 726 929 742 919 b 653 710 738 850 725 831 l 511 468 l 501 468 l 301 814 b 269 903 282 846 269 885 b 296 935 269 919 278 929 b 389 946 313 942 347 946 l 389 965 l -7 965 l -7 946 b 143 824 81 946 108 882 z "},"Þ":{"ha":875,"x_min":0,"x_max":0,"o":"m 828 490 b 803 594 828 528 821 563 b 465 742 749 699 625 742 l 328 742 l 328 786 b 333 872 328 818 331 853 b 501 946 349 942 411 946 l 501 965 l 58 965 l 58 946 b 131 938 88 944 111 942 b 197 793 190 924 197 868 l 197 172 b 172 49 197 124 194 71 b 58 19 149 25 107 22 l 58 0 l 501 0 l 501 19 b 358 47 440 19 385 21 b 328 179 331 72 328 122 l 328 226 l 442 226 b 828 490 664 226 828 275 z m 664 490 b 390 260 664 335 550 260 l 328 260 l 328 690 b 350 713 328 704 336 713 l 424 713 b 664 490 563 713 664 631 z "},"ß":{"ha":736,"x_min":0,"x_max":0,"o":"m 124 657 l 124 156 b 107 49 124 108 125 74 b 28 25 93 29 64 25 l 28 0 l 301 0 l 301 25 b 229 164 228 25 229 88 l 229 664 b 363 901 229 850 246 901 b 481 710 440 901 485 836 b 342 533 476 604 444 533 l 342 504 b 435 483 378 504 407 496 b 550 242 510 446 550 356 b 492 36 550 165 533 68 b 456 21 481 25 468 21 b 410 94 400 21 419 75 b 364 133 400 121 385 133 b 325 78 338 133 325 107 b 449 -11 325 17 381 -11 b 540 7 481 -11 511 -6 b 685 244 622 43 685 128 b 619 440 685 325 658 394 b 456 518 583 483 531 518 l 456 525 b 617 722 560 547 617 606 b 599 808 617 751 610 781 b 379 931 561 882 489 931 b 124 657 215 931 124 824 z "},"à":{"ha":621,"x_min":0,"x_max":0,"o":"m 161 142 b 213 247 161 189 185 221 b 392 354 260 292 317 317 l 392 201 b 350 79 392 147 374 111 b 243 25 331 50 286 25 b 161 142 192 25 161 90 z m 200 -10 b 396 110 307 -11 364 43 l 400 110 b 499 -11 400 36 428 -11 b 622 50 558 -11 599 14 l 614 63 b 547 25 604 49 574 25 b 501 151 514 25 501 65 l 501 432 b 294 606 501 568 436 606 b 61 494 172 606 61 543 b 113 436 61 457 75 436 b 181 490 151 436 169 456 b 206 549 189 515 192 535 b 275 581 217 560 246 581 b 392 426 396 581 392 517 l 392 381 l 231 310 b 89 221 174 283 128 260 b 49 122 65 197 49 164 b 200 -10 49 38 113 -8 z m 43 835 b 61 800 43 821 49 810 b 107 769 71 789 88 778 l 279 689 l 338 689 l 175 838 b 90 879 144 865 117 879 b 43 835 63 879 43 864 z "},"á":{"ha":621,"x_min":0,"x_max":0,"o":"m 161 142 b 213 247 161 189 185 221 b 392 354 260 292 317 317 l 392 201 b 350 79 392 147 374 111 b 243 25 331 50 286 25 b 161 142 192 25 161 90 z m 200 -10 b 396 110 307 -11 364 43 l 400 110 b 499 -11 400 36 428 -11 b 622 50 558 -11 599 14 l 614 63 b 547 25 604 49 574 25 b 501 151 514 25 501 65 l 501 432 b 294 606 501 568 436 606 b 61 494 172 606 61 543 b 113 436 61 457 75 436 b 181 490 151 436 169 456 b 206 549 189 515 192 535 b 275 581 217 560 246 581 b 392 426 396 581 392 517 l 392 381 l 231 310 b 89 221 174 283 128 260 b 49 122 65 197 49 164 b 200 -10 49 38 113 -8 z m 499 879 b 414 838 472 879 444 865 l 251 689 l 310 689 l 482 769 b 529 800 501 778 517 789 b 546 835 539 810 546 821 b 499 879 546 863 528 879 z "},"â":{"ha":621,"x_min":0,"x_max":0,"o":"m 161 142 b 213 247 161 189 185 221 b 392 354 260 292 317 317 l 392 201 b 350 79 392 147 374 111 b 243 25 331 50 286 25 b 161 142 192 25 161 90 z m 200 -10 b 396 110 307 -11 364 43 l 400 110 b 499 -11 400 36 428 -11 b 622 50 558 -11 599 14 l 614 63 b 547 25 604 49 574 25 b 501 151 514 25 501 65 l 501 432 b 294 606 501 568 436 606 b 61 494 172 606 61 543 b 113 436 61 457 75 436 b 181 490 151 436 169 456 b 206 549 189 515 192 535 b 275 581 217 560 246 581 b 392 426 396 581 392 517 l 392 381 l 231 310 b 89 221 174 283 128 260 b 49 122 65 197 49 164 b 200 -10 49 38 113 -8 z m 351 850 l 238 850 l 89 689 l 146 689 l 294 774 l 443 689 l 500 689 z "},"ã":{"ha":621,"x_min":0,"x_max":0,"o":"m 161 142 b 213 247 161 189 185 221 b 392 354 260 292 317 317 l 392 201 b 350 79 392 147 374 111 b 243 25 331 50 286 25 b 161 142 192 25 161 90 z m 200 -10 b 396 110 307 -11 364 43 l 400 110 b 499 -11 400 36 428 -11 b 622 50 558 -11 599 14 l 614 63 b 547 25 604 49 574 25 b 501 151 514 25 501 65 l 501 432 b 294 606 501 568 436 606 b 61 494 172 606 61 543 b 113 436 61 457 75 436 b 181 490 151 436 169 456 b 206 549 189 515 192 535 b 275 581 217 560 246 581 b 392 426 396 581 392 517 l 392 381 l 231 310 b 89 221 174 283 128 260 b 49 122 65 197 49 164 b 200 -10 49 38 113 -8 z m 383 689 b 508 838 454 689 501 765 l 467 838 b 408 785 456 806 446 785 b 214 843 332 785 290 843 b 81 700 138 843 92 772 l 124 700 b 179 750 136 735 139 750 b 383 689 257 750 306 689 z "},"ä":{"ha":621,"x_min":0,"x_max":0,"o":"m 161 142 b 213 247 161 189 185 221 b 392 354 260 292 317 317 l 392 201 b 350 79 392 147 374 111 b 243 25 331 50 286 25 b 161 142 192 25 161 90 z m 200 -10 b 396 110 307 -11 364 43 l 400 110 b 499 -11 400 36 428 -11 b 622 50 558 -11 599 14 l 614 63 b 547 25 604 49 574 25 b 501 151 514 25 501 65 l 501 432 b 294 606 501 568 436 606 b 61 494 172 606 61 543 b 113 436 61 457 75 436 b 181 490 151 436 169 456 b 206 549 189 515 192 535 b 275 581 217 560 246 581 b 392 426 396 581 392 517 l 392 381 l 231 310 b 89 221 174 283 128 260 b 49 122 65 197 49 164 b 200 -10 49 38 113 -8 z m 189 689 b 264 761 229 689 264 718 b 189 833 264 804 229 833 b 117 761 149 833 117 804 b 189 689 117 718 149 689 z m 400 689 b 472 761 440 689 472 719 b 400 833 472 803 442 833 b 328 761 358 833 328 803 b 400 689 328 719 357 689 z "},"å":{"ha":621,"x_min":0,"x_max":0,"o":"m 161 142 b 213 247 161 189 185 221 b 392 354 260 292 317 317 l 392 201 b 350 79 392 147 374 111 b 243 25 331 50 286 25 b 161 142 192 25 161 90 z m 200 -10 b 396 110 307 -11 364 43 l 400 110 b 499 -11 400 36 428 -11 b 622 50 558 -11 599 14 l 614 63 b 547 25 604 49 574 25 b 501 151 514 25 501 65 l 501 432 b 294 606 501 568 436 606 b 61 494 172 606 61 543 b 113 436 61 457 75 436 b 181 490 151 436 169 456 b 206 549 189 515 192 535 b 275 581 217 560 246 581 b 392 426 396 581 392 517 l 392 381 l 231 310 b 89 221 174 283 128 260 b 49 122 65 197 49 164 b 200 -10 49 38 113 -8 z m 294 689 b 403 797 357 689 403 735 b 294 907 403 861 358 907 b 186 797 231 907 186 861 b 294 689 186 735 232 689 z m 294 853 b 350 797 328 853 350 831 b 294 738 350 765 328 738 b 233 797 260 738 233 763 b 294 853 233 832 261 853 z "},"æ":{"ha":967,"x_min":0,"x_max":0,"o":"m 200 -10 b 396 110 292 -10 360 39 b 408 133 401 121 408 133 b 674 -11 456 40 551 -14 b 911 104 801 -8 838 33 l 897 122 b 706 22 850 74 789 22 b 618 46 672 22 643 31 b 507 306 554 89 507 192 b 514 375 507 324 510 361 l 881 375 b 915 397 906 375 915 376 b 688 606 915 543 833 606 b 563 582 643 606 601 599 b 482 532 533 569 506 553 b 294 606 454 588 392 606 b 61 494 172 606 61 543 b 113 436 61 457 75 436 b 181 490 151 436 169 456 b 206 549 189 515 192 535 b 275 581 217 560 246 581 b 392 426 396 581 392 517 l 392 388 b 389 379 390 385 390 382 l 231 310 b 89 221 174 283 128 260 b 49 122 65 197 49 164 b 200 -10 49 38 113 -10 z m 161 142 b 213 247 161 189 185 221 b 383 350 258 289 313 315 b 379 290 381 332 379 311 b 392 193 379 256 383 224 b 350 81 389 144 372 111 b 251 39 331 51 294 39 b 161 142 200 39 161 90 z m 807 433 b 806 415 807 428 807 421 b 739 403 800 397 765 403 l 518 403 b 688 581 536 500 592 582 b 807 433 781 579 807 506 z "},"ç":{"ha":600,"x_min":0,"x_max":0,"o":"m 361 19 b 183 310 232 19 183 164 b 344 581 183 443 236 581 b 442 506 422 581 424 536 b 510 460 460 475 475 460 b 564 507 543 460 564 475 b 510 579 564 542 538 567 b 367 606 471 594 424 606 b 142 521 269 606 192 574 b 54 293 89 471 54 394 b 75 168 54 247 63 206 b 325 -11 113 68 190 -11 b 568 93 451 -11 517 33 l 556 107 b 361 19 511 63 439 19 z m 313 -287 b 264 -256 289 -287 265 -274 b 228 -221 263 -235 257 -221 b 188 -262 206 -221 188 -240 b 317 -328 188 -311 250 -328 b 475 -214 404 -328 475 -299 b 319 -106 475 -143 424 -106 l 358 0 l 292 0 l 242 -139 l 246 -146 b 267 -144 253 -144 260 -144 b 290 -143 275 -143 283 -143 b 400 -218 385 -144 400 -178 b 313 -287 400 -254 376 -287 z "},"è":{"ha":642,"x_min":0,"x_max":0,"o":"m 381 19 b 182 306 244 19 182 164 b 189 375 182 324 185 361 l 556 375 b 590 397 581 375 590 376 b 363 606 590 543 508 606 b 238 582 318 606 276 599 b 54 290 132 535 54 440 b 349 -11 54 111 168 -15 b 586 104 476 -8 513 33 l 572 119 b 381 19 525 71 464 19 z m 468 433 b 467 415 468 428 468 421 b 400 403 461 397 426 403 l 193 403 b 349 581 211 500 253 582 b 468 433 442 579 468 506 z m 125 835 b 143 800 125 821 131 810 b 189 769 153 789 169 778 l 361 689 l 419 689 l 257 838 b 172 879 226 865 199 879 b 125 835 144 879 125 864 z "},"é":{"ha":642,"x_min":0,"x_max":0,"o":"m 381 19 b 182 306 244 19 182 164 b 189 375 182 324 185 361 l 556 375 b 590 397 581 375 590 376 b 363 606 590 543 508 606 b 238 582 318 606 276 599 b 54 290 132 535 54 440 b 349 -11 54 111 168 -15 b 586 104 476 -8 513 33 l 572 119 b 381 19 525 71 464 19 z m 468 433 b 467 415 468 428 468 421 b 400 403 461 397 426 403 l 193 403 b 349 581 211 500 253 582 b 468 433 442 579 468 506 z m 539 879 b 454 838 513 879 485 865 l 292 689 l 350 689 l 522 769 b 569 800 542 778 557 789 b 586 835 579 810 586 821 b 539 879 586 863 568 879 z "},"ê":{"ha":642,"x_min":0,"x_max":0,"o":"m 381 19 b 182 306 244 19 182 164 b 189 375 182 324 185 361 l 556 375 b 590 397 581 375 590 376 b 363 606 590 543 508 606 b 238 582 318 606 276 599 b 54 290 132 535 54 440 b 349 -11 54 111 168 -15 b 586 104 476 -8 513 33 l 572 119 b 381 19 525 71 464 19 z m 468 433 b 467 415 468 428 468 421 b 400 403 461 397 426 403 l 193 403 b 349 581 211 500 253 582 b 468 433 442 579 468 506 z m 419 850 l 306 850 l 157 689 l 214 689 l 363 774 l 511 689 l 568 689 z "},"ë":{"ha":642,"x_min":0,"x_max":0,"o":"m 381 19 b 182 306 244 19 182 164 b 189 375 182 324 185 361 l 556 375 b 590 397 581 375 590 376 b 363 606 590 543 508 606 b 238 582 318 606 276 599 b 54 290 132 535 54 440 b 349 -11 54 111 168 -15 b 586 104 476 -8 513 33 l 572 119 b 381 19 525 71 464 19 z m 468 433 b 467 415 468 428 468 421 b 400 403 461 397 426 403 l 193 403 b 349 581 211 500 253 582 b 468 433 442 579 468 506 z m 258 689 b 331 761 297 689 331 718 b 258 833 331 804 297 833 b 186 761 217 833 186 804 b 258 689 186 718 217 689 z m 467 689 b 539 761 508 689 539 719 b 467 833 539 803 510 833 b 394 761 426 833 394 803 b 467 689 394 719 425 689 z "},"ì":{"ha":381,"x_min":0,"x_max":0,"o":"m 256 156 l 256 606 l 36 563 l 36 543 b 113 514 74 543 96 531 b 146 314 140 486 146 460 l 146 147 b 142 82 146 121 146 100 b 39 17 133 28 99 21 l 39 0 l 361 0 l 361 17 b 306 22 339 18 319 18 b 256 156 257 36 256 89 z m -18 835 b 0 800 -18 821 -12 810 b 46 769 10 789 26 778 l 218 689 l 276 689 l 114 838 b 29 879 83 865 56 879 b -18 835 1 879 -18 864 z "},"í":{"ha":381,"x_min":0,"x_max":0,"o":"m 256 156 l 256 606 l 36 563 l 36 543 b 113 514 74 543 96 531 b 146 314 140 486 146 460 l 146 147 b 142 82 146 121 146 100 b 39 17 133 28 99 21 l 39 0 l 361 0 l 361 17 b 306 22 339 18 319 18 b 256 156 257 36 256 89 z m 335 879 b 250 838 308 879 281 865 l 88 689 l 146 689 l 318 769 b 365 800 338 778 353 789 b 382 835 375 810 382 821 b 335 879 382 863 364 879 z "},"î":{"ha":381,"x_min":0,"x_max":0,"o":"m 256 156 l 256 606 l 36 563 l 36 543 b 113 514 74 543 96 531 b 146 314 140 486 146 460 l 146 147 b 142 82 146 121 146 100 b 39 17 133 28 99 21 l 39 0 l 361 0 l 361 17 b 306 22 339 18 319 18 b 256 156 257 36 256 89 z m 247 850 l 133 850 l -15 689 l 42 689 l 190 774 l 339 689 l 396 689 z "},"ï":{"ha":381,"x_min":0,"x_max":0,"o":"m 256 156 l 256 606 l 36 563 l 36 543 b 113 514 74 543 96 531 b 146 314 140 486 146 460 l 146 147 b 142 82 146 121 146 100 b 39 17 133 28 99 21 l 39 0 l 361 0 l 361 17 b 306 22 339 18 319 18 b 256 156 257 36 256 89 z m 86 689 b 158 761 125 689 158 718 b 86 833 158 804 125 833 b 14 761 44 833 14 804 b 86 689 14 718 44 689 z m 294 689 b 367 761 336 689 367 719 b 294 833 367 803 338 833 b 222 761 254 833 222 803 b 294 689 222 719 253 689 z "},"ð":{"ha":717,"x_min":0,"x_max":0,"o":"m 349 533 b 503 288 460 533 503 424 b 347 14 503 138 468 14 b 196 274 228 14 196 150 b 349 533 196 397 226 533 z m 347 758 l 206 676 l 225 647 l 376 732 b 513 451 446 665 485 565 l 508 463 b 338 558 478 522 425 558 b 225 536 297 558 260 551 b 56 274 131 494 56 407 b 78 160 56 232 63 196 b 346 -11 121 64 211 -11 b 467 17 389 -11 429 -1 b 646 346 576 68 646 185 b 631 471 646 388 640 429 b 438 771 601 601 532 703 l 569 846 l 549 875 l 404 792 b 201 875 351 824 268 856 l 190 853 b 347 758 257 829 313 793 z "},"ñ":{"ha":771,"x_min":0,"x_max":0,"o":"m 239 492 l 235 492 l 219 606 l 40 563 l 40 543 b 101 519 58 542 85 536 b 136 338 128 493 136 479 l 136 146 b 133 78 136 117 136 96 b 42 17 129 25 96 21 l 42 0 l 336 0 l 336 17 b 285 22 315 18 297 18 b 243 154 236 39 243 88 l 243 347 b 263 467 243 399 243 433 b 435 574 292 518 360 574 b 549 317 553 574 549 439 l 549 146 b 546 78 549 117 549 96 b 456 17 542 25 511 21 l 456 0 l 746 0 l 746 17 b 697 22 726 18 708 18 b 656 154 650 36 656 90 l 656 363 b 621 543 656 444 651 500 b 461 606 589 581 531 606 b 239 492 360 606 289 551 z m 482 689 b 607 838 553 689 600 765 l 565 838 b 507 785 554 806 544 785 b 313 843 431 785 389 843 b 179 700 236 843 190 772 l 222 700 b 278 750 235 735 238 750 b 482 689 356 750 404 689 z "},"ò":{"ha":733,"x_min":0,"x_max":0,"o":"m 364 606 b 244 583 322 606 283 599 b 53 301 140 540 53 446 b 78 175 53 256 60 215 b 364 -11 125 74 190 -11 b 586 76 469 -11 536 26 b 681 301 638 128 681 201 b 656 424 681 344 672 385 b 364 606 606 524 511 606 z m 364 581 b 553 301 489 581 554 429 b 364 14 551 139 476 14 b 181 301 214 14 181 163 b 364 581 181 429 242 581 z m 99 835 b 117 800 99 821 104 810 b 163 769 126 789 143 778 l 335 689 l 393 689 l 231 838 b 146 879 200 865 172 879 b 99 835 118 879 99 864 z "},"ó":{"ha":733,"x_min":0,"x_max":0,"o":"m 364 606 b 244 583 322 606 283 599 b 53 301 140 540 53 446 b 78 175 53 256 60 215 b 364 -11 125 74 190 -11 b 586 76 469 -11 536 26 b 681 301 638 128 681 201 b 656 424 681 344 672 385 b 364 606 606 524 511 606 z m 364 581 b 553 301 489 581 554 429 b 364 14 551 139 476 14 b 181 301 214 14 181 163 b 364 581 181 429 242 581 z m 582 879 b 497 838 556 879 528 865 l 335 689 l 393 689 l 565 769 b 613 800 585 778 600 789 b 629 835 622 810 629 821 b 582 879 629 863 611 879 z "},"ô":{"ha":733,"x_min":0,"x_max":0,"o":"m 364 606 b 244 583 322 606 283 599 b 53 301 140 540 53 446 b 78 175 53 256 60 215 b 364 -11 125 74 190 -11 b 586 76 469 -11 536 26 b 681 301 638 128 681 201 b 656 424 681 344 672 385 b 364 606 606 524 511 606 z m 364 581 b 553 301 489 581 554 429 b 364 14 551 139 476 14 b 181 301 214 14 181 163 b 364 581 181 429 242 581 z m 421 850 l 307 850 l 158 689 l 215 689 l 364 774 l 513 689 l 569 689 z "},"õ":{"ha":733,"x_min":0,"x_max":0,"o":"m 364 606 b 244 583 322 606 283 599 b 53 301 140 540 53 446 b 78 175 53 256 60 215 b 364 -11 125 74 190 -11 b 586 76 469 -11 536 26 b 681 301 638 128 681 201 b 656 424 681 344 672 385 b 364 606 606 524 511 606 z m 364 581 b 553 301 489 581 554 429 b 364 14 551 139 476 14 b 181 301 214 14 181 163 b 364 581 181 429 242 581 z m 453 689 b 578 838 524 689 571 765 l 536 838 b 478 785 525 806 515 785 b 283 843 401 785 360 843 b 150 700 207 843 161 772 l 193 700 b 249 750 206 735 208 750 b 453 689 326 750 375 689 z "},"ö":{"ha":733,"x_min":0,"x_max":0,"o":"m 364 606 b 244 583 322 606 283 599 b 53 301 140 540 53 446 b 78 175 53 256 60 215 b 364 -11 125 74 190 -11 b 586 76 469 -11 536 26 b 681 301 638 128 681 201 b 656 424 681 344 672 385 b 364 606 606 524 511 606 z m 364 581 b 553 301 489 581 554 429 b 364 14 551 139 476 14 b 181 301 214 14 181 163 b 364 581 181 429 242 581 z m 258 689 b 333 761 299 689 333 718 b 258 833 333 804 299 833 b 186 761 218 833 186 804 b 258 689 186 718 218 689 z m 469 689 b 542 761 510 689 542 719 b 469 833 542 803 511 833 b 397 761 428 833 397 803 b 469 689 397 719 426 689 z "},"÷":{"ha":671,"x_min":0,"x_max":0,"o":"m 339 151 b 413 224 379 151 413 183 b 339 297 413 265 381 297 b 267 224 297 297 267 265 b 339 151 267 183 299 151 z m 339 543 b 413 615 379 543 413 576 b 339 690 413 657 381 690 b 267 615 297 690 267 657 b 339 543 267 576 300 543 z m 599 393 l 599 450 l 75 450 l 75 393 z "},"ø":{"ha":733,"x_min":0,"x_max":0,"o":"m 364 606 b 244 583 322 606 283 599 b 53 301 140 540 53 446 b 78 175 53 256 60 215 b 364 -11 125 74 190 -11 b 586 76 469 -11 536 26 b 681 301 638 128 681 201 b 656 424 681 344 672 385 b 364 606 606 524 511 606 z m 364 581 b 553 301 489 581 554 429 b 364 14 551 139 476 14 b 181 301 214 14 181 163 b 364 581 181 429 242 581 z m 638 664 l 58 -68 l 108 -68 l 686 664 z "},"ù":{"ha":750,"x_min":0,"x_max":0,"o":"m 631 146 b 629 250 631 174 629 208 l 629 594 l 426 594 l 426 575 b 479 560 447 572 467 567 b 519 428 517 536 519 490 l 519 269 b 501 149 519 222 515 182 b 347 19 464 61 413 17 b 239 111 279 22 253 72 b 226 289 225 151 226 207 l 226 594 l 24 594 l 24 575 b 75 560 44 572 64 567 b 117 428 108 538 117 492 l 117 236 b 153 54 117 156 122 97 b 311 -11 182 17 244 -12 b 522 115 442 -8 479 49 l 526 115 l 542 -12 l 728 1 l 728 18 b 685 21 710 18 696 18 b 631 146 631 21 636 92 z m 89 835 b 107 800 89 821 94 810 b 153 769 117 789 133 778 l 325 689 l 383 689 l 221 838 b 136 879 190 865 163 879 b 89 835 108 879 89 864 z "},"ú":{"ha":750,"x_min":0,"x_max":0,"o":"m 631 146 b 629 250 631 174 629 208 l 629 594 l 426 594 l 426 575 b 479 560 447 572 467 567 b 519 428 517 536 519 490 l 519 269 b 501 149 519 222 515 182 b 347 19 464 61 413 17 b 239 111 279 22 253 72 b 226 289 225 151 226 207 l 226 594 l 24 594 l 24 575 b 75 560 44 572 64 567 b 117 428 108 538 117 492 l 117 236 b 153 54 117 156 122 97 b 311 -11 182 17 244 -12 b 522 115 442 -8 479 49 l 526 115 l 542 -12 l 728 1 l 728 18 b 685 21 710 18 696 18 b 631 146 631 21 636 92 z m 544 879 b 460 838 518 879 490 865 l 297 689 l 356 689 l 528 769 b 575 800 547 778 563 789 b 592 835 585 810 592 821 b 544 879 592 863 574 879 z "},"û":{"ha":750,"x_min":0,"x_max":0,"o":"m 631 146 b 629 250 631 174 629 208 l 629 594 l 426 594 l 426 575 b 479 560 447 572 467 567 b 519 428 517 536 519 490 l 519 269 b 501 149 519 222 515 182 b 347 19 464 61 413 17 b 239 111 279 22 253 72 b 226 289 225 151 226 207 l 226 594 l 24 594 l 24 575 b 75 560 44 572 64 567 b 117 428 108 538 117 492 l 117 236 b 153 54 117 156 122 97 b 311 -11 182 17 244 -12 b 522 115 442 -8 479 49 l 526 115 l 542 -12 l 728 1 l 728 18 b 685 21 710 18 696 18 b 631 146 631 21 636 92 z m 411 850 l 297 850 l 149 689 l 206 689 l 354 774 l 503 689 l 560 689 z "},"ü":{"ha":750,"x_min":0,"x_max":0,"o":"m 631 146 b 629 250 631 174 629 208 l 629 594 l 426 594 l 426 575 b 479 560 447 572 467 567 b 519 428 517 536 519 490 l 519 269 b 501 149 519 222 515 182 b 347 19 464 61 413 17 b 239 111 279 22 253 72 b 226 289 225 151 226 207 l 226 594 l 24 594 l 24 575 b 75 560 44 572 64 567 b 117 428 108 538 117 492 l 117 236 b 153 54 117 156 122 97 b 311 -11 182 17 244 -12 b 522 115 442 -8 479 49 l 526 115 l 542 -12 l 728 1 l 728 18 b 685 21 710 18 696 18 b 631 146 631 21 636 92 z m 250 689 b 322 761 289 689 322 718 b 250 833 322 804 289 833 b 178 761 208 833 178 804 b 250 689 178 718 208 689 z m 458 689 b 531 761 500 689 531 719 b 458 833 531 803 501 833 b 386 761 418 833 386 803 b 458 689 386 719 417 689 z "},"ý":{"ha":715,"x_min":0,"x_max":0,"o":"m 557 525 b 522 379 557 478 568 483 l 400 104 l 394 106 l 258 415 b 218 538 246 443 218 506 b 301 575 218 563 250 575 l 301 594 l 6 594 l 6 575 b 89 524 51 571 72 547 b 115 463 96 513 106 483 l 335 -37 l 313 -90 b 292 -126 307 -106 297 -117 b 176 -176 271 -156 232 -175 b 85 -239 122 -178 88 -201 b 156 -292 82 -274 108 -292 b 310 -176 211 -292 275 -253 l 554 375 b 629 544 583 442 606 510 b 704 575 644 567 671 575 l 704 594 l 457 594 l 457 575 b 557 525 510 575 557 561 z m 572 879 b 489 838 547 879 519 865 l 325 689 l 383 689 l 556 769 b 603 800 575 778 592 789 b 619 835 614 810 619 821 b 572 879 619 863 601 879 z "},"þ":{"ha":733,"x_min":0,"x_max":0,"o":"m 390 -12 b 597 76 481 -12 550 26 b 681 297 643 129 681 201 b 597 517 681 392 647 465 b 394 606 554 567 481 606 b 214 515 307 606 256 571 l 210 515 l 210 1021 l -1 976 l -1 957 b 88 913 38 951 75 942 b 101 768 97 892 101 843 l 101 -124 b 99 -189 101 -151 101 -171 b -4 -256 88 -243 60 -251 l -4 -281 l 342 -281 l 342 -256 b 276 -249 313 -254 293 -253 b 214 -114 218 -236 214 -187 l 214 72 b 390 -12 253 28 310 -12 z m 213 197 l 213 356 b 236 490 213 413 218 458 b 374 581 258 538 307 581 b 553 293 488 581 553 415 b 504 110 553 215 535 156 b 378 19 476 74 438 19 b 213 197 286 19 213 89 z "},"ÿ":{"ha":715,"x_min":0,"x_max":0,"o":"m 557 525 b 522 379 557 478 568 483 l 400 104 l 394 106 l 258 415 b 218 538 246 443 218 506 b 301 575 218 563 250 575 l 301 594 l 6 594 l 6 575 b 89 524 51 571 72 547 b 115 463 96 513 106 483 l 335 -37 l 313 -90 b 292 -126 307 -106 297 -117 b 176 -176 271 -156 232 -175 b 85 -239 122 -178 88 -201 b 156 -292 82 -274 108 -292 b 310 -176 211 -292 275 -253 l 554 375 b 629 544 583 442 606 510 b 704 575 644 567 671 575 l 704 594 l 457 594 l 457 575 b 557 525 510 575 557 561 z m 250 689 b 324 761 290 689 324 718 b 250 833 324 804 290 833 b 178 761 210 833 178 804 b 250 689 178 718 210 689 z m 460 689 b 532 761 501 689 532 719 b 460 833 532 803 501 833 b 388 761 418 833 388 803 b 460 689 388 719 418 689 z "},"Ā":{"ha":967,"x_min":0,"x_max":0,"o":"m 319 1061 l 658 1061 l 658 1124 l 319 1124 z m 575 18 l 575 0 l 985 0 l 985 18 b 843 146 901 18 874 86 b 793 258 829 175 813 213 l 508 965 l 468 965 l 142 149 b 118 106 135 131 126 117 b -7 17 90 68 44 24 l -7 0 l 297 0 l 297 17 b 179 110 236 17 179 54 b 194 190 179 139 186 161 b 261 365 213 242 238 308 l 606 365 l 669 214 b 683 178 676 200 679 188 b 699 103 692 156 699 133 b 575 18 699 51 640 18 z m 275 397 l 432 796 l 596 397 z "},"ā":{"ha":621,"x_min":0,"x_max":0,"o":"m 161 142 b 213 247 161 189 185 221 b 392 354 260 292 317 317 l 392 201 b 350 79 392 147 374 111 b 243 25 331 50 286 25 b 161 142 192 25 161 90 z m 200 -10 b 396 110 307 -11 364 43 l 400 110 b 499 -11 400 36 428 -11 b 622 50 558 -11 599 14 l 614 63 b 547 25 604 49 574 25 b 501 151 514 25 501 65 l 501 432 b 294 606 501 568 436 606 b 61 494 172 606 61 543 b 113 436 61 457 75 436 b 181 490 151 436 169 456 b 206 549 189 515 192 535 b 275 581 217 560 246 581 b 392 426 396 581 392 517 l 392 381 l 231 310 b 89 221 174 283 128 260 b 49 122 65 197 49 164 b 200 -10 49 38 113 -8 z m 125 689 l 464 689 l 464 751 l 125 751 z "},"Ă":{"ha":967,"x_min":0,"x_max":0,"o":"m 488 1147 b 361 1204 431 1147 376 1165 l 315 1204 b 368 1101 318 1160 339 1124 b 489 1061 396 1076 440 1061 b 661 1204 582 1061 653 1118 l 615 1204 b 488 1147 600 1167 543 1147 z m 575 18 l 575 0 l 985 0 l 985 18 b 843 146 901 18 874 86 b 793 258 829 175 813 213 l 508 965 l 468 965 l 142 149 b 118 106 135 131 126 117 b -7 17 90 68 44 24 l -7 0 l 297 0 l 297 17 b 179 110 236 17 179 54 b 194 190 179 139 186 161 b 261 365 213 242 238 308 l 606 365 l 669 214 b 683 178 676 200 679 188 b 699 103 692 156 699 133 b 575 18 699 51 640 18 z m 275 397 l 432 796 l 596 397 z "},"ă":{"ha":621,"x_min":0,"x_max":0,"o":"m 161 142 b 213 247 161 189 185 221 b 392 354 260 292 317 317 l 392 201 b 350 79 392 147 374 111 b 243 25 331 50 286 25 b 161 142 192 25 161 90 z m 200 -10 b 396 110 307 -11 364 43 l 400 110 b 499 -11 400 36 428 -11 b 622 50 558 -11 599 14 l 614 63 b 547 25 604 49 574 25 b 501 151 514 25 501 65 l 501 432 b 294 606 501 568 436 606 b 61 494 172 606 61 543 b 113 436 61 457 75 436 b 181 490 151 436 169 456 b 206 549 189 515 192 535 b 275 581 217 560 246 581 b 392 426 396 581 392 517 l 392 381 l 231 310 b 89 221 174 283 128 260 b 49 122 65 197 49 164 b 200 -10 49 38 113 -8 z m 294 775 b 167 851 235 775 181 804 l 122 851 b 294 689 128 756 194 689 b 467 851 394 689 463 757 l 422 851 b 294 775 408 806 353 775 z "},"Ą":{"ha":967,"x_min":0,"x_max":0,"o":"m 739 -162 b 781 -75 739 -125 758 -99 b 893 4 810 -42 853 -15 l 893 10 l 826 10 b 689 -78 768 -14 721 -43 b 640 -190 657 -112 640 -150 b 763 -297 640 -261 688 -297 b 964 -193 850 -297 917 -256 l 943 -174 b 872 -219 922 -196 893 -211 b 803 -236 850 -228 819 -236 b 739 -162 768 -236 739 -197 z m 575 18 l 575 0 l 985 0 l 985 18 b 843 146 901 18 874 86 b 793 258 829 175 813 213 l 508 965 l 468 965 l 142 149 b 118 106 135 131 126 117 b -7 17 90 68 44 24 l -7 0 l 297 0 l 297 17 b 179 110 236 17 179 54 b 194 190 179 139 186 161 b 261 365 213 242 238 308 l 606 365 l 669 214 b 683 178 676 200 679 188 b 699 103 692 156 699 133 b 575 18 699 51 640 18 z m 275 397 l 432 796 l 596 397 z "},"ą":{"ha":621,"x_min":0,"x_max":0,"o":"m 161 142 b 213 247 161 189 185 221 b 392 354 260 292 317 317 l 392 201 b 350 79 392 147 374 111 b 243 25 331 50 286 25 b 161 142 192 25 161 90 z m 200 -10 b 396 110 307 -11 364 43 l 400 110 b 499 -11 400 36 428 -11 b 622 50 558 -11 599 14 l 614 63 b 547 25 604 49 574 25 b 501 151 514 25 501 65 l 501 432 b 294 606 501 568 436 606 b 61 494 172 606 61 543 b 113 436 61 457 75 436 b 181 490 151 436 169 456 b 206 549 189 515 192 535 b 275 581 217 560 246 581 b 392 426 396 581 392 517 l 392 381 l 231 310 b 89 221 174 283 128 260 b 49 122 65 197 49 164 b 200 -10 49 38 113 -8 z m 394 -174 b 436 -86 394 -136 414 -110 b 549 -7 465 -53 508 -26 l 549 -1 l 482 -1 b 344 -89 424 -25 376 -54 b 296 -201 313 -124 296 -161 b 418 -308 296 -272 343 -308 b 619 -204 506 -308 572 -267 l 599 -185 b 528 -231 578 -207 549 -222 b 458 -247 506 -239 475 -247 b 394 -174 424 -247 394 -208 z "},"Ć":{"ha":1004,"x_min":0,"x_max":0,"o":"m 749 1199 b 700 1189 732 1199 715 1196 b 639 1158 683 1182 663 1172 l 476 1061 l 551 1061 l 703 1096 b 769 1122 732 1103 753 1113 b 796 1156 788 1131 796 1142 b 749 1199 796 1183 776 1199 z m 556 978 b 208 836 401 978 288 918 b 75 467 129 751 75 628 b 203 118 75 315 124 194 b 542 -12 278 38 372 -12 b 860 99 700 -12 772 25 l 906 0 l 933 0 l 933 313 l 908 313 b 571 17 863 140 756 17 b 243 474 339 17 243 229 b 265 658 243 543 250 604 b 567 939 301 800 393 939 b 885 676 729 939 849 811 l 910 676 l 899 965 l 871 965 l 842 888 b 556 978 754 942 679 978 z "},"ć":{"ha":600,"x_min":0,"x_max":0,"o":"m 361 19 b 183 310 232 19 183 164 b 344 581 183 443 236 581 b 442 506 422 581 424 536 b 510 460 460 475 475 460 b 564 507 543 460 564 475 b 510 579 564 542 538 567 b 367 606 471 594 424 606 b 142 521 269 606 192 574 b 54 293 89 471 54 394 b 75 168 54 247 63 206 b 325 -11 113 68 190 -11 b 568 93 451 -11 517 33 l 556 107 b 361 19 511 63 439 19 z m 543 879 b 458 838 517 879 489 865 l 296 689 l 354 689 l 526 769 b 574 800 546 778 561 789 b 590 835 583 810 590 821 b 543 879 590 863 572 879 z "},"Ĉ":{"ha":1004,"x_min":0,"x_max":0,"o":"m 625 1197 l 486 1197 l 350 1061 l 407 1061 l 556 1129 l 704 1061 l 761 1061 z m 556 978 b 208 836 401 978 288 918 b 75 467 129 751 75 628 b 203 118 75 315 124 194 b 542 -12 278 38 372 -12 b 860 99 700 -12 772 25 l 906 0 l 933 0 l 933 313 l 908 313 b 571 17 863 140 756 17 b 243 474 339 17 243 229 b 265 658 243 543 250 604 b 567 939 301 800 393 939 b 885 676 729 939 849 811 l 910 676 l 899 965 l 871 965 l 842 888 b 556 978 754 942 679 978 z "},"ĉ":{"ha":600,"x_min":0,"x_max":0,"o":"m 361 19 b 183 310 232 19 183 164 b 344 581 183 443 236 581 b 442 506 422 581 424 536 b 510 460 460 475 475 460 b 564 507 543 460 564 475 b 510 579 564 542 538 567 b 367 606 471 594 424 606 b 142 521 269 606 192 574 b 54 293 89 471 54 394 b 75 168 54 247 63 206 b 325 -11 113 68 190 -11 b 568 93 451 -11 517 33 l 556 107 b 361 19 511 63 439 19 z m 424 850 l 310 850 l 161 689 l 218 689 l 367 774 l 515 689 l 572 689 z "},"Ċ":{"ha":1004,"x_min":0,"x_max":0,"o":"m 553 1061 b 622 1126 590 1061 622 1090 b 553 1196 622 1164 590 1196 b 489 1126 518 1196 489 1161 b 553 1061 489 1092 519 1061 z m 556 978 b 208 836 401 978 288 918 b 75 467 129 751 75 628 b 203 118 75 315 124 194 b 542 -12 278 38 372 -12 b 860 99 700 -12 772 25 l 906 0 l 933 0 l 933 313 l 908 313 b 571 17 863 140 756 17 b 243 474 339 17 243 229 b 265 658 243 543 250 604 b 567 939 301 800 393 939 b 885 676 729 939 849 811 l 910 676 l 899 965 l 871 965 l 842 888 b 556 978 754 942 679 978 z "},"ċ":{"ha":600,"x_min":0,"x_max":0,"o":"m 361 19 b 183 310 232 19 183 164 b 344 581 183 443 236 581 b 442 506 422 581 424 536 b 510 460 460 475 475 460 b 564 507 543 460 564 475 b 510 579 564 542 538 567 b 367 606 471 594 424 606 b 142 521 269 606 192 574 b 54 293 89 471 54 394 b 75 168 54 247 63 206 b 325 -11 113 68 190 -11 b 568 93 451 -11 517 33 l 556 107 b 361 19 511 63 439 19 z m 367 689 b 444 767 410 689 444 724 b 367 844 444 808 408 844 b 289 767 325 844 289 808 b 367 689 289 724 324 689 z "},"Č":{"ha":1004,"x_min":0,"x_max":0,"o":"m 486 1061 l 625 1061 l 761 1197 l 704 1197 l 556 1131 l 407 1197 l 350 1197 z m 556 978 b 208 836 401 978 288 918 b 75 467 129 751 75 628 b 203 118 75 315 124 194 b 542 -12 278 38 372 -12 b 860 99 700 -12 772 25 l 906 0 l 933 0 l 933 313 l 908 313 b 571 17 863 140 756 17 b 243 474 339 17 243 229 b 265 658 243 543 250 604 b 567 939 301 800 393 939 b 885 676 729 939 849 811 l 910 676 l 899 965 l 871 965 l 842 888 b 556 978 754 942 679 978 z "},"č":{"ha":600,"x_min":0,"x_max":0,"o":"m 361 19 b 183 310 232 19 183 164 b 344 581 183 443 236 581 b 442 506 422 581 424 536 b 510 460 460 475 475 460 b 564 507 543 460 564 475 b 510 579 564 542 538 567 b 367 606 471 594 424 606 b 142 521 269 606 192 574 b 54 293 89 471 54 394 b 75 168 54 247 63 206 b 325 -11 113 68 190 -11 b 568 93 451 -11 517 33 l 556 107 b 361 19 511 63 439 19 z m 310 689 l 424 689 l 572 850 l 515 850 l 367 765 l 218 850 l 161 850 z "},"Ď":{"ha":1107,"x_min":0,"x_max":0,"o":"m 472 1061 l 611 1061 l 747 1197 l 689 1197 l 542 1131 l 392 1197 l 336 1197 z m 47 0 l 538 0 b 894 131 690 0 814 53 b 1035 467 975 206 1035 318 b 888 824 1035 622 971 743 b 513 965 800 906 674 965 l 72 965 l 72 946 b 175 907 115 943 160 932 b 199 794 196 883 199 843 l 199 171 b 171 56 199 118 194 79 b 47 19 144 32 100 22 z m 517 29 b 329 172 393 29 329 76 l 329 914 b 351 936 329 928 338 936 l 510 936 b 871 464 765 936 871 722 b 517 29 871 215 758 29 z "},"ď":{"ha":844,"x_min":0,"x_max":0,"o":"m 346 606 b 136 518 256 606 181 569 b 53 299 88 469 53 389 b 346 -11 53 119 165 -11 b 454 14 388 -11 425 -7 b 529 96 497 46 501 57 l 543 94 l 543 -11 l 729 1 l 729 21 b 686 22 711 21 697 21 b 632 149 632 31 635 85 b 631 283 631 181 631 231 l 631 1021 l 400 979 l 400 960 b 485 936 440 960 467 950 b 524 842 514 914 524 893 b 524 736 526 813 524 778 l 524 531 b 346 606 478 576 429 606 z m 346 581 b 490 514 410 581 460 551 b 521 372 519 478 521 443 l 521 225 b 464 54 521 136 499 83 b 346 17 436 31 396 17 b 181 304 217 17 181 168 b 346 581 181 438 225 581 z m 801 1021 b 742 960 767 1021 742 994 b 747 924 742 953 743 942 b 783 746 758 867 769 803 l 819 746 b 854 924 832 801 846 865 b 860 958 858 939 860 951 b 801 1021 860 993 836 1021 z "},"Đ":{"ha":1107,"x_min":0,"x_max":0,"o":"m 96 531 l 96 497 l 533 497 l 533 531 z m 47 0 l 538 0 b 894 131 690 0 814 53 b 1035 467 975 206 1035 318 b 888 824 1035 622 971 743 b 513 965 800 906 674 965 l 72 965 l 72 946 b 175 907 115 943 160 932 b 199 794 196 883 199 843 l 199 171 b 171 56 199 118 194 79 b 47 19 144 32 100 22 z m 517 29 b 329 172 393 29 329 76 l 329 914 b 351 936 329 928 338 936 l 510 936 b 871 464 765 936 871 722 b 517 29 871 215 758 29 z "},"đ":{"ha":757,"x_min":0,"x_max":0,"o":"m 413 747 l 413 714 l 726 711 l 726 747 z m 346 606 b 136 518 256 606 181 569 b 53 299 88 469 53 389 b 346 -11 53 119 165 -11 b 454 14 388 -11 425 -7 b 529 96 497 46 501 57 l 543 94 l 543 -11 l 729 1 l 729 21 b 686 22 711 21 697 21 b 632 149 632 31 635 85 b 631 283 631 181 631 231 l 631 1021 l 400 979 l 400 960 b 485 936 440 960 467 950 b 524 842 514 914 524 893 b 524 736 526 813 524 778 l 524 531 b 346 606 478 576 429 606 z m 346 581 b 490 514 410 581 460 551 b 521 372 519 478 521 443 l 521 225 b 464 54 521 136 499 83 b 346 17 436 31 396 17 b 181 304 217 17 181 168 b 346 581 181 438 225 581 z "},"Ē":{"ha":910,"x_min":0,"x_max":0,"o":"m 303 1061 l 642 1061 l 642 1124 l 303 1124 z m 326 519 l 326 915 b 347 936 326 929 333 936 l 507 936 b 778 744 672 936 754 885 l 804 744 l 793 965 l 69 965 l 69 946 b 174 903 115 943 153 926 b 194 790 193 881 194 838 l 194 175 b 169 61 194 126 192 83 b 57 19 146 38 106 22 l 57 0 l 835 0 l 854 247 l 826 247 b 796 156 818 211 808 179 b 535 29 756 76 657 29 b 371 60 464 29 408 32 b 326 172 338 79 326 118 l 326 490 b 442 481 372 490 411 486 b 561 332 519 464 561 422 l 586 332 l 586 675 l 561 675 b 326 519 561 546 460 519 z "},"ē":{"ha":642,"x_min":0,"x_max":0,"o":"m 381 19 b 182 306 244 19 182 164 b 189 375 182 324 185 361 l 556 375 b 590 397 581 375 590 376 b 363 606 590 543 508 606 b 238 582 318 606 276 599 b 54 290 132 535 54 440 b 349 -11 54 111 168 -15 b 586 104 476 -8 513 33 l 572 119 b 381 19 525 71 464 19 z m 468 433 b 467 415 468 428 468 421 b 400 403 461 397 426 403 l 193 403 b 349 581 211 500 253 582 b 468 433 442 579 468 506 z m 193 689 l 532 689 l 532 751 l 193 751 z "},"Ĕ":{"ha":910,"x_min":0,"x_max":0,"o":"m 472 1147 b 346 1204 415 1147 361 1165 l 300 1204 b 353 1101 303 1160 324 1124 b 474 1061 381 1076 425 1061 b 646 1204 567 1061 638 1118 l 600 1204 b 472 1147 585 1167 528 1147 z m 326 519 l 326 915 b 347 936 326 929 333 936 l 507 936 b 778 744 672 936 754 885 l 804 744 l 793 965 l 69 965 l 69 946 b 174 903 115 943 153 926 b 194 790 193 881 194 838 l 194 175 b 169 61 194 126 192 83 b 57 19 146 38 106 22 l 57 0 l 835 0 l 854 247 l 826 247 b 796 156 818 211 808 179 b 535 29 756 76 657 29 b 371 60 464 29 408 32 b 326 172 338 79 326 118 l 326 490 b 442 481 372 490 411 486 b 561 332 519 464 561 422 l 586 332 l 586 675 l 561 675 b 326 519 561 546 460 519 z "},"ĕ":{"ha":642,"x_min":0,"x_max":0,"o":"m 381 19 b 182 306 244 19 182 164 b 189 375 182 324 185 361 l 556 375 b 590 397 581 375 590 376 b 363 606 590 543 508 606 b 238 582 318 606 276 599 b 54 290 132 535 54 440 b 349 -11 54 111 168 -15 b 586 104 476 -8 513 33 l 572 119 b 381 19 525 71 464 19 z m 468 433 b 467 415 468 428 468 421 b 400 403 461 397 426 403 l 193 403 b 349 581 211 500 253 582 b 468 433 442 579 468 506 z m 361 775 b 236 851 303 775 249 804 l 189 851 b 364 689 196 756 263 689 b 536 851 463 689 531 757 l 489 851 b 361 775 476 806 421 775 z "},"Ė":{"ha":910,"x_min":0,"x_max":0,"o":"m 460 1061 b 529 1126 496 1061 529 1090 b 460 1196 529 1164 497 1196 b 394 1126 425 1196 394 1161 b 460 1061 394 1092 425 1061 z m 326 519 l 326 915 b 347 936 326 929 333 936 l 507 936 b 778 744 672 936 754 885 l 804 744 l 793 965 l 69 965 l 69 946 b 174 903 115 943 153 926 b 194 790 193 881 194 838 l 194 175 b 169 61 194 126 192 83 b 57 19 146 38 106 22 l 57 0 l 835 0 l 854 247 l 826 247 b 796 156 818 211 808 179 b 535 29 756 76 657 29 b 371 60 464 29 408 32 b 326 172 338 79 326 118 l 326 490 b 442 481 372 490 411 486 b 561 332 519 464 561 422 l 586 332 l 586 675 l 561 675 b 326 519 561 546 460 519 z "},"ė":{"ha":642,"x_min":0,"x_max":0,"o":"m 381 19 b 182 306 244 19 182 164 b 189 375 182 324 185 361 l 556 375 b 590 397 581 375 590 376 b 363 606 590 543 508 606 b 238 582 318 606 276 599 b 54 290 132 535 54 440 b 349 -11 54 111 168 -15 b 586 104 476 -8 513 33 l 572 119 b 381 19 525 71 464 19 z m 468 433 b 467 415 468 428 468 421 b 400 403 461 397 426 403 l 193 403 b 349 581 211 500 253 582 b 468 433 442 579 468 506 z m 363 689 b 440 767 406 689 440 724 b 363 844 440 808 404 844 b 285 767 321 844 285 808 b 363 689 285 724 319 689 z "},"Ę":{"ha":910,"x_min":0,"x_max":0,"o":"m 664 -162 b 706 -75 664 -125 683 -99 b 818 4 735 -42 778 -15 l 818 10 l 751 10 b 614 -78 693 -14 646 -43 b 565 -190 582 -112 565 -150 b 688 -297 565 -261 613 -297 b 889 -193 775 -297 842 -256 l 868 -174 b 797 -219 847 -196 818 -211 b 728 -236 775 -228 744 -236 b 664 -162 693 -236 664 -197 z m 326 519 l 326 915 b 347 936 326 929 333 936 l 507 936 b 778 744 672 936 754 885 l 804 744 l 793 965 l 69 965 l 69 946 b 174 903 115 943 153 926 b 194 790 193 881 194 838 l 194 175 b 169 61 194 126 192 83 b 57 19 146 38 106 22 l 57 0 l 835 0 l 854 247 l 826 247 b 796 156 818 211 808 179 b 535 29 756 76 657 29 b 371 60 464 29 408 32 b 326 172 338 79 326 118 l 326 490 b 442 481 372 490 411 486 b 561 332 519 464 561 422 l 586 332 l 586 675 l 561 675 b 326 519 561 546 460 519 z "},"ę":{"ha":642,"x_min":0,"x_max":0,"o":"m 268 -174 b 310 -86 268 -136 288 -110 b 422 -7 339 -54 382 -26 l 422 -1 l 356 -1 b 218 -89 297 -25 250 -54 b 169 -201 186 -124 169 -161 b 292 -308 169 -272 217 -308 b 493 -204 379 -308 446 -267 l 472 -185 b 401 -231 451 -207 422 -222 b 332 -247 379 -239 349 -247 b 268 -174 297 -247 268 -208 z m 381 19 b 182 306 244 19 182 164 b 189 375 182 324 185 361 l 556 375 b 590 397 581 375 590 376 b 363 606 590 543 508 606 b 238 582 318 606 276 599 b 54 290 132 535 54 440 b 349 -11 54 111 168 -15 b 586 104 476 -8 513 33 l 572 119 b 381 19 525 71 464 19 z m 468 433 b 467 415 468 428 468 421 b 400 403 461 397 426 403 l 193 403 b 349 581 211 500 253 582 b 468 433 442 579 468 506 z "},"Ě":{"ha":910,"x_min":0,"x_max":0,"o":"m 403 1061 l 542 1061 l 678 1197 l 622 1197 l 472 1131 l 325 1197 l 267 1197 z m 326 519 l 326 915 b 347 936 326 929 333 936 l 507 936 b 778 744 672 936 754 885 l 804 744 l 793 965 l 69 965 l 69 946 b 174 903 115 943 153 926 b 194 790 193 881 194 838 l 194 175 b 169 61 194 126 192 83 b 57 19 146 38 106 22 l 57 0 l 835 0 l 854 247 l 826 247 b 796 156 818 211 808 179 b 535 29 756 76 657 29 b 371 60 464 29 408 32 b 326 172 338 79 326 118 l 326 490 b 442 481 372 490 411 486 b 561 332 519 464 561 422 l 586 332 l 586 675 l 561 675 b 326 519 561 546 460 519 z "},"ě":{"ha":642,"x_min":0,"x_max":0,"o":"m 381 19 b 182 306 244 19 182 164 b 189 375 182 324 185 361 l 556 375 b 590 397 581 375 590 376 b 363 606 590 543 508 606 b 238 582 318 606 276 599 b 54 290 132 535 54 440 b 349 -11 54 111 168 -15 b 586 104 476 -8 513 33 l 572 119 b 381 19 525 71 464 19 z m 468 433 b 467 415 468 428 468 421 b 400 403 461 397 426 403 l 193 403 b 349 581 211 500 253 582 b 468 433 442 579 468 506 z m 306 689 l 419 689 l 568 850 l 511 850 l 363 765 l 214 850 l 157 850 z "},"Ĝ":{"ha":1090,"x_min":0,"x_max":0,"o":"m 625 1197 l 486 1197 l 350 1061 l 407 1061 l 556 1129 l 704 1061 l 761 1061 z m 556 978 b 208 836 403 978 286 919 b 75 467 131 750 75 626 b 200 118 75 317 122 196 b 536 -12 275 39 386 -12 b 763 32 685 -12 703 1 b 910 103 813 57 868 99 b 954 104 924 104 938 104 l 954 244 b 1057 379 954 319 985 379 l 1057 404 l 701 404 l 701 379 b 826 232 794 379 826 328 b 765 88 826 174 800 117 b 571 17 718 56 668 17 b 243 474 339 17 243 229 b 567 951 243 701 319 951 b 869 676 722 951 869 828 l 894 676 l 911 965 l 888 965 l 842 888 b 556 978 754 942 679 978 z "},"ĝ":{"ha":671,"x_min":0,"x_max":0,"o":"m 201 406 b 306 581 201 489 224 581 b 408 404 390 581 408 490 b 307 228 408 318 390 228 b 201 406 218 228 201 324 z m 622 513 b 667 554 647 513 667 528 b 594 606 667 589 643 606 b 539 593 576 606 557 601 b 472 547 521 583 499 568 b 304 606 432 582 375 606 b 146 550 239 606 179 583 b 83 408 110 517 83 475 b 153 258 83 340 114 293 b 199 231 168 247 181 236 l 199 225 b 85 118 143 215 85 179 b 301 0 85 7 200 15 b 357 -6 319 -3 339 -3 b 413 -15 376 -10 394 -12 b 515 -125 468 -24 515 -64 b 324 -267 515 -203 451 -267 b 136 -139 203 -267 136 -221 b 156 -78 136 -117 143 -96 b 204 -46 168 -60 185 -51 b 136 -22 185 -29 163 -22 b 97 -31 122 -22 111 -25 b 36 -135 63 -47 36 -82 b 114 -257 36 -193 74 -232 b 318 -292 165 -285 236 -292 b 610 -99 479 -292 610 -246 b 432 85 610 10 529 72 b 294 106 385 92 342 101 b 167 147 253 110 167 106 b 193 179 167 164 175 174 b 289 203 211 185 243 199 b 526 408 429 213 526 267 b 483 529 526 450 501 500 b 542 561 501 542 524 561 b 622 513 594 561 582 513 z m 367 850 l 253 850 l 106 689 l 161 689 l 311 774 l 458 689 l 517 689 z "},"Ğ":{"ha":1090,"x_min":0,"x_max":0,"o":"m 556 1147 b 428 1204 497 1147 443 1165 l 383 1204 b 436 1101 386 1160 406 1124 b 556 1061 463 1076 507 1061 b 728 1204 650 1061 721 1118 l 683 1204 b 556 1147 668 1167 611 1147 z m 556 978 b 208 836 403 978 286 919 b 75 467 131 750 75 626 b 200 118 75 317 122 196 b 536 -12 275 39 386 -12 b 763 32 685 -12 703 1 b 910 103 813 57 868 99 b 954 104 924 104 938 104 l 954 244 b 1057 379 954 319 985 379 l 1057 404 l 701 404 l 701 379 b 826 232 794 379 826 328 b 765 88 826 174 800 117 b 571 17 718 56 668 17 b 243 474 339 17 243 229 b 567 951 243 701 319 951 b 869 676 722 951 869 828 l 894 676 l 911 965 l 888 965 l 842 888 b 556 978 754 942 679 978 z "},"ğ":{"ha":671,"x_min":0,"x_max":0,"o":"m 201 406 b 306 581 201 489 224 581 b 408 404 390 581 408 490 b 307 228 408 318 390 228 b 201 406 218 228 201 324 z m 622 513 b 667 554 647 513 667 528 b 594 606 667 589 643 606 b 539 593 576 606 557 601 b 472 547 521 583 499 568 b 304 606 432 582 375 606 b 146 550 239 606 179 583 b 83 408 110 517 83 475 b 153 258 83 340 114 293 b 199 231 168 247 181 236 l 199 225 b 85 118 143 215 85 179 b 301 0 85 7 200 15 b 357 -6 319 -3 339 -3 b 413 -15 376 -10 394 -12 b 515 -125 468 -24 515 -64 b 324 -267 515 -203 451 -267 b 136 -139 203 -267 136 -221 b 156 -78 136 -117 143 -96 b 204 -46 168 -60 185 -51 b 136 -22 185 -29 163 -22 b 97 -31 122 -22 111 -25 b 36 -135 63 -47 36 -82 b 114 -257 36 -193 74 -232 b 318 -292 165 -285 236 -292 b 610 -99 479 -292 610 -246 b 432 85 610 10 529 72 b 294 106 385 92 342 101 b 167 147 253 110 167 106 b 193 179 167 164 175 174 b 289 203 211 185 243 199 b 526 408 429 213 526 267 b 483 529 526 450 501 500 b 542 561 501 542 524 561 b 622 513 594 561 582 513 z m 310 775 b 183 851 250 775 197 804 l 138 851 b 311 689 143 756 210 689 b 483 851 410 689 478 757 l 438 851 b 310 775 424 806 369 775 z "},"Ġ":{"ha":1090,"x_min":0,"x_max":0,"o":"m 553 1061 b 622 1126 590 1061 622 1090 b 553 1196 622 1164 590 1196 b 489 1126 518 1196 489 1161 b 553 1061 489 1092 519 1061 z m 556 978 b 208 836 403 978 286 919 b 75 467 131 750 75 626 b 200 118 75 317 122 196 b 536 -12 275 39 386 -12 b 763 32 685 -12 703 1 b 910 103 813 57 868 99 b 954 104 924 104 938 104 l 954 244 b 1057 379 954 319 985 379 l 1057 404 l 701 404 l 701 379 b 826 232 794 379 826 328 b 765 88 826 174 800 117 b 571 17 718 56 668 17 b 243 474 339 17 243 229 b 567 951 243 701 319 951 b 869 676 722 951 869 828 l 894 676 l 911 965 l 888 965 l 842 888 b 556 978 754 942 679 978 z "},"ġ":{"ha":671,"x_min":0,"x_max":0,"o":"m 201 406 b 306 581 201 489 224 581 b 408 404 390 581 408 490 b 307 228 408 318 390 228 b 201 406 218 228 201 324 z m 622 513 b 667 554 647 513 667 528 b 594 606 667 589 643 606 b 539 593 576 606 557 601 b 472 547 521 583 499 568 b 304 606 432 582 375 606 b 146 550 239 606 179 583 b 83 408 110 517 83 475 b 153 258 83 340 114 293 b 199 231 168 247 181 236 l 199 225 b 85 118 143 215 85 179 b 301 0 85 7 200 15 b 357 -6 319 -3 339 -3 b 413 -15 376 -10 394 -12 b 515 -125 468 -24 515 -64 b 324 -267 515 -203 451 -267 b 136 -139 203 -267 136 -221 b 156 -78 136 -117 143 -96 b 204 -46 168 -60 185 -51 b 136 -22 185 -29 163 -22 b 97 -31 122 -22 111 -25 b 36 -135 63 -47 36 -82 b 114 -257 36 -193 74 -232 b 318 -292 165 -285 236 -292 b 610 -99 479 -292 610 -246 b 432 85 610 10 529 72 b 294 106 385 92 342 101 b 167 147 253 110 167 106 b 193 179 167 164 175 174 b 289 203 211 185 243 199 b 526 408 429 213 526 267 b 483 529 526 450 501 500 b 542 561 501 542 524 561 b 622 513 594 561 582 513 z m 311 689 b 389 767 354 689 389 724 b 311 844 389 808 353 844 b 233 767 268 844 233 808 b 311 689 233 724 267 689 z "},"Ģ":{"ha":1090,"x_min":0,"x_max":0,"o":"m 536 -96 b 478 -157 503 -96 478 -122 b 483 -193 478 -164 478 -175 b 519 -371 493 -250 506 -314 l 556 -371 b 589 -193 568 -315 581 -251 b 594 -158 594 -178 594 -165 b 536 -96 594 -124 572 -96 z m 556 978 b 208 836 403 978 286 919 b 75 467 131 750 75 626 b 200 118 75 317 122 196 b 536 -12 275 39 386 -12 b 763 32 685 -12 703 1 b 910 103 813 57 868 99 b 954 104 924 104 938 104 l 954 244 b 1057 379 954 319 985 379 l 1057 404 l 701 404 l 701 379 b 826 232 794 379 826 328 b 765 88 826 174 800 117 b 571 17 718 56 668 17 b 243 474 339 17 243 229 b 567 951 243 701 319 951 b 869 676 722 951 869 828 l 894 676 l 911 965 l 888 965 l 842 888 b 556 978 754 942 679 978 z "},"ģ":{"ha":671,"x_min":0,"x_max":0,"o":"m 201 406 b 306 581 201 489 224 581 b 408 404 390 581 408 490 b 307 228 408 318 390 228 b 201 406 218 228 201 324 z m 622 513 b 667 554 647 513 667 528 b 594 606 667 589 643 606 b 539 593 576 606 557 601 b 472 547 521 583 499 568 b 304 606 432 582 375 606 b 146 550 239 606 179 583 b 83 408 110 517 83 475 b 153 258 83 340 114 293 b 199 231 168 247 181 236 l 199 225 b 85 118 143 215 85 179 b 301 0 85 7 200 15 b 357 -6 319 -3 339 -3 b 413 -15 376 -10 394 -12 b 515 -125 468 -24 515 -64 b 324 -267 515 -203 451 -267 b 136 -139 203 -267 136 -221 b 156 -78 136 -117 143 -96 b 204 -46 168 -60 185 -51 b 136 -22 185 -29 163 -22 b 97 -31 122 -22 111 -25 b 36 -135 63 -47 36 -82 b 114 -257 36 -193 74 -232 b 318 -292 165 -285 236 -292 b 610 -99 479 -292 610 -246 b 432 85 610 10 529 72 b 294 106 385 92 342 101 b 167 147 253 110 167 106 b 193 179 167 164 175 174 b 289 203 211 185 243 199 b 526 408 429 213 526 267 b 483 529 526 450 501 500 b 542 561 501 542 524 561 b 622 513 594 561 582 513 z m 300 932 b 242 871 267 932 242 906 b 247 835 242 864 242 853 b 283 657 257 778 269 714 l 319 657 b 353 835 332 713 344 776 b 358 869 358 850 358 863 b 300 932 358 904 336 932 z "},"Ĥ":{"ha":1158,"x_min":0,"x_max":0,"o":"m 649 1197 l 510 1197 l 374 1061 l 431 1061 l 579 1129 l 728 1061 l 785 1061 z m 965 186 l 965 779 b 971 857 965 811 967 838 b 988 901 974 876 979 889 b 1089 946 1006 926 1046 943 l 1089 965 l 708 965 l 708 946 b 813 901 754 943 792 925 b 833 789 831 875 833 842 l 833 510 l 326 510 l 326 779 b 331 857 326 811 326 838 b 450 946 339 919 379 942 l 450 965 l 69 965 l 69 946 b 174 901 115 943 153 925 b 194 789 193 879 194 836 l 194 176 b 169 63 194 128 192 85 b 57 19 146 39 106 22 l 57 0 l 463 0 l 463 19 b 372 40 433 21 399 26 b 326 186 331 63 326 107 l 326 478 l 833 478 l 833 176 b 829 106 833 147 833 125 b 696 19 815 44 769 24 l 696 0 l 1101 0 l 1101 19 b 1031 38 1072 21 1056 22 b 965 186 985 67 965 108 z "},"ĥ":{"ha":769,"x_min":0,"x_max":0,"o":"m 233 156 l 233 388 b 253 467 233 419 238 446 b 424 574 285 511 342 574 b 543 313 529 574 543 449 l 543 147 b 540 79 543 118 542 97 b 449 17 532 25 508 21 l 449 0 l 746 0 l 746 17 b 696 22 725 18 708 18 b 654 156 651 38 654 92 l 654 358 b 617 539 654 443 647 494 b 456 606 583 576 526 606 b 236 489 358 606 281 550 l 231 489 l 231 1021 l 25 979 l 25 960 b 108 918 58 960 99 939 b 115 896 114 913 114 904 b 121 836 119 882 119 863 b 124 731 124 810 124 774 l 124 147 b 108 40 124 101 124 64 b 28 17 94 19 64 19 l 28 0 l 325 0 l 325 17 b 275 22 304 18 288 18 b 233 156 228 38 233 90 z m 442 1265 l 328 1265 l 181 1104 l 236 1104 l 386 1189 l 533 1104 l 592 1104 z "},"Ħ":{"ha":1158,"x_min":0,"x_max":0,"o":"m 96 725 l 96 692 l 1065 692 l 1065 725 z m 965 186 l 965 779 b 971 857 965 811 967 838 b 988 901 974 876 979 889 b 1089 946 1006 926 1046 943 l 1089 965 l 708 965 l 708 946 b 813 901 754 943 792 925 b 833 789 831 875 833 842 l 833 510 l 326 510 l 326 779 b 331 857 326 811 326 838 b 450 946 339 919 379 942 l 450 965 l 69 965 l 69 946 b 174 901 115 943 153 925 b 194 789 193 879 194 836 l 194 176 b 169 63 194 128 192 85 b 57 19 146 39 106 22 l 57 0 l 463 0 l 463 19 b 372 40 433 21 399 26 b 326 186 331 63 326 107 l 326 478 l 833 478 l 833 176 b 829 106 833 147 833 125 b 696 19 815 44 769 24 l 696 0 l 1101 0 l 1101 19 b 1031 38 1072 21 1056 22 b 965 186 985 67 965 108 z "},"ħ":{"ha":769,"x_min":0,"x_max":0,"o":"m 233 156 l 233 388 b 253 467 233 419 238 446 b 424 574 285 511 342 574 b 543 313 529 574 543 449 l 543 147 b 540 79 543 118 542 97 b 449 17 532 25 508 21 l 449 0 l 746 0 l 746 17 b 696 22 725 18 708 18 b 654 156 651 38 654 92 l 654 358 b 617 539 654 443 647 494 b 456 606 583 576 526 606 b 236 489 358 606 281 550 l 231 489 l 231 1021 l 25 979 l 25 960 b 108 918 58 960 99 939 b 115 896 114 913 114 904 b 121 836 119 882 119 863 b 124 731 124 810 124 774 l 124 147 b 108 40 124 101 124 64 b 28 17 94 19 64 19 l 28 0 l 325 0 l 325 17 b 275 22 304 18 288 18 b 233 156 228 38 233 90 z m 26 744 l 26 711 l 339 711 l 339 744 z "},"Ĩ":{"ha":519,"x_min":0,"x_max":0,"o":"m 349 1061 b 474 1210 419 1061 467 1138 l 432 1210 b 374 1157 421 1178 411 1157 b 276 1186 333 1157 307 1175 b 179 1214 249 1199 215 1214 b 46 1072 103 1214 57 1144 l 89 1072 b 144 1122 100 1106 106 1122 b 349 1061 221 1122 272 1061 z m 326 210 l 326 756 b 331 849 326 793 326 825 b 349 906 333 872 340 892 b 450 946 365 933 404 943 l 450 965 l 69 965 l 69 946 b 174 907 117 943 154 935 b 194 765 193 874 194 824 l 194 200 b 169 54 194 136 194 86 b 57 19 147 26 108 22 l 57 0 l 463 0 l 463 19 b 351 54 414 22 369 24 b 326 210 325 92 326 138 z "},"ĩ":{"ha":381,"x_min":0,"x_max":0,"o":"m 256 156 l 256 606 l 36 563 l 36 543 b 113 514 74 543 96 531 b 146 314 140 486 146 460 l 146 147 b 142 82 146 121 146 100 b 39 17 133 28 99 21 l 39 0 l 361 0 l 361 17 b 306 22 339 18 319 18 b 256 156 257 36 256 89 z m 289 689 b 414 838 360 689 407 765 l 372 838 b 314 785 361 806 351 785 b 119 843 238 785 196 843 b -14 700 43 843 -3 772 l 29 700 b 85 750 42 735 44 750 b 289 689 163 750 211 689 z "},"Ī":{"ha":519,"x_min":0,"x_max":0,"o":"m 90 1061 l 429 1061 l 429 1124 l 90 1124 z m 326 210 l 326 756 b 331 849 326 793 326 825 b 349 906 333 872 340 892 b 450 946 365 933 404 943 l 450 965 l 69 965 l 69 946 b 174 907 117 943 154 935 b 194 765 193 874 194 824 l 194 200 b 169 54 194 136 194 86 b 57 19 147 26 108 22 l 57 0 l 463 0 l 463 19 b 351 54 414 22 369 24 b 326 210 325 92 326 138 z "},"ī":{"ha":381,"x_min":0,"x_max":0,"o":"m 256 156 l 256 606 l 36 563 l 36 543 b 113 514 74 543 96 531 b 146 314 140 486 146 460 l 146 147 b 142 82 146 121 146 100 b 39 17 133 28 99 21 l 39 0 l 361 0 l 361 17 b 306 22 339 18 319 18 b 256 156 257 36 256 89 z m 31 689 l 369 689 l 369 751 l 31 751 z "},"Ĭ":{"ha":519,"x_min":0,"x_max":0,"o":"m 258 1147 b 133 1204 201 1147 147 1165 l 86 1204 b 139 1101 90 1160 110 1124 b 261 1061 167 1076 211 1061 b 433 1204 354 1061 425 1118 l 386 1204 b 258 1147 372 1167 315 1147 z m 326 210 l 326 756 b 331 849 326 793 326 825 b 349 906 333 872 340 892 b 450 946 365 933 404 943 l 450 965 l 69 965 l 69 946 b 174 907 117 943 154 935 b 194 765 193 874 194 824 l 194 200 b 169 54 194 136 194 86 b 57 19 147 26 108 22 l 57 0 l 463 0 l 463 19 b 351 54 414 22 369 24 b 326 210 325 92 326 138 z "},"ĭ":{"ha":381,"x_min":0,"x_max":0,"o":"m 256 156 l 256 606 l 36 563 l 36 543 b 113 514 74 543 96 531 b 146 314 140 486 146 460 l 146 147 b 142 82 146 121 146 100 b 39 17 133 28 99 21 l 39 0 l 361 0 l 361 17 b 306 22 339 18 319 18 b 256 156 257 36 256 89 z m 200 775 b 72 851 140 775 86 804 l 28 851 b 200 689 33 756 100 689 b 372 851 300 689 368 757 l 328 851 b 200 775 314 806 258 775 z "},"Į":{"ha":519,"x_min":0,"x_max":0,"o":"m 264 -162 b 306 -75 264 -125 283 -99 b 418 4 335 -42 378 -15 l 418 10 l 351 10 b 214 -78 293 -14 246 -43 b 165 -190 182 -112 165 -150 b 288 -297 165 -261 213 -297 b 489 -193 375 -297 442 -256 l 468 -174 b 397 -219 447 -196 418 -211 b 328 -236 375 -228 344 -236 b 264 -162 293 -236 264 -197 z m 326 210 l 326 756 b 331 849 326 793 326 825 b 349 906 333 872 340 892 b 450 946 365 933 404 943 l 450 965 l 69 965 l 69 946 b 174 907 117 943 154 935 b 194 765 193 874 194 824 l 194 200 b 169 54 194 136 194 86 b 57 19 147 26 108 22 l 57 0 l 463 0 l 463 19 b 351 54 414 22 369 24 b 326 210 325 92 326 138 z "},"į":{"ha":381,"x_min":0,"x_max":0,"o":"m 149 -162 b 190 -75 149 -125 168 -99 b 303 4 219 -42 263 -15 l 303 10 l 236 10 b 99 -78 178 -14 131 -43 b 50 -190 67 -112 50 -150 b 172 -297 50 -261 97 -297 b 374 -193 260 -297 326 -256 l 353 -174 b 282 -219 332 -196 303 -211 b 213 -236 260 -228 229 -236 b 149 -162 178 -236 149 -197 z m 256 156 l 256 606 l 36 563 l 36 543 b 113 514 74 543 96 531 b 146 314 140 486 146 460 l 146 147 b 142 82 146 121 146 100 b 39 17 133 28 99 21 l 39 0 l 361 0 l 361 17 b 306 22 339 18 319 18 b 256 156 257 36 256 89 z m 196 764 b 267 835 233 764 267 797 b 196 904 267 871 232 904 b 126 835 161 904 126 869 b 196 764 126 797 158 764 z "},"İ":{"ha":519,"x_min":0,"x_max":0,"o":"m 258 1061 b 328 1126 294 1061 328 1090 b 258 1196 328 1164 294 1196 b 192 1126 222 1196 192 1161 b 258 1061 192 1092 224 1061 z m 326 210 l 326 756 b 331 849 326 793 326 825 b 349 906 333 872 340 892 b 450 946 365 933 404 943 l 450 965 l 69 965 l 69 946 b 174 907 117 943 154 935 b 194 765 193 874 194 824 l 194 200 b 169 54 194 136 194 86 b 57 19 147 26 108 22 l 57 0 l 463 0 l 463 19 b 351 54 414 22 369 24 b 326 210 325 92 326 138 z "},"ı":{"ha":381,"x_min":0,"x_max":0,"o":"m 256 156 l 256 606 l 36 563 l 36 543 b 113 514 74 543 96 531 b 146 314 140 486 146 460 l 146 147 b 142 82 146 121 146 100 b 39 17 133 28 99 21 l 39 0 l 361 0 l 361 17 b 306 22 339 18 319 18 b 256 156 257 36 256 89 z "},"Ĳ":{"ha":1013,"x_min":0,"x_max":0,"o":"m 446 -137 b 382 -204 404 -137 382 -162 b 572 -326 382 -282 493 -326 b 833 -3 756 -326 833 -196 l 833 793 b 838 871 833 825 833 851 b 957 946 846 933 886 942 l 957 965 l 576 965 l 576 946 b 681 915 622 943 660 939 b 701 803 699 890 701 853 l 701 -54 b 682 -239 701 -122 701 -203 b 601 -293 663 -275 635 -293 b 446 -137 508 -293 546 -137 z m 326 210 l 326 756 b 331 849 326 793 326 825 b 349 906 333 872 340 892 b 450 946 365 933 404 943 l 450 965 l 69 965 l 69 946 b 174 907 117 943 154 935 b 194 765 193 874 194 824 l 194 200 b 169 54 194 136 194 86 b 57 19 147 26 108 22 l 57 0 l 463 0 l 463 19 b 351 54 414 22 369 24 b 326 210 325 92 326 138 z "},"ĳ":{"ha":721,"x_min":0,"x_max":0,"o":"m 419 -264 b 342 -187 376 -264 358 -225 b 315 -144 331 -165 321 -150 b 283 -135 308 -139 297 -135 b 226 -187 250 -135 226 -153 b 389 -292 226 -244 310 -292 b 619 -3 551 -292 619 -172 l 619 606 l 399 563 l 399 543 b 476 514 436 543 464 524 b 510 314 507 490 510 463 l 510 -76 b 419 -264 510 -179 508 -264 z m 563 764 b 632 835 600 764 632 797 b 563 904 632 869 597 904 b 493 835 528 904 493 869 b 563 764 493 797 525 764 z m 256 156 l 256 606 l 36 563 l 36 543 b 113 514 74 543 96 531 b 146 314 140 486 146 460 l 146 147 b 142 82 146 121 146 100 b 39 17 133 28 99 21 l 39 0 l 361 0 l 361 17 b 306 22 339 18 319 18 b 256 156 257 36 256 89 z m 196 764 b 267 835 233 764 267 797 b 196 904 267 871 232 904 b 126 835 161 904 126 869 b 196 764 126 797 158 764 z "},"Ĵ":{"ha":493,"x_min":0,"x_max":0,"o":"m 317 1197 l 178 1197 l 42 1061 l 99 1061 l 247 1129 l 396 1061 l 453 1061 z m -74 -137 b -137 -204 -115 -137 -137 -162 b 53 -326 -137 -282 -26 -326 b 314 -3 236 -326 314 -196 l 314 793 b 318 871 314 825 314 851 b 438 946 326 933 367 942 l 438 965 l 57 965 l 57 946 b 161 915 103 943 140 939 b 182 803 179 890 182 853 l 182 -54 b 163 -239 182 -122 182 -203 b 82 -293 143 -275 115 -293 b -74 -137 -11 -293 26 -137 z "},"ĵ":{"ha":340,"x_min":0,"x_max":0,"o":"m 39 -264 b -39 -187 -4 -264 -22 -225 b -65 -144 -50 -165 -60 -150 b -97 -135 -72 -139 -83 -135 b -154 -187 -131 -135 -154 -153 b 8 -292 -154 -244 -71 -292 b 239 -3 171 -292 239 -172 l 239 606 l 18 563 l 18 543 b 96 514 56 543 83 524 b 129 314 126 490 129 463 l 129 -76 b 39 -264 129 -179 128 -264 z m 240 850 l 126 850 l -22 689 l 35 689 l 183 774 l 332 689 l 389 689 z "},"Ķ":{"ha":976,"x_min":0,"x_max":0,"o":"m 525 -83 b 467 -144 492 -83 467 -110 b 472 -181 467 -151 467 -162 b 508 -358 482 -237 494 -301 l 544 -358 b 578 -181 557 -303 569 -239 b 583 -146 583 -165 583 -153 b 525 -83 583 -111 561 -83 z m 326 172 l 326 388 l 400 475 l 657 129 b 689 82 672 110 682 94 b 700 54 696 69 700 61 b 678 28 700 43 692 35 b 608 19 664 22 640 19 l 608 0 l 993 0 l 993 19 b 860 85 922 19 897 43 l 494 588 l 729 882 b 894 947 775 931 806 947 l 894 965 l 593 965 l 593 946 b 683 886 661 944 683 910 b 658 838 683 875 675 858 l 326 435 l 326 792 b 351 918 326 850 326 890 b 450 946 369 942 407 946 l 450 965 l 69 965 l 69 946 b 188 876 138 946 171 932 b 194 801 193 858 194 833 l 194 163 b 189 90 194 133 193 110 b 57 19 175 29 133 19 l 57 0 l 463 0 l 463 19 b 351 47 413 19 372 24 b 326 172 328 75 326 115 z "},"ķ":{"ha":690,"x_min":0,"x_max":0,"o":"m 353 -83 b 292 -144 318 -83 292 -110 b 297 -181 292 -151 294 -162 b 333 -358 308 -237 321 -301 l 369 -358 b 406 -181 383 -303 396 -239 b 411 -146 408 -165 411 -153 b 353 -83 411 -111 388 -83 z m 438 526 b 413 474 438 519 431 492 b 338 400 394 456 371 433 l 233 304 l 233 1021 l 18 979 l 18 960 b 83 938 44 960 71 949 b 126 731 121 904 126 882 l 126 147 b 106 42 126 101 125 64 b 18 17 92 18 56 19 l 18 0 l 338 0 l 338 17 b 282 22 315 18 297 18 b 233 156 235 36 233 90 l 233 267 l 265 294 l 399 131 b 444 79 417 110 433 93 b 460 43 457 64 460 58 b 390 17 460 25 419 17 l 390 0 l 685 0 l 685 17 b 622 29 657 17 639 15 b 594 46 614 35 603 40 b 567 76 588 54 578 64 l 332 357 l 500 518 b 536 547 514 531 528 540 b 639 575 561 567 592 575 l 639 594 l 347 594 l 347 575 b 438 526 396 575 439 557 z "},"ĸ":{"ha":690,"x_min":0,"x_max":0,"o":"m 438 526 b 413 474 438 519 431 492 b 338 400 394 456 371 433 l 233 304 l 233 608 l 18 567 l 18 547 b 83 525 44 547 71 536 b 126 318 121 492 126 469 l 126 147 b 106 42 126 101 125 64 b 18 17 92 18 56 19 l 18 0 l 338 0 l 338 17 b 282 22 315 18 297 18 b 233 156 235 36 233 90 l 233 267 l 265 294 l 399 131 b 444 79 417 110 433 93 b 460 43 457 64 460 58 b 390 17 460 25 419 17 l 390 0 l 685 0 l 685 17 b 622 29 657 17 639 15 b 594 46 614 35 603 40 b 567 76 588 54 578 64 l 332 357 l 500 518 b 536 547 514 531 528 540 b 639 575 561 567 592 575 l 639 594 l 347 594 l 347 575 b 438 526 396 575 439 557 z "},"Ĺ":{"ha":911,"x_min":0,"x_max":0,"o":"m 494 1199 b 446 1189 478 1199 461 1196 b 385 1158 429 1182 408 1172 l 222 1061 l 297 1061 l 449 1096 b 515 1122 478 1103 499 1113 b 542 1156 533 1131 542 1142 b 494 1199 542 1183 522 1199 z m 867 0 l 885 247 l 860 247 b 753 79 844 175 800 114 b 549 29 700 50 636 29 b 442 35 504 29 471 31 b 326 175 354 51 326 71 l 326 793 b 331 871 326 825 326 851 b 450 946 339 933 379 942 l 450 965 l 69 965 l 69 946 b 174 915 115 943 153 939 b 194 803 193 893 194 850 l 194 163 b 169 49 194 114 192 71 b 57 19 146 25 106 22 l 57 0 z "},"ĺ":{"ha":364,"x_min":0,"x_max":0,"o":"m 314 1199 b 265 1189 297 1199 281 1196 b 204 1158 249 1182 228 1172 l 42 1061 l 117 1061 l 268 1096 b 335 1122 297 1103 318 1113 b 361 1156 353 1131 361 1142 b 314 1199 361 1183 342 1199 z m 235 151 l 235 1021 l 22 981 l 22 961 b 97 925 40 960 72 950 b 131 742 119 903 131 896 l 131 143 b 125 79 131 117 129 97 b 25 17 117 26 85 21 l 25 0 l 335 0 l 335 17 b 282 22 314 18 294 18 b 235 151 235 36 235 86 z "},"Ļ":{"ha":911,"x_min":0,"x_max":0,"o":"m 518 -83 b 458 -144 483 -83 458 -110 b 464 -181 458 -151 460 -162 b 500 -358 475 -237 486 -301 l 536 -358 b 571 -181 549 -303 563 -239 b 576 -146 575 -165 576 -153 b 518 -83 576 -111 553 -83 z m 867 0 l 885 247 l 860 247 b 753 79 844 175 800 114 b 549 29 700 50 636 29 b 442 35 504 29 471 31 b 326 175 354 51 326 71 l 326 793 b 331 871 326 825 326 851 b 450 946 339 933 379 942 l 450 965 l 69 965 l 69 946 b 174 915 115 943 153 939 b 194 803 193 893 194 850 l 194 163 b 169 49 194 114 192 71 b 57 19 146 25 106 22 l 57 0 z "},"ļ":{"ha":364,"x_min":0,"x_max":0,"o":"m 181 -83 b 121 -144 146 -83 121 -110 b 126 -181 121 -151 122 -162 b 163 -358 138 -237 149 -301 l 199 -358 b 233 -181 211 -303 225 -239 b 239 -146 238 -165 239 -153 b 181 -83 239 -111 215 -83 z m 235 151 l 235 1021 l 22 981 l 22 961 b 97 925 40 960 72 950 b 131 742 119 903 131 896 l 131 143 b 125 79 131 117 129 97 b 25 17 117 26 85 21 l 25 0 l 335 0 l 335 17 b 282 22 314 18 294 18 b 235 151 235 36 235 86 z "},"Ľ":{"ha":911,"x_min":0,"x_max":0,"o":"m 625 978 b 565 917 590 978 565 951 b 571 881 565 910 567 899 b 607 703 582 824 593 760 l 643 703 b 678 881 656 758 669 822 b 683 915 682 896 683 908 b 625 978 683 950 660 978 z m 867 0 l 885 247 l 860 247 b 753 79 844 175 800 114 b 549 29 700 50 636 29 b 442 35 504 29 471 31 b 326 175 354 51 326 71 l 326 793 b 331 871 326 825 326 851 b 450 946 339 933 379 942 l 450 965 l 69 965 l 69 946 b 174 915 115 943 153 939 b 194 803 193 893 194 850 l 194 163 b 169 49 194 114 192 71 b 57 19 146 25 106 22 l 57 0 z "},"ľ":{"ha":364,"x_min":0,"x_max":0,"o":"m 367 1021 b 307 960 332 1021 307 994 b 313 924 307 953 308 942 b 349 746 324 867 335 803 l 385 746 b 419 924 397 801 411 865 b 425 958 424 939 425 951 b 367 1021 425 993 401 1021 z m 235 151 l 235 1021 l 22 981 l 22 961 b 97 925 40 960 72 950 b 131 742 119 903 131 896 l 131 143 b 125 79 131 117 129 97 b 25 17 117 26 85 21 l 25 0 l 335 0 l 335 17 b 282 22 314 18 294 18 b 235 151 235 36 235 86 z "},"Ŀ":{"ha":911,"x_min":0,"x_max":0,"o":"m 553 407 b 636 488 599 407 636 442 b 553 571 636 535 600 571 b 472 488 507 571 472 533 b 553 407 472 443 508 407 z m 867 0 l 885 247 l 860 247 b 753 79 844 175 800 114 b 549 29 700 50 636 29 b 442 35 504 29 471 31 b 326 175 354 51 326 71 l 326 793 b 331 871 326 825 326 851 b 450 946 339 933 379 942 l 450 965 l 69 965 l 69 946 b 174 915 115 943 153 939 b 194 803 193 893 194 850 l 194 163 b 169 49 194 114 192 71 b 57 19 146 25 106 22 l 57 0 z "},"ŀ":{"ha":540,"x_min":0,"x_max":0,"o":"m 417 415 b 500 496 463 415 500 450 b 417 579 500 543 464 579 b 336 496 371 579 336 542 b 417 415 336 451 372 415 z m 235 151 l 235 1021 l 22 981 l 22 961 b 97 925 40 960 72 950 b 131 742 119 903 131 896 l 131 143 b 125 79 131 117 129 97 b 25 17 117 26 85 21 l 25 0 l 335 0 l 335 17 b 282 22 314 18 294 18 b 235 151 235 36 235 86 z "},"Ł":{"ha":911,"x_min":0,"x_max":0,"o":"m 83 410 l 83 369 l 494 624 l 494 664 z m 867 0 l 885 247 l 860 247 b 753 79 844 175 800 114 b 549 29 700 50 636 29 b 442 35 504 29 471 31 b 326 175 354 51 326 71 l 326 793 b 331 871 326 825 326 851 b 450 946 339 933 379 942 l 450 965 l 69 965 l 69 946 b 174 915 115 943 153 939 b 194 803 193 893 194 850 l 194 163 b 169 49 194 114 192 71 b 57 19 146 25 106 22 l 57 0 z "},"ł":{"ha":364,"x_min":0,"x_max":0,"o":"m 42 400 l 42 360 l 325 536 l 325 576 z m 235 151 l 235 1021 l 22 981 l 22 961 b 97 925 40 960 72 950 b 131 742 119 903 131 896 l 131 143 b 125 79 131 117 129 97 b 25 17 117 26 85 21 l 25 0 l 335 0 l 335 17 b 282 22 314 18 294 18 b 235 151 235 36 235 86 z "},"Ń":{"ha":1114,"x_min":0,"x_max":0,"o":"m 803 1199 b 754 1189 786 1199 769 1196 b 693 1158 738 1182 717 1172 l 531 1061 l 606 1061 l 757 1096 b 824 1122 786 1103 807 1113 b 850 1156 842 1131 850 1142 b 803 1199 850 1183 831 1199 z m 861 -12 l 913 -12 l 913 751 b 917 844 913 790 913 821 b 1067 946 929 915 985 942 l 1067 965 l 746 965 l 746 946 b 858 897 792 943 843 926 b 883 742 882 858 883 811 l 883 235 l 864 235 l 308 965 l 69 965 l 69 946 b 174 893 117 943 154 921 b 207 751 193 860 207 810 l 207 200 b 169 54 207 136 194 86 b 57 19 147 26 108 22 l 57 0 l 385 0 l 385 19 b 319 28 358 21 338 24 b 236 210 258 44 236 124 l 236 786 l 254 786 z "},"ń":{"ha":771,"x_min":0,"x_max":0,"o":"m 239 492 l 235 492 l 219 606 l 40 563 l 40 543 b 101 519 58 542 85 536 b 136 338 128 493 136 479 l 136 146 b 133 78 136 117 136 96 b 42 17 129 25 96 21 l 42 0 l 336 0 l 336 17 b 285 22 315 18 297 18 b 243 154 236 39 243 88 l 243 347 b 263 467 243 399 243 433 b 435 574 292 518 360 574 b 549 317 553 574 549 439 l 549 146 b 546 78 549 117 549 96 b 456 17 542 25 511 21 l 456 0 l 746 0 l 746 17 b 697 22 726 18 708 18 b 656 154 650 36 656 90 l 656 363 b 621 543 656 444 651 500 b 461 606 589 581 531 606 b 239 492 360 606 289 551 z m 611 879 b 526 838 585 879 557 865 l 364 689 l 422 689 l 594 769 b 642 800 614 778 629 789 b 658 835 651 810 658 821 b 611 879 658 863 640 879 z "},"Ņ":{"ha":1114,"x_min":0,"x_max":0,"o":"m 568 -96 b 508 -157 533 -96 508 -122 b 514 -193 508 -164 510 -175 b 550 -371 525 -250 536 -314 l 586 -371 b 621 -193 599 -315 613 -251 b 626 -158 625 -178 626 -165 b 568 -96 626 -124 603 -96 z m 861 -12 l 913 -12 l 913 751 b 917 844 913 790 913 821 b 1067 946 929 915 985 942 l 1067 965 l 746 965 l 746 946 b 858 897 792 943 843 926 b 883 742 882 858 883 811 l 883 235 l 864 235 l 308 965 l 69 965 l 69 946 b 174 893 117 943 154 921 b 207 751 193 860 207 810 l 207 200 b 169 54 207 136 194 86 b 57 19 147 26 108 22 l 57 0 l 385 0 l 385 19 b 319 28 358 21 338 24 b 236 210 258 44 236 124 l 236 786 l 254 786 z "},"ņ":{"ha":771,"x_min":0,"x_max":0,"o":"m 394 -83 b 335 -144 360 -83 335 -110 b 340 -181 335 -151 336 -162 b 376 -358 351 -237 363 -301 l 413 -358 b 447 -181 425 -303 439 -239 b 453 -146 451 -165 453 -153 b 394 -83 453 -111 429 -83 z m 239 492 l 235 492 l 219 606 l 40 563 l 40 543 b 101 519 58 542 85 536 b 136 338 128 493 136 479 l 136 146 b 133 78 136 117 136 96 b 42 17 129 25 96 21 l 42 0 l 336 0 l 336 17 b 285 22 315 18 297 18 b 243 154 236 39 243 88 l 243 347 b 263 467 243 399 243 433 b 435 574 292 518 360 574 b 549 317 553 574 549 439 l 549 146 b 546 78 549 117 549 96 b 456 17 542 25 511 21 l 456 0 l 746 0 l 746 17 b 697 22 726 18 708 18 b 656 154 650 36 656 90 l 656 363 b 621 543 656 444 651 500 b 461 606 589 581 531 606 b 239 492 360 606 289 551 z "},"Ň":{"ha":1114,"x_min":0,"x_max":0,"o":"m 499 1061 l 638 1061 l 774 1197 l 717 1197 l 568 1131 l 419 1197 l 363 1197 z m 861 -12 l 913 -12 l 913 751 b 917 844 913 790 913 821 b 1067 946 929 915 985 942 l 1067 965 l 746 965 l 746 946 b 858 897 792 943 843 926 b 883 742 882 858 883 811 l 883 235 l 864 235 l 308 965 l 69 965 l 69 946 b 174 893 117 943 154 921 b 207 751 193 860 207 810 l 207 200 b 169 54 207 136 194 86 b 57 19 147 26 108 22 l 57 0 l 385 0 l 385 19 b 319 28 358 21 338 24 b 236 210 258 44 236 124 l 236 786 l 254 786 z "},"ň":{"ha":771,"x_min":0,"x_max":0,"o":"m 336 717 l 450 717 l 599 878 l 542 878 l 393 793 l 244 878 l 188 878 z m 239 492 l 235 492 l 219 606 l 40 563 l 40 543 b 101 519 58 542 85 536 b 136 338 128 493 136 479 l 136 146 b 133 78 136 117 136 96 b 42 17 129 25 96 21 l 42 0 l 336 0 l 336 17 b 285 22 315 18 297 18 b 243 154 236 39 243 88 l 243 347 b 263 467 243 399 243 433 b 435 574 292 518 360 574 b 549 317 553 574 549 439 l 549 146 b 546 78 549 117 549 96 b 456 17 542 25 511 21 l 456 0 l 746 0 l 746 17 b 697 22 726 18 708 18 b 656 154 650 36 656 90 l 656 363 b 621 543 656 444 651 500 b 461 606 589 581 531 606 b 239 492 360 606 289 551 z "},"ŉ":{"ha":819,"x_min":0,"x_max":0,"o":"m 288 492 l 283 492 l 268 606 l 89 563 l 89 543 b 150 519 107 542 133 536 b 185 338 176 493 185 479 l 185 146 b 182 78 185 117 185 96 b 90 17 178 25 144 21 l 90 0 l 385 0 l 385 17 b 333 22 364 18 346 18 b 292 154 285 39 292 88 l 292 347 b 311 467 292 399 292 433 b 483 574 340 518 408 574 b 597 317 601 574 597 439 l 597 146 b 594 78 597 117 597 96 b 504 17 590 25 560 21 l 504 0 l 794 0 l 794 17 b 746 22 775 18 757 18 b 704 154 699 36 704 90 l 704 363 b 669 543 704 444 700 500 b 510 606 638 581 579 606 b 288 492 408 606 338 551 z m 122 1040 b 63 979 88 1040 63 1014 b 68 943 63 972 64 961 b 104 765 79 886 90 822 l 140 765 b 175 943 153 821 167 885 b 181 978 179 958 181 971 b 122 1040 181 1013 157 1040 z "},"Ŋ":{"ha":1131,"x_min":0,"x_max":0,"o":"m 903 -14 l 901 -54 b 721 -301 897 -194 836 -301 b 565 -139 639 -301 651 -139 b 494 -204 524 -139 494 -162 b 685 -326 494 -289 589 -326 b 929 -12 889 -326 929 -182 l 929 751 b 933 844 929 790 929 821 b 1083 946 946 915 1001 942 l 1083 965 l 763 965 l 763 946 b 875 897 808 943 860 926 b 900 742 899 858 900 811 l 900 235 l 897 235 l 325 965 l 86 965 l 86 946 b 190 893 133 943 171 921 b 224 751 210 860 224 810 l 224 200 b 186 54 224 136 211 86 b 74 19 164 26 125 22 l 74 0 l 401 0 l 401 19 b 336 28 375 21 354 24 b 253 210 275 44 253 124 l 253 786 l 264 786 z "},"ŋ":{"ha":744,"x_min":0,"x_max":0,"o":"m 549 317 l 549 -76 b 525 -219 549 -139 542 -194 b 449 -262 510 -244 485 -262 b 408 -251 431 -262 417 -258 b 378 -187 400 -244 388 -210 b 350 -144 367 -165 357 -150 b 319 -135 344 -139 333 -135 b 263 -187 285 -135 263 -153 b 425 -292 263 -261 346 -292 b 656 -3 588 -292 656 -174 l 656 363 b 621 543 656 446 651 500 b 461 606 590 581 531 606 b 236 494 358 606 286 556 l 232 494 l 219 606 l 40 563 l 40 543 b 79 538 58 540 69 542 b 121 507 100 529 111 519 b 136 317 138 465 136 431 l 136 149 b 133 81 136 119 136 99 b 42 19 129 28 97 22 l 42 0 l 336 0 l 336 19 b 285 25 315 21 297 21 b 243 157 236 39 243 92 l 243 354 b 254 453 243 393 239 428 b 429 576 279 517 360 576 b 549 317 575 576 549 440 z "},"Ō":{"ha":1185,"x_min":0,"x_max":0,"o":"m 424 1061 l 763 1061 l 763 1124 l 424 1124 z m 593 978 b 222 832 433 978 307 914 b 71 475 139 751 71 632 b 224 131 71 324 140 208 b 593 -12 307 50 386 -12 b 963 131 781 -12 879 50 b 1114 475 1046 211 1114 322 b 964 832 1114 633 1049 750 b 593 978 879 914 753 978 z m 593 13 b 235 471 346 13 235 222 b 593 953 235 711 356 953 b 951 471 846 953 951 726 b 926 299 951 407 943 351 b 593 13 879 158 806 13 z "},"ō":{"ha":733,"x_min":0,"x_max":0,"o":"m 364 606 b 244 583 322 606 283 599 b 53 301 140 540 53 446 b 78 175 53 256 60 215 b 364 -11 125 74 190 -11 b 586 76 469 -11 536 26 b 681 301 638 128 681 201 b 656 424 681 344 672 385 b 364 606 606 524 511 606 z m 364 581 b 553 301 489 581 554 429 b 364 14 551 139 476 14 b 181 301 214 14 181 163 b 364 581 181 429 242 581 z m 194 689 l 533 689 l 533 751 l 194 751 z "},"Ŏ":{"ha":1185,"x_min":0,"x_max":0,"o":"m 592 1147 b 467 1204 535 1147 481 1165 l 419 1204 b 472 1101 424 1160 443 1124 b 594 1061 500 1076 544 1061 b 767 1204 688 1061 758 1118 l 719 1204 b 592 1147 706 1167 649 1147 z m 593 978 b 222 832 433 978 307 914 b 71 475 139 751 71 632 b 224 131 71 324 140 208 b 593 -12 307 50 386 -12 b 963 131 781 -12 879 50 b 1114 475 1046 211 1114 322 b 964 832 1114 633 1049 750 b 593 978 879 914 753 978 z m 593 13 b 235 471 346 13 235 222 b 593 953 235 711 356 953 b 951 471 846 953 951 726 b 926 299 951 407 943 351 b 593 13 879 158 806 13 z "},"ŏ":{"ha":733,"x_min":0,"x_max":0,"o":"m 364 606 b 244 583 322 606 283 599 b 53 301 140 540 53 446 b 78 175 53 256 60 215 b 364 -11 125 74 190 -11 b 586 76 469 -11 536 26 b 681 301 638 128 681 201 b 656 424 681 344 672 385 b 364 606 606 524 511 606 z m 364 581 b 553 301 489 581 554 429 b 364 14 551 139 476 14 b 181 301 214 14 181 163 b 364 581 181 429 242 581 z m 364 775 b 236 851 304 775 250 804 l 192 851 b 364 689 197 756 264 689 b 536 851 464 689 532 757 l 492 851 b 364 775 478 806 422 775 z "},"Ő":{"ha":1185,"x_min":0,"x_max":0,"o":"m 697 1199 b 647 1189 681 1199 664 1196 b 589 1158 631 1182 611 1172 l 439 1061 l 514 1061 l 650 1096 b 719 1122 681 1103 703 1113 b 744 1156 736 1131 744 1142 b 697 1199 744 1183 726 1199 z m 933 1199 b 883 1189 917 1199 900 1196 b 822 1158 867 1182 844 1172 l 672 1061 l 747 1061 l 886 1096 b 956 1122 914 1103 936 1113 b 981 1156 972 1131 981 1142 b 933 1199 981 1185 961 1199 z m 593 978 b 222 832 433 978 307 914 b 71 475 139 751 71 632 b 224 131 71 324 140 208 b 593 -12 307 50 386 -12 b 963 131 781 -12 879 50 b 1114 475 1046 211 1114 322 b 964 832 1114 633 1049 750 b 593 978 879 914 753 978 z m 593 13 b 235 471 346 13 235 222 b 593 953 235 711 356 953 b 951 471 846 953 951 726 b 926 299 951 407 943 351 b 593 13 879 158 806 13 z "},"ő":{"ha":733,"x_min":0,"x_max":0,"o":"m 364 606 b 244 583 322 606 283 599 b 53 301 140 540 53 446 b 78 175 53 256 60 215 b 364 -11 125 74 190 -11 b 586 76 469 -11 536 26 b 681 301 638 128 681 201 b 656 424 681 344 672 385 b 364 606 606 524 511 606 z m 364 581 b 553 301 489 581 554 429 b 364 14 551 139 476 14 b 181 301 214 14 181 163 b 364 581 181 429 242 581 z m 458 879 b 372 838 431 879 403 865 l 211 689 l 269 689 l 442 769 b 489 800 461 778 475 789 b 506 835 497 810 506 821 b 458 879 506 863 486 879 z m 706 879 b 622 838 681 879 653 865 l 458 689 l 517 689 l 689 769 b 736 800 708 778 725 789 b 753 835 747 810 753 821 b 706 879 753 863 735 879 z "},"Œ":{"ha":1443,"x_min":0,"x_max":0,"o":"m 1328 965 l 594 965 b 224 824 436 965 307 906 b 72 475 142 743 72 629 b 224 138 72 326 142 215 b 590 0 306 58 438 0 l 1369 0 l 1388 247 l 1360 247 b 1322 156 1351 211 1335 179 b 1068 29 1282 76 1190 29 b 860 197 928 29 860 60 l 860 489 b 1090 332 996 489 1090 465 l 1119 332 l 1119 675 l 1090 675 b 1018 557 1090 615 1058 576 b 860 522 974 532 933 522 l 860 915 b 882 936 860 929 868 936 l 1040 936 b 1150 929 1083 936 1119 935 b 1314 744 1243 913 1299 840 l 1339 744 z m 594 936 b 701 910 642 936 681 931 b 728 775 725 886 728 825 l 728 190 b 725 121 728 161 728 139 b 594 28 713 60 669 28 b 236 471 349 28 236 224 b 261 657 236 540 244 601 b 594 936 306 803 408 936 z "},"œ":{"ha":1143,"x_min":0,"x_max":0,"o":"m 364 581 b 553 301 489 581 554 429 b 364 14 551 139 476 14 b 181 301 214 14 181 163 b 364 581 181 429 242 581 z m 969 433 b 968 415 969 428 969 421 b 901 403 963 397 928 403 l 694 403 b 850 581 713 500 754 582 b 969 433 943 579 969 506 z m 882 22 b 683 306 746 22 683 164 b 690 375 683 324 686 361 l 1057 375 b 1092 397 1082 375 1092 376 b 864 606 1092 543 1010 606 b 739 582 819 606 778 599 b 615 486 690 561 647 529 b 364 606 561 556 479 606 b 244 583 322 606 283 599 b 53 301 140 540 53 446 b 78 175 53 256 60 215 b 364 -11 125 74 190 -11 b 586 76 469 -11 536 26 b 610 103 594 85 603 93 b 850 -11 660 29 743 -14 b 1088 104 978 -8 1014 33 l 1074 122 b 882 22 1026 74 965 22 z "},"Ŕ":{"ha":988,"x_min":0,"x_max":0,"o":"m 708 1199 b 661 1189 692 1199 675 1196 b 600 1158 644 1182 622 1172 l 436 1061 l 511 1061 l 664 1096 b 731 1122 692 1103 714 1113 b 756 1156 747 1131 756 1142 b 708 1199 756 1183 738 1199 z m 825 724 b 729 901 825 800 793 858 b 463 965 667 944 578 965 l 69 965 l 69 946 b 174 907 115 943 153 931 b 194 794 193 885 194 842 l 194 168 b 169 54 194 119 192 76 b 57 19 146 31 106 22 l 57 0 l 499 0 l 499 19 b 356 53 438 19 382 26 b 326 175 328 78 326 117 l 326 476 l 376 476 b 411 468 389 474 401 474 b 461 407 440 449 442 432 l 779 0 l 1022 0 l 1022 19 b 850 119 942 35 894 64 l 572 471 b 825 724 722 497 825 565 z m 663 717 b 388 506 663 567 542 506 l 326 506 l 326 914 b 347 936 326 928 333 936 l 421 936 b 663 717 558 936 663 853 z "},"ŕ":{"ha":533,"x_min":0,"x_max":0,"o":"m 529 542 b 453 606 529 583 496 606 b 396 594 435 606 414 601 b 257 456 333 571 285 518 l 253 456 l 236 593 l 40 554 l 40 535 b 101 510 61 533 90 519 b 136 421 125 489 133 465 b 139 301 139 392 139 353 l 139 147 b 136 79 139 118 138 97 b 42 17 128 22 104 21 l 42 0 l 340 0 l 340 17 b 290 25 319 18 306 17 b 249 156 247 49 249 90 l 249 246 b 308 494 249 350 264 438 b 374 539 329 521 354 539 b 465 485 428 539 424 486 b 529 542 503 483 529 504 z m 503 879 b 418 838 476 879 449 865 l 256 689 l 314 689 l 486 769 b 533 800 506 778 521 789 b 550 835 543 810 550 821 b 503 879 550 863 532 879 z "},"Ŗ":{"ha":988,"x_min":0,"x_max":0,"o":"m 540 -83 b 481 -144 506 -83 481 -110 b 486 -181 481 -151 482 -162 b 522 -358 497 -237 508 -301 l 558 -358 b 593 -181 571 -303 585 -239 b 599 -146 597 -165 599 -153 b 540 -83 599 -111 575 -83 z m 825 724 b 729 901 825 800 793 858 b 463 965 667 944 578 965 l 69 965 l 69 946 b 174 907 115 943 153 931 b 194 794 193 885 194 842 l 194 168 b 169 54 194 119 192 76 b 57 19 146 31 106 22 l 57 0 l 499 0 l 499 19 b 356 53 438 19 382 26 b 326 175 328 78 326 117 l 326 476 l 376 476 b 411 468 389 474 401 474 b 461 407 440 449 442 432 l 779 0 l 1022 0 l 1022 19 b 850 119 942 35 894 64 l 572 471 b 825 724 722 497 825 565 z m 663 717 b 388 506 663 567 542 506 l 326 506 l 326 914 b 347 936 326 928 333 936 l 421 936 b 663 717 558 936 663 853 z "},"ŗ":{"ha":533,"x_min":0,"x_max":0,"o":"m 192 -83 b 132 -144 157 -83 132 -110 b 138 -181 132 -151 133 -162 b 174 -358 149 -237 160 -301 l 210 -358 b 244 -181 222 -303 236 -239 b 250 -146 249 -165 250 -153 b 192 -83 250 -111 226 -83 z m 529 542 b 453 606 529 583 496 606 b 396 594 435 606 414 601 b 257 456 333 571 285 518 l 253 456 l 236 593 l 40 554 l 40 535 b 101 510 61 533 90 519 b 136 421 125 489 133 465 b 139 301 139 392 139 353 l 139 147 b 136 79 139 118 138 97 b 42 17 128 22 104 21 l 42 0 l 340 0 l 340 17 b 290 25 319 18 306 17 b 249 156 247 49 249 90 l 249 246 b 308 494 249 350 264 438 b 374 539 329 521 354 539 b 465 485 428 539 424 486 b 529 542 503 483 529 504 z "},"Ř":{"ha":988,"x_min":0,"x_max":0,"o":"m 378 1061 l 517 1061 l 653 1197 l 594 1197 l 447 1131 l 297 1197 l 242 1197 z m 825 724 b 729 901 825 800 793 858 b 463 965 667 944 578 965 l 69 965 l 69 946 b 174 907 115 943 153 931 b 194 794 193 885 194 842 l 194 168 b 169 54 194 119 192 76 b 57 19 146 31 106 22 l 57 0 l 499 0 l 499 19 b 356 53 438 19 382 26 b 326 175 328 78 326 117 l 326 476 l 376 476 b 411 468 389 474 401 474 b 461 407 440 449 442 432 l 779 0 l 1022 0 l 1022 19 b 850 119 942 35 894 64 l 572 471 b 825 724 722 497 825 565 z m 663 717 b 388 506 663 567 542 506 l 326 506 l 326 914 b 347 936 326 928 333 936 l 421 936 b 663 717 558 936 663 853 z "},"ř":{"ha":533,"x_min":0,"x_max":0,"o":"m 529 542 b 453 606 529 583 496 606 b 396 594 435 606 414 601 b 257 456 333 571 285 518 l 253 456 l 236 593 l 40 554 l 40 535 b 101 510 61 533 90 519 b 136 421 125 489 133 465 b 139 301 139 392 139 353 l 139 147 b 136 79 139 118 138 97 b 42 17 128 22 104 21 l 42 0 l 340 0 l 340 17 b 290 25 319 18 306 17 b 249 156 247 49 249 90 l 249 246 b 308 494 249 350 264 438 b 374 539 329 521 354 539 b 465 485 428 539 424 486 b 529 542 503 483 529 504 z m 228 689 l 342 689 l 490 850 l 433 850 l 285 765 l 136 850 l 79 850 z "},"Ś":{"ha":808,"x_min":0,"x_max":0,"o":"m 628 1199 b 579 1189 611 1199 594 1196 b 518 1158 563 1182 542 1172 l 356 1061 l 431 1061 l 582 1096 b 649 1122 611 1103 632 1113 b 675 1156 667 1131 675 1142 b 628 1199 675 1183 656 1199 z m 97 294 l 72 294 l 92 14 l 114 14 l 156 75 b 400 -12 224 18 288 -12 b 538 7 450 -12 496 -6 b 740 272 647 47 740 126 b 675 436 740 350 717 392 b 422 585 608 499 522 539 b 274 675 360 614 314 635 b 231 775 246 700 231 729 b 397 949 231 865 303 949 b 644 711 529 949 611 828 l 668 711 l 654 960 l 631 960 l 593 904 b 393 978 539 949 479 978 b 281 958 351 978 314 972 b 113 713 188 924 113 840 b 171 553 113 638 132 594 b 385 422 225 496 297 460 b 492 371 428 403 463 388 b 604 214 551 335 604 300 b 404 17 604 107 515 17 b 97 294 236 17 124 151 z "},"ś":{"ha":508,"x_min":0,"x_max":0,"o":"m 251 581 b 389 432 325 581 363 500 l 407 432 l 407 594 l 392 594 l 363 571 b 306 597 344 581 326 592 b 243 606 285 603 263 606 b 124 558 190 606 151 586 b 75 432 94 529 75 489 b 160 293 75 361 117 326 b 357 124 211 253 357 192 b 260 14 357 67 331 14 b 90 193 178 14 119 88 l 72 193 l 72 0 l 89 0 l 114 40 b 269 -11 156 7 211 -11 b 406 33 325 -11 371 4 b 456 160 440 64 456 107 b 278 357 456 250 354 311 b 167 483 235 388 167 414 b 251 581 167 531 192 581 z m 461 879 b 376 838 435 879 407 865 l 214 689 l 272 689 l 444 769 b 492 800 464 778 479 789 b 508 835 501 810 508 821 b 461 879 508 863 490 879 z "},"Ŝ":{"ha":808,"x_min":0,"x_max":0,"o":"m 463 1197 l 324 1197 l 188 1061 l 244 1061 l 393 1129 l 542 1061 l 599 1061 z m 97 294 l 72 294 l 92 14 l 114 14 l 156 75 b 400 -12 224 18 288 -12 b 538 7 450 -12 496 -6 b 740 272 647 47 740 126 b 675 436 740 350 717 392 b 422 585 608 499 522 539 b 274 675 360 614 314 635 b 231 775 246 700 231 729 b 397 949 231 865 303 949 b 644 711 529 949 611 828 l 668 711 l 654 960 l 631 960 l 593 904 b 393 978 539 949 479 978 b 281 958 351 978 314 972 b 113 713 188 924 113 840 b 171 553 113 638 132 594 b 385 422 225 496 297 460 b 492 371 428 403 463 388 b 604 214 551 335 604 300 b 404 17 604 107 515 17 b 97 294 236 17 124 151 z "},"ŝ":{"ha":508,"x_min":0,"x_max":0,"o":"m 251 581 b 389 432 325 581 363 500 l 407 432 l 407 594 l 392 594 l 363 571 b 306 597 344 581 326 592 b 243 606 285 603 263 606 b 124 558 190 606 151 586 b 75 432 94 529 75 489 b 160 293 75 361 117 326 b 357 124 211 253 357 192 b 260 14 357 67 331 14 b 90 193 178 14 119 88 l 72 193 l 72 0 l 89 0 l 114 40 b 269 -11 156 7 211 -11 b 406 33 325 -11 371 4 b 456 160 440 64 456 107 b 278 357 456 250 354 311 b 167 483 235 388 167 414 b 251 581 167 531 192 581 z m 300 850 l 186 850 l 38 689 l 94 689 l 243 774 l 392 689 l 449 689 z "},"Ş":{"ha":808,"x_min":0,"x_max":0,"o":"m 388 -289 b 339 -257 364 -289 340 -275 b 303 -222 338 -236 332 -222 b 263 -264 281 -222 263 -242 b 392 -329 263 -312 325 -329 b 550 -215 479 -329 550 -300 b 394 -107 550 -144 499 -107 l 433 -1 l 367 -1 l 317 -140 l 321 -147 b 342 -146 328 -146 335 -146 b 365 -144 350 -144 358 -144 b 475 -219 460 -146 475 -179 b 388 -289 475 -256 451 -289 z m 97 294 l 72 294 l 92 14 l 114 14 l 156 75 b 400 -12 224 18 288 -12 b 538 7 450 -12 496 -6 b 740 272 647 47 740 126 b 675 436 740 350 717 392 b 422 585 608 499 522 539 b 274 675 360 614 314 635 b 231 775 246 700 231 729 b 397 949 231 865 303 949 b 644 711 529 949 611 828 l 668 711 l 654 960 l 631 960 l 593 904 b 393 978 539 949 479 978 b 281 958 351 978 314 972 b 113 713 188 924 113 840 b 171 553 113 638 132 594 b 385 422 225 496 297 460 b 492 371 428 403 463 388 b 604 214 551 335 604 300 b 404 17 604 107 515 17 b 97 294 236 17 124 151 z "},"ş":{"ha":508,"x_min":0,"x_max":0,"o":"m 257 -287 b 208 -256 233 -287 210 -274 b 172 -221 207 -235 201 -221 b 132 -262 150 -221 132 -240 b 261 -328 132 -311 194 -328 b 419 -214 349 -328 419 -299 b 264 -106 419 -143 368 -106 l 303 0 l 236 0 l 186 -139 l 190 -146 b 211 -144 197 -144 204 -144 b 235 -143 219 -143 228 -143 b 344 -218 329 -144 344 -178 b 257 -287 344 -254 321 -287 z m 251 581 b 389 432 325 581 363 500 l 407 432 l 407 594 l 392 594 l 363 571 b 306 597 344 581 326 592 b 243 606 285 603 263 606 b 124 558 190 606 151 586 b 75 432 94 529 75 489 b 160 293 75 361 117 326 b 357 124 211 253 357 192 b 260 14 357 67 331 14 b 90 193 178 14 119 88 l 72 193 l 72 0 l 89 0 l 114 40 b 269 -11 156 7 211 -11 b 406 33 325 -11 371 4 b 456 160 440 64 456 107 b 278 357 456 250 354 311 b 167 483 235 388 167 414 b 251 581 167 531 192 581 z "},"Š":{"ha":808,"x_min":0,"x_max":0,"o":"m 324 1061 l 463 1061 l 599 1197 l 542 1197 l 393 1131 l 244 1197 l 188 1197 z m 97 294 l 72 294 l 92 14 l 114 14 l 156 75 b 400 -12 224 18 288 -12 b 538 7 450 -12 496 -6 b 740 272 647 47 740 126 b 675 436 740 350 717 392 b 422 585 608 499 522 539 b 274 675 360 614 314 635 b 231 775 246 700 231 729 b 397 949 231 865 303 949 b 644 711 529 949 611 828 l 668 711 l 654 960 l 631 960 l 593 904 b 393 978 539 949 479 978 b 281 958 351 978 314 972 b 113 713 188 924 113 840 b 171 553 113 638 132 594 b 385 422 225 496 297 460 b 492 371 428 403 463 388 b 604 214 551 335 604 300 b 404 17 604 107 515 17 b 97 294 236 17 124 151 z "},"š":{"ha":508,"x_min":0,"x_max":0,"o":"m 251 581 b 389 432 325 581 363 500 l 407 432 l 407 594 l 392 594 l 363 571 b 306 597 344 581 326 592 b 243 606 285 603 263 606 b 124 558 190 606 151 586 b 75 432 94 529 75 489 b 160 293 75 361 117 326 b 357 124 211 253 357 192 b 260 14 357 67 331 14 b 90 193 178 14 119 88 l 72 193 l 72 0 l 89 0 l 114 40 b 269 -11 156 7 211 -11 b 406 33 325 -11 371 4 b 456 160 440 64 456 107 b 278 357 456 250 354 311 b 167 483 235 388 167 414 b 251 581 167 531 192 581 z m 186 689 l 300 689 l 449 850 l 392 850 l 243 765 l 94 850 l 38 850 z "},"Ţ":{"ha":1006,"x_min":0,"x_max":0,"o":"m 490 -276 b 442 -244 467 -276 443 -262 b 406 -210 440 -224 435 -210 b 365 -251 383 -210 365 -229 b 494 -317 365 -300 428 -317 b 653 -203 582 -317 653 -287 b 497 -94 653 -132 601 -94 l 536 11 l 469 11 l 419 -128 l 424 -135 b 444 -133 431 -133 438 -133 b 468 -132 453 -132 461 -132 b 578 -207 563 -133 578 -167 b 490 -276 578 -243 554 -276 z m 429 897 l 429 174 b 401 57 429 124 422 83 b 265 19 374 29 325 22 l 265 0 l 740 0 l 740 19 b 585 106 658 22 594 36 b 578 174 579 125 578 147 l 578 897 b 644 935 578 932 610 929 b 719 936 664 935 688 936 b 897 897 789 936 861 928 b 965 742 936 868 960 808 l 985 742 l 972 965 l 44 965 l 26 742 l 46 742 b 75 846 47 786 63 821 b 306 936 110 917 200 936 b 369 935 332 936 353 935 b 429 897 401 932 429 926 z "},"ţ":{"ha":424,"x_min":0,"x_max":0,"o":"m 224 -287 b 175 -256 200 -287 176 -274 b 139 -221 174 -235 168 -221 b 99 -262 117 -221 99 -240 b 228 -328 99 -311 161 -328 b 386 -214 315 -328 386 -299 b 231 -106 386 -143 335 -106 l 269 0 l 203 0 l 153 -139 l 157 -146 b 178 -144 164 -144 171 -144 b 201 -143 186 -143 194 -143 b 311 -218 296 -144 311 -178 b 224 -287 311 -254 288 -287 z m 264 -11 b 414 75 340 -11 374 11 l 397 89 b 300 17 375 57 347 17 b 222 183 228 17 222 67 l 222 571 l 372 571 l 372 596 l 222 596 l 222 772 l 210 772 b 44 585 181 697 115 626 l 44 571 l 113 571 l 113 125 b 264 -11 113 33 171 -11 z "},"Ť":{"ha":1006,"x_min":0,"x_max":0,"o":"m 439 1061 l 578 1061 l 714 1197 l 657 1197 l 508 1131 l 360 1197 l 303 1197 z m 429 897 l 429 174 b 401 57 429 124 422 83 b 265 19 374 29 325 22 l 265 0 l 740 0 l 740 19 b 585 106 658 22 594 36 b 578 174 579 125 578 147 l 578 897 b 644 935 578 932 610 929 b 719 936 664 935 688 936 b 897 897 789 936 861 928 b 965 742 936 868 960 808 l 985 742 l 972 965 l 44 965 l 26 742 l 46 742 b 75 846 47 786 63 821 b 306 936 110 917 200 936 b 369 935 332 936 353 935 b 429 897 401 932 429 926 z "},"ť":{"ha":424,"x_min":0,"x_max":0,"o":"m 365 925 b 306 864 331 925 306 899 b 311 828 306 857 307 846 b 347 650 322 771 333 707 l 383 650 b 418 828 396 706 410 769 b 424 863 422 843 424 856 b 365 925 424 897 400 925 z m 264 -11 b 414 75 340 -11 374 11 l 397 89 b 300 17 375 57 347 17 b 222 183 228 17 222 67 l 222 571 l 372 571 l 372 596 l 222 596 l 222 772 l 210 772 b 44 585 181 697 115 626 l 44 571 l 113 571 l 113 125 b 264 -11 113 33 171 -11 z "},"Ŧ":{"ha":1006,"x_min":0,"x_max":0,"o":"m 174 529 l 174 494 l 833 497 l 835 531 z m 429 897 l 429 174 b 401 57 429 124 422 83 b 265 19 374 29 325 22 l 265 0 l 740 0 l 740 19 b 585 106 658 22 594 36 b 578 174 579 125 578 147 l 578 897 b 644 935 578 932 610 929 b 719 936 664 935 688 936 b 897 897 789 936 861 928 b 965 742 936 868 960 808 l 985 742 l 972 965 l 44 965 l 26 742 l 46 742 b 75 846 47 786 63 821 b 306 936 110 917 200 936 b 369 935 332 936 353 935 b 429 897 401 932 429 926 z "},"ŧ":{"ha":424,"x_min":0,"x_max":0,"o":"m 49 417 l 49 383 l 361 383 l 361 417 z m 264 -11 b 414 75 340 -11 374 11 l 397 89 b 300 17 375 57 347 17 b 222 183 228 17 222 67 l 222 571 l 372 571 l 372 596 l 222 596 l 222 772 l 210 772 b 44 585 181 697 115 626 l 44 571 l 113 571 l 113 125 b 264 -11 113 33 171 -11 z "},"Ũ":{"ha":1079,"x_min":0,"x_max":0,"o":"m 628 1061 b 753 1210 700 1061 746 1138 l 711 1210 b 653 1157 700 1178 692 1157 b 556 1186 614 1157 586 1175 b 458 1214 529 1199 496 1214 b 325 1072 382 1214 338 1144 l 369 1072 b 425 1122 381 1106 386 1122 b 628 1061 501 1122 551 1061 z m 579 17 b 326 304 401 17 326 126 l 326 688 b 354 915 326 854 325 882 b 464 946 378 942 413 946 l 464 965 l 36 965 l 36 946 b 175 844 126 946 175 911 l 175 688 l 175 314 b 267 65 175 188 201 125 b 544 -12 331 10 422 -12 b 890 361 806 -12 890 143 l 890 656 b 896 831 890 725 892 793 b 926 911 900 867 914 893 b 1043 946 947 940 992 946 l 1043 965 l 679 965 l 679 946 b 744 940 706 946 726 944 b 836 839 799 932 825 899 b 846 656 843 800 846 729 l 846 313 b 579 17 846 140 724 17 z "},"ũ":{"ha":750,"x_min":0,"x_max":0,"o":"m 631 146 b 629 250 631 174 629 208 l 629 594 l 426 594 l 426 575 b 479 560 447 572 467 567 b 519 428 517 536 519 490 l 519 269 b 501 149 519 222 515 182 b 347 19 464 61 413 17 b 239 111 279 22 253 72 b 226 289 225 151 226 207 l 226 594 l 24 594 l 24 575 b 75 560 44 572 64 567 b 117 428 108 538 117 492 l 117 236 b 153 54 117 156 122 97 b 311 -11 182 17 244 -12 b 522 115 442 -8 479 49 l 526 115 l 542 -12 l 728 1 l 728 18 b 685 21 710 18 696 18 b 631 146 631 21 636 92 z m 471 689 b 596 838 542 689 589 765 l 554 838 b 496 785 543 806 533 785 b 301 843 419 785 378 843 b 168 700 225 843 179 772 l 211 700 b 267 750 224 735 226 750 b 471 689 344 750 393 689 z "},"Ū":{"ha":1079,"x_min":0,"x_max":0,"o":"m 369 1061 l 708 1061 l 708 1124 l 369 1124 z m 579 17 b 326 304 401 17 326 126 l 326 688 b 354 915 326 854 325 882 b 464 946 378 942 413 946 l 464 965 l 36 965 l 36 946 b 175 844 126 946 175 911 l 175 688 l 175 314 b 267 65 175 188 201 125 b 544 -12 331 10 422 -12 b 890 361 806 -12 890 143 l 890 656 b 896 831 890 725 892 793 b 926 911 900 867 914 893 b 1043 946 947 940 992 946 l 1043 965 l 679 965 l 679 946 b 744 940 706 946 726 944 b 836 839 799 932 825 899 b 846 656 843 800 846 729 l 846 313 b 579 17 846 140 724 17 z "},"ū":{"ha":750,"x_min":0,"x_max":0,"o":"m 631 146 b 629 250 631 174 629 208 l 629 594 l 426 594 l 426 575 b 479 560 447 572 467 567 b 519 428 517 536 519 490 l 519 269 b 501 149 519 222 515 182 b 347 19 464 61 413 17 b 239 111 279 22 253 72 b 226 289 225 151 226 207 l 226 594 l 24 594 l 24 575 b 75 560 44 572 64 567 b 117 428 108 538 117 492 l 117 236 b 153 54 117 156 122 97 b 311 -11 182 17 244 -12 b 522 115 442 -8 479 49 l 526 115 l 542 -12 l 728 1 l 728 18 b 685 21 710 18 696 18 b 631 146 631 21 636 92 z m 199 689 l 538 689 l 538 751 l 199 751 z "},"Ŭ":{"ha":1079,"x_min":0,"x_max":0,"o":"m 539 1147 b 413 1204 482 1147 428 1165 l 367 1204 b 419 1101 369 1160 390 1124 b 540 1061 447 1076 492 1061 b 713 1204 633 1061 704 1118 l 667 1204 b 539 1147 651 1167 594 1147 z m 579 17 b 326 304 401 17 326 126 l 326 688 b 354 915 326 854 325 882 b 464 946 378 942 413 946 l 464 965 l 36 965 l 36 946 b 175 844 126 946 175 911 l 175 688 l 175 314 b 267 65 175 188 201 125 b 544 -12 331 10 422 -12 b 890 361 806 -12 890 143 l 890 656 b 896 831 890 725 892 793 b 926 911 900 867 914 893 b 1043 946 947 940 992 946 l 1043 965 l 679 965 l 679 946 b 744 940 706 946 726 944 b 836 839 799 932 825 899 b 846 656 843 800 846 729 l 846 313 b 579 17 846 140 724 17 z "},"ŭ":{"ha":750,"x_min":0,"x_max":0,"o":"m 631 146 b 629 250 631 174 629 208 l 629 594 l 426 594 l 426 575 b 479 560 447 572 467 567 b 519 428 517 536 519 490 l 519 269 b 501 149 519 222 515 182 b 347 19 464 61 413 17 b 239 111 279 22 253 72 b 226 289 225 151 226 207 l 226 594 l 24 594 l 24 575 b 75 560 44 572 64 567 b 117 428 108 538 117 492 l 117 236 b 153 54 117 156 122 97 b 311 -11 182 17 244 -12 b 522 115 442 -8 479 49 l 526 115 l 542 -12 l 728 1 l 728 18 b 685 21 710 18 696 18 b 631 146 631 21 636 92 z m 353 775 b 228 851 294 775 240 804 l 181 851 b 356 689 188 756 254 689 b 528 851 454 689 522 757 l 481 851 b 353 775 468 806 413 775 z "},"Ů":{"ha":1079,"x_min":0,"x_max":0,"o":"m 540 1061 b 621 1143 588 1061 621 1096 b 540 1224 621 1190 588 1224 b 458 1143 493 1224 458 1190 b 540 1061 458 1094 492 1061 z m 540 1185 b 582 1143 563 1185 582 1164 b 540 1100 582 1121 564 1100 b 497 1143 514 1100 497 1117 b 540 1185 497 1168 517 1185 z m 579 17 b 326 304 401 17 326 126 l 326 688 b 354 915 326 854 325 882 b 464 946 378 942 413 946 l 464 965 l 36 965 l 36 946 b 175 844 126 946 175 911 l 175 688 l 175 314 b 267 65 175 188 201 125 b 544 -12 331 10 422 -12 b 890 361 806 -12 890 143 l 890 656 b 896 831 890 725 892 793 b 926 911 900 867 914 893 b 1043 946 947 940 992 946 l 1043 965 l 679 965 l 679 946 b 744 940 706 946 726 944 b 836 839 799 932 825 899 b 846 656 843 800 846 729 l 846 313 b 579 17 846 140 724 17 z "},"ů":{"ha":750,"x_min":0,"x_max":0,"o":"m 631 146 b 629 250 631 174 629 208 l 629 594 l 426 594 l 426 575 b 479 560 447 572 467 567 b 519 428 517 536 519 490 l 519 269 b 501 149 519 222 515 182 b 347 19 464 61 413 17 b 239 111 279 22 253 72 b 226 289 225 151 226 207 l 226 594 l 24 594 l 24 575 b 75 560 44 572 64 567 b 117 428 108 538 117 492 l 117 236 b 153 54 117 156 122 97 b 311 -11 182 17 244 -12 b 522 115 442 -8 479 49 l 526 115 l 542 -12 l 728 1 l 728 18 b 685 21 710 18 696 18 b 631 146 631 21 636 92 z m 353 689 b 464 797 417 689 464 735 b 353 907 464 861 418 907 b 244 797 290 907 244 861 b 353 689 244 735 292 689 z m 353 853 b 408 797 388 853 408 831 b 353 738 408 765 388 738 b 294 797 319 738 294 763 b 353 853 294 832 321 853 z "},"Ű":{"ha":1079,"x_min":0,"x_max":0,"o":"m 644 1199 b 594 1189 628 1199 611 1196 b 535 1158 578 1182 557 1172 l 385 1061 l 460 1061 l 597 1096 b 665 1122 626 1103 649 1113 b 692 1156 683 1131 692 1142 b 644 1199 692 1183 672 1199 z m 879 1199 b 829 1189 863 1199 846 1196 b 769 1158 813 1182 792 1172 l 619 1061 l 694 1061 l 832 1096 b 901 1122 861 1103 883 1113 b 926 1156 918 1131 926 1142 b 879 1199 926 1185 907 1199 z m 579 17 b 326 304 401 17 326 126 l 326 688 b 354 915 326 854 325 882 b 464 946 378 942 413 946 l 464 965 l 36 965 l 36 946 b 175 844 126 946 175 911 l 175 688 l 175 314 b 267 65 175 188 201 125 b 544 -12 331 10 422 -12 b 890 361 806 -12 890 143 l 890 656 b 896 831 890 725 892 793 b 926 911 900 867 914 893 b 1043 946 947 940 992 946 l 1043 965 l 679 965 l 679 946 b 744 940 706 946 726 944 b 836 839 799 932 825 899 b 846 656 843 800 846 729 l 846 313 b 579 17 846 140 724 17 z "},"ű":{"ha":750,"x_min":0,"x_max":0,"o":"m 631 146 b 629 250 631 174 629 208 l 629 594 l 426 594 l 426 575 b 479 560 447 572 467 567 b 519 428 517 536 519 490 l 519 269 b 501 149 519 222 515 182 b 347 19 464 61 413 17 b 239 111 279 22 253 72 b 226 289 225 151 226 207 l 226 594 l 24 594 l 24 575 b 75 560 44 572 64 567 b 117 428 108 538 117 492 l 117 236 b 153 54 117 156 122 97 b 311 -11 182 17 244 -12 b 522 115 442 -8 479 49 l 526 115 l 542 -12 l 728 1 l 728 18 b 685 21 710 18 696 18 b 631 146 631 21 636 92 z m 419 879 b 336 838 394 879 367 865 l 172 689 l 231 689 l 403 769 b 450 800 422 778 439 789 b 467 835 461 810 467 821 b 419 879 467 863 449 879 z m 669 879 b 583 838 642 879 614 865 l 422 689 l 481 689 l 653 769 b 700 800 672 778 686 789 b 717 835 708 810 717 821 b 669 879 717 863 697 879 z "},"Ų":{"ha":1079,"x_min":0,"x_max":0,"o":"m 479 -175 b 521 -87 479 -137 499 -111 b 633 -8 550 -54 593 -28 l 633 -3 l 567 -3 b 429 -90 508 -26 461 -56 b 381 -203 397 -125 381 -162 b 503 -310 381 -274 428 -310 b 704 -206 590 -310 657 -268 l 683 -186 b 613 -232 663 -208 633 -224 b 543 -249 590 -240 560 -249 b 479 -175 508 -249 479 -210 z m 579 17 b 326 304 401 17 326 126 l 326 688 b 354 915 326 854 325 882 b 464 946 378 942 413 946 l 464 965 l 36 965 l 36 946 b 175 844 126 946 175 911 l 175 688 l 175 314 b 267 65 175 188 201 125 b 544 -12 331 10 422 -12 b 890 361 806 -12 890 143 l 890 656 b 896 831 890 725 892 793 b 926 911 900 867 914 893 b 1043 946 947 940 992 946 l 1043 965 l 679 965 l 679 946 b 744 940 706 946 726 944 b 836 839 799 932 825 899 b 846 656 843 800 846 729 l 846 313 b 579 17 846 140 724 17 z "},"ų":{"ha":750,"x_min":0,"x_max":0,"o":"m 508 -175 b 550 -87 508 -137 528 -111 b 663 -8 579 -54 622 -28 l 663 -3 l 596 -3 b 458 -90 538 -26 490 -56 b 410 -203 426 -125 410 -162 b 532 -310 410 -274 457 -310 b 733 -206 619 -310 686 -268 l 713 -186 b 642 -232 692 -208 663 -224 b 572 -249 619 -240 589 -249 b 508 -175 538 -249 508 -210 z m 631 146 b 629 250 631 174 629 208 l 629 594 l 426 594 l 426 575 b 479 560 447 572 467 567 b 519 428 517 536 519 490 l 519 269 b 501 149 519 222 515 182 b 347 19 464 61 413 17 b 239 111 279 22 253 72 b 226 289 225 151 226 207 l 226 594 l 24 594 l 24 575 b 75 560 44 572 64 567 b 117 428 108 538 117 492 l 117 236 b 153 54 117 156 122 97 b 311 -11 182 17 244 -12 b 522 115 442 -8 479 49 l 526 115 l 542 -12 l 728 1 l 728 18 b 685 21 710 18 696 18 b 631 146 631 21 636 92 z "},"Ŵ":{"ha":1474,"x_min":0,"x_max":0,"o":"m 806 1197 l 667 1197 l 531 1061 l 586 1061 l 736 1129 l 883 1061 l 942 1061 z m 965 946 l 965 965 l 582 965 l 582 946 b 675 922 631 946 661 936 b 726 782 700 897 715 821 b 672 640 710 729 693 694 l 513 199 l 300 788 b 279 889 289 817 279 857 b 394 946 279 943 328 946 l 394 965 l -14 965 l -14 946 b 97 900 42 946 69 931 b 176 721 132 854 151 788 l 438 -12 l 465 -12 l 740 733 l 989 -12 l 1017 -12 l 1331 844 b 1485 947 1356 911 1399 947 l 1485 965 l 1179 965 l 1179 947 b 1293 889 1236 947 1293 942 b 1261 747 1293 840 1279 797 l 1060 197 l 878 767 b 851 894 865 808 851 851 b 965 946 851 947 910 946 z "},"ŵ":{"ha":956,"x_min":0,"x_max":0,"o":"m 804 522 b 800 472 804 501 807 492 b 758 361 789 438 774 400 l 679 165 l 675 165 l 525 594 l 499 594 l 328 168 l 325 168 l 238 453 b 229 492 233 468 232 481 b 225 518 226 500 225 511 b 311 575 225 558 264 575 l 311 594 l 14 594 l 14 575 b 85 543 46 575 71 558 b 125 463 103 524 115 496 l 265 -11 l 288 -11 l 465 438 l 469 436 l 622 -11 l 640 -11 l 815 426 b 869 538 835 474 844 508 b 940 575 881 556 917 575 l 940 594 l 717 594 l 717 575 b 804 522 764 575 804 563 z m 533 850 l 419 850 l 272 689 l 328 689 l 478 774 l 625 689 l 683 689 z "},"Ŷ":{"ha":918,"x_min":0,"x_max":0,"o":"m 528 1197 l 389 1197 l 253 1061 l 310 1061 l 458 1129 l 607 1061 l 664 1061 z m 143 824 l 393 381 l 393 228 b 368 53 393 161 393 88 b 256 19 350 25 306 19 l 256 0 l 663 0 l 663 19 b 589 28 632 19 608 22 b 525 238 522 43 525 150 l 524 433 l 699 732 b 765 850 725 776 750 824 b 924 946 796 904 846 946 l 924 965 l 638 965 l 638 946 b 714 935 668 946 703 942 b 740 903 726 929 742 919 b 653 710 738 850 725 831 l 511 468 l 501 468 l 301 814 b 269 903 282 846 269 885 b 296 935 269 919 278 929 b 389 946 313 942 347 946 l 389 965 l -7 965 l -7 946 b 143 824 81 946 108 882 z "},"ŷ":{"ha":715,"x_min":0,"x_max":0,"o":"m 557 525 b 522 379 557 478 568 483 l 400 104 l 394 106 l 258 415 b 218 538 246 443 218 506 b 301 575 218 563 250 575 l 301 594 l 6 594 l 6 575 b 89 524 51 571 72 547 b 115 463 96 513 106 483 l 335 -37 l 313 -90 b 292 -126 307 -106 297 -117 b 176 -176 271 -156 232 -175 b 85 -239 122 -178 88 -201 b 156 -292 82 -274 108 -292 b 310 -176 211 -292 275 -253 l 554 375 b 629 544 583 442 606 510 b 704 575 644 567 671 575 l 704 594 l 457 594 l 457 575 b 557 525 510 575 557 561 z m 411 850 l 297 850 l 150 689 l 206 689 l 356 774 l 503 689 l 561 689 z "},"Ÿ":{"ha":918,"x_min":0,"x_max":0,"o":"m 344 1061 b 408 1125 381 1061 408 1089 b 344 1188 408 1161 382 1188 b 281 1125 308 1188 281 1161 b 344 1061 281 1089 310 1061 z m 572 1061 b 636 1125 608 1061 636 1089 b 572 1188 636 1161 610 1188 b 508 1125 536 1188 508 1161 b 572 1061 508 1089 538 1061 z m 143 824 l 393 381 l 393 228 b 368 53 393 161 393 88 b 256 19 350 25 306 19 l 256 0 l 663 0 l 663 19 b 589 28 632 19 608 22 b 525 238 522 43 525 150 l 524 433 l 699 732 b 765 850 725 776 750 824 b 924 946 796 904 846 946 l 924 965 l 638 965 l 638 946 b 714 935 668 946 703 942 b 740 903 726 929 742 919 b 653 710 738 850 725 831 l 511 468 l 501 468 l 301 814 b 269 903 282 846 269 885 b 296 935 269 919 278 929 b 389 946 313 942 347 946 l 389 965 l -7 965 l -7 946 b 143 824 81 946 108 882 z "},"Ź":{"ha":965,"x_min":0,"x_max":0,"o":"m 731 1199 b 682 1189 714 1199 697 1196 b 621 1158 665 1182 644 1172 l 458 1061 l 533 1061 l 685 1096 b 751 1122 714 1103 735 1113 b 778 1156 769 1131 778 1142 b 731 1199 778 1183 758 1199 z m 347 936 l 696 936 l 19 6 l 19 0 l 890 0 l 906 294 l 881 294 b 601 29 857 129 790 29 l 208 29 l 878 960 l 878 965 l 114 965 l 96 735 l 121 735 b 347 936 142 854 218 936 z "},"ź":{"ha":624,"x_min":0,"x_max":0,"o":"m 558 0 l 578 174 l 553 174 b 314 25 531 67 446 25 l 172 25 l 574 590 l 574 594 l 90 594 l 74 440 l 99 440 b 289 569 115 536 183 569 l 422 569 l 19 6 l 19 0 z m 550 879 b 465 838 524 879 496 865 l 303 689 l 361 689 l 533 769 b 581 800 553 778 568 789 b 597 835 590 810 597 821 b 550 879 597 863 579 879 z "},"Ż":{"ha":965,"x_min":0,"x_max":0,"o":"m 494 1061 b 564 1126 531 1061 564 1090 b 494 1196 564 1164 531 1196 b 428 1126 458 1196 428 1161 b 494 1061 428 1092 460 1061 z m 347 936 l 696 936 l 19 6 l 19 0 l 890 0 l 906 294 l 881 294 b 601 29 857 129 790 29 l 208 29 l 878 960 l 878 965 l 114 965 l 96 735 l 121 735 b 347 936 142 854 218 936 z "},"ż":{"ha":624,"x_min":0,"x_max":0,"o":"m 558 0 l 578 174 l 553 174 b 314 25 531 67 446 25 l 172 25 l 574 590 l 574 594 l 90 594 l 74 440 l 99 440 b 289 569 115 536 183 569 l 422 569 l 19 6 l 19 0 z m 332 689 b 410 767 375 689 410 724 b 332 844 410 808 374 844 b 254 767 290 844 254 808 b 332 689 254 724 289 689 z "},"Ž":{"ha":965,"x_min":0,"x_max":0,"o":"m 426 1061 l 565 1061 l 701 1197 l 644 1197 l 496 1131 l 347 1197 l 290 1197 z m 347 936 l 696 936 l 19 6 l 19 0 l 890 0 l 906 294 l 881 294 b 601 29 857 129 790 29 l 208 29 l 878 960 l 878 965 l 114 965 l 96 735 l 121 735 b 347 936 142 854 218 936 z "},"ž":{"ha":624,"x_min":0,"x_max":0,"o":"m 558 0 l 578 174 l 553 174 b 314 25 531 67 446 25 l 172 25 l 574 590 l 574 594 l 90 594 l 74 440 l 99 440 b 289 569 115 536 183 569 l 422 569 l 19 6 l 19 0 z m 275 689 l 389 689 l 538 850 l 481 850 l 332 765 l 183 850 l 126 850 z "},"Ə":{"ha":1006,"x_min":0,"x_max":0,"o":"m 442 932 b 568 903 497 932 524 924 b 771 469 703 840 771 667 b 765 363 771 442 771 383 l 129 363 b 72 326 89 363 72 363 b 439 -12 72 92 207 -12 b 794 131 596 -12 713 49 b 933 494 875 214 933 338 b 803 844 933 643 878 764 b 460 979 724 924 611 979 b 74 799 281 979 164 908 l 104 772 b 442 932 174 854 296 932 z m 251 256 b 253 282 251 267 251 275 b 301 306 260 300 276 300 b 358 307 315 306 335 307 l 753 307 b 468 36 721 160 636 36 b 251 256 339 36 251 131 z "},"ƒ":{"ha":747,"x_min":0,"x_max":0,"o":"m -104 -194 b 29 -292 -104 -258 -39 -292 b 249 -111 119 -292 194 -232 b 340 254 297 -7 318 118 l 375 469 l 506 469 l 521 525 l 382 525 l 393 586 b 528 822 421 742 464 822 b 563 813 540 822 553 818 b 606 783 572 807 588 799 b 644 754 624 769 636 760 b 674 746 656 749 665 746 b 722 797 701 746 722 769 b 574 875 722 853 638 875 b 286 589 403 875 315 744 l 274 525 l 161 525 l 146 469 l 264 469 l 207 92 b 179 -58 199 32 189 -18 b 114 -219 165 -124 150 -186 b 74 -236 103 -232 90 -236 b 40 -225 61 -236 49 -233 b 7 -178 33 -218 21 -201 b -53 -139 -8 -151 -26 -139 b -104 -194 -86 -139 -104 -162 z "},"Ǆ":{"ha":2072,"x_min":0,"x_max":0,"o":"m 1454 936 l 1803 936 l 1126 6 l 1126 0 l 1997 0 l 2013 294 l 1988 294 b 1708 29 1964 129 1897 29 l 1315 29 l 1985 960 l 1985 965 l 1221 965 l 1203 735 l 1228 735 b 1454 936 1249 854 1325 936 z m 47 0 l 538 0 b 894 131 690 0 814 53 b 1035 467 975 206 1035 318 b 888 824 1035 622 971 743 b 513 965 800 906 674 965 l 72 965 l 72 946 b 175 907 115 943 160 932 b 199 794 196 883 199 843 l 199 171 b 171 56 199 118 194 79 b 47 19 144 32 100 22 z m 517 29 b 329 172 393 29 329 76 l 329 914 b 351 936 329 928 338 936 l 510 936 b 871 464 765 936 871 722 b 517 29 871 215 758 29 z m 1529 1067 l 1667 1067 l 1804 1203 l 1747 1203 l 1599 1136 l 1449 1203 l 1393 1203 z "},"ǅ":{"ha":1739,"x_min":0,"x_max":0,"o":"m 1672 0 l 1692 174 l 1667 174 b 1428 25 1644 67 1560 25 l 1286 25 l 1688 590 l 1688 594 l 1204 594 l 1188 440 l 1213 440 b 1403 569 1229 536 1297 569 l 1536 569 l 1133 6 l 1133 0 z m 47 0 l 538 0 b 894 131 690 0 814 53 b 1035 467 975 206 1035 318 b 888 824 1035 622 971 743 b 513 965 800 906 674 965 l 72 965 l 72 946 b 175 907 115 943 160 932 b 199 794 196 883 199 843 l 199 171 b 171 56 199 118 194 79 b 47 19 144 32 100 22 z m 517 29 b 329 172 393 29 329 76 l 329 914 b 351 936 329 928 338 936 l 510 936 b 871 464 765 936 871 722 b 517 29 871 215 758 29 z m 1383 729 l 1497 729 l 1646 890 l 1589 890 l 1440 806 l 1292 890 l 1235 890 z "},"ǆ":{"ha":1381,"x_min":0,"x_max":0,"o":"m 1314 0 l 1333 174 l 1308 174 b 1069 25 1286 67 1201 25 l 928 25 l 1329 590 l 1329 594 l 846 594 l 829 440 l 854 440 b 1044 569 871 536 939 569 l 1178 569 l 775 6 l 775 0 z m 346 606 b 136 518 256 606 181 569 b 53 299 88 469 53 389 b 346 -11 53 119 165 -11 b 454 14 388 -11 425 -7 b 529 96 497 46 501 57 l 543 94 l 543 -11 l 729 1 l 729 21 b 686 22 711 21 697 21 b 632 149 632 31 635 85 b 631 283 631 181 631 231 l 631 1021 l 400 979 l 400 960 b 485 936 440 960 467 950 b 524 842 514 914 524 893 b 524 736 526 813 524 778 l 524 531 b 346 606 478 576 429 606 z m 346 581 b 490 514 410 581 460 551 b 521 372 519 478 521 443 l 521 225 b 464 54 521 136 499 83 b 346 17 436 31 396 17 b 181 304 217 17 181 168 b 346 581 181 438 225 581 z m 1043 733 l 1156 733 l 1304 894 l 1249 894 l 1099 810 l 950 894 l 893 894 z "},"Ǉ":{"ha":1393,"x_min":0,"x_max":0,"o":"m 829 -137 b 765 -204 788 -137 765 -162 b 956 -326 765 -282 876 -326 b 1217 -3 1139 -326 1217 -196 l 1217 793 b 1221 871 1217 825 1217 851 b 1340 946 1229 933 1269 942 l 1340 965 l 960 965 l 960 946 b 1064 915 1006 943 1043 939 b 1085 803 1082 890 1085 853 l 1085 -54 b 1065 -239 1085 -122 1085 -203 b 985 -293 1046 -275 1018 -293 b 829 -137 892 -293 929 -137 z m 867 0 l 885 247 l 860 247 b 753 79 844 175 800 114 b 549 29 700 50 636 29 b 442 35 504 29 471 31 b 326 175 354 51 326 71 l 326 793 b 331 871 326 825 326 851 b 450 946 339 933 379 942 l 450 965 l 69 965 l 69 946 b 174 915 115 943 153 939 b 194 803 193 893 194 850 l 194 163 b 169 49 194 114 192 71 b 57 19 146 25 106 22 l 57 0 z "},"ǈ":{"ha":1271,"x_min":0,"x_max":0,"o":"m 969 -264 b 892 -187 926 -264 908 -225 b 865 -144 881 -165 871 -150 b 833 -135 858 -139 847 -135 b 776 -187 800 -135 776 -153 b 939 -292 776 -244 860 -292 b 1169 -3 1101 -292 1169 -172 l 1169 606 l 949 563 l 949 543 b 1026 514 986 543 1014 524 b 1060 314 1057 490 1060 463 l 1060 -76 b 969 -264 1060 -179 1058 -264 z m 1113 764 b 1182 835 1150 764 1182 797 b 1113 904 1182 869 1147 904 b 1043 835 1078 904 1043 869 b 1113 764 1043 797 1075 764 z m 867 0 l 885 247 l 860 247 b 753 79 844 175 800 114 b 549 29 700 50 636 29 b 442 35 504 29 471 31 b 326 175 354 51 326 71 l 326 793 b 331 871 326 825 326 851 b 450 946 339 933 379 942 l 450 965 l 69 965 l 69 946 b 174 915 115 943 153 939 b 194 803 193 893 194 850 l 194 163 b 169 49 194 114 192 71 b 57 19 146 25 106 22 l 57 0 z "},"ǉ":{"ha":704,"x_min":0,"x_max":0,"o":"m 403 -264 b 325 -187 360 -264 342 -225 b 299 -144 314 -165 304 -150 b 267 -135 292 -139 281 -135 b 210 -187 233 -135 210 -153 b 372 -292 210 -244 293 -292 b 603 -3 535 -292 603 -172 l 603 606 l 382 563 l 382 543 b 460 514 419 543 447 524 b 493 314 490 490 493 463 l 493 -76 b 403 -264 493 -179 492 -264 z m 546 764 b 615 835 583 764 615 797 b 546 904 615 869 581 904 b 476 835 511 904 476 869 b 546 764 476 797 508 764 z m 235 151 l 235 1021 l 22 981 l 22 961 b 97 925 40 960 72 950 b 131 742 119 903 131 896 l 131 143 b 125 79 131 117 129 97 b 25 17 117 26 85 21 l 25 0 l 335 0 l 335 17 b 282 22 314 18 294 18 b 235 151 235 36 235 86 z "},"Ǌ":{"ha":1624,"x_min":0,"x_max":0,"o":"m 1060 -137 b 996 -204 1018 -137 996 -162 b 1186 -326 996 -282 1107 -326 b 1447 -3 1369 -326 1447 -196 l 1447 793 b 1451 871 1447 825 1447 851 b 1571 946 1460 933 1500 942 l 1571 965 l 1190 965 l 1190 946 b 1294 915 1236 943 1274 939 b 1315 803 1313 890 1315 853 l 1315 -54 b 1296 -239 1315 -122 1315 -203 b 1215 -293 1276 -275 1249 -293 b 1060 -137 1122 -293 1160 -137 z m 861 -12 l 913 -12 l 913 751 b 917 844 913 790 913 821 b 1067 946 929 915 985 942 l 1067 965 l 746 965 l 746 946 b 858 897 792 943 843 926 b 883 742 882 858 883 811 l 883 235 l 864 235 l 308 965 l 69 965 l 69 946 b 174 893 117 943 154 921 b 207 751 193 860 207 810 l 207 200 b 169 54 207 136 194 86 b 57 19 147 26 108 22 l 57 0 l 385 0 l 385 19 b 319 28 358 21 338 24 b 236 210 258 44 236 124 l 236 786 l 254 786 z "},"ǋ":{"ha":1481,"x_min":0,"x_max":0,"o":"m 1179 -264 b 1101 -187 1136 -264 1118 -225 b 1075 -144 1090 -165 1081 -150 b 1043 -135 1068 -139 1057 -135 b 986 -187 1010 -135 986 -153 b 1149 -292 986 -244 1069 -292 b 1379 -3 1311 -292 1379 -172 l 1379 606 l 1158 563 l 1158 543 b 1236 514 1196 543 1224 524 b 1269 314 1267 490 1269 463 l 1269 -76 b 1179 -264 1269 -179 1268 -264 z m 1322 764 b 1392 835 1360 764 1392 797 b 1322 904 1392 869 1357 904 b 1253 835 1288 904 1253 869 b 1322 764 1253 797 1285 764 z m 861 -12 l 913 -12 l 913 751 b 917 844 913 790 913 821 b 1067 946 929 915 985 942 l 1067 965 l 746 965 l 746 946 b 858 897 792 943 843 926 b 883 742 882 858 883 811 l 883 235 l 864 235 l 308 965 l 69 965 l 69 946 b 174 893 117 943 154 921 b 207 751 193 860 207 810 l 207 200 b 169 54 207 136 194 86 b 57 19 147 26 108 22 l 57 0 l 385 0 l 385 19 b 319 28 358 21 338 24 b 236 210 258 44 236 124 l 236 786 l 254 786 z "},"ǌ":{"ha":1143,"x_min":0,"x_max":0,"o":"m 842 -264 b 764 -187 799 -264 781 -225 b 738 -144 753 -165 743 -150 b 706 -135 731 -139 719 -135 b 649 -187 672 -135 649 -153 b 811 -292 649 -244 732 -292 b 1042 -3 974 -292 1042 -172 l 1042 606 l 821 563 l 821 543 b 899 514 858 543 886 524 b 932 314 929 490 932 463 l 932 -76 b 842 -264 932 -179 931 -264 z m 985 764 b 1054 835 1022 764 1054 797 b 985 904 1054 869 1019 904 b 915 835 950 904 915 869 b 985 764 915 797 947 764 z m 239 492 l 235 492 l 219 606 l 40 563 l 40 543 b 101 519 58 542 85 536 b 136 338 128 493 136 479 l 136 146 b 133 78 136 117 136 96 b 42 17 129 25 96 21 l 42 0 l 336 0 l 336 17 b 285 22 315 18 297 18 b 243 154 236 39 243 88 l 243 347 b 263 467 243 399 243 433 b 435 574 292 518 360 574 b 549 317 553 574 549 439 l 549 146 b 546 78 549 117 549 96 b 456 17 542 25 511 21 l 456 0 l 746 0 l 746 17 b 697 22 726 18 708 18 b 656 154 650 36 656 90 l 656 363 b 621 543 656 444 651 500 b 461 606 589 581 531 606 b 239 492 360 606 289 551 z "},"Ǫ":{"ha":1185,"x_min":0,"x_max":0,"o":"m 599 -158 b 640 -71 599 -121 618 -96 b 753 8 669 -39 713 -12 l 753 14 l 686 14 b 549 -74 628 -10 581 -39 b 500 -186 517 -108 500 -146 b 622 -293 500 -257 547 -293 b 824 -189 710 -293 776 -251 l 803 -169 b 732 -215 782 -192 753 -207 b 663 -232 710 -224 679 -232 b 599 -158 628 -232 599 -194 z m 593 978 b 222 832 433 978 307 914 b 71 475 139 751 71 632 b 224 131 71 324 140 208 b 593 -12 307 50 386 -12 b 963 131 781 -12 879 50 b 1114 475 1046 211 1114 322 b 964 832 1114 633 1049 750 b 593 978 879 914 753 978 z m 593 13 b 235 471 346 13 235 222 b 593 953 235 711 356 953 b 951 471 846 953 951 726 b 926 299 951 407 943 351 b 593 13 879 158 806 13 z "},"ǫ":{"ha":733,"x_min":0,"x_max":0,"o":"m 322 -158 b 364 -71 322 -121 342 -96 b 476 8 393 -39 436 -12 l 476 14 l 410 14 b 272 -74 351 -10 304 -39 b 224 -186 240 -108 224 -146 b 346 -293 224 -257 271 -293 b 547 -189 433 -293 500 -251 l 526 -169 b 456 -215 506 -192 476 -207 b 386 -232 433 -224 403 -232 b 322 -158 351 -232 322 -194 z m 364 606 b 244 583 322 606 283 599 b 53 301 140 540 53 446 b 78 175 53 256 60 215 b 364 -11 125 74 190 -11 b 586 76 469 -11 536 26 b 681 301 638 128 681 201 b 656 424 681 344 672 385 b 364 606 606 524 511 606 z m 364 581 b 553 301 489 581 554 429 b 364 14 551 139 476 14 b 181 301 214 14 181 163 b 364 581 181 429 242 581 z "},"Ǳ":{"ha":2058,"x_min":0,"x_max":0,"o":"m 1440 936 l 1789 936 l 1113 6 l 1113 0 l 1983 0 l 1999 294 l 1974 294 b 1694 29 1950 129 1883 29 l 1301 29 l 1971 960 l 1971 965 l 1207 965 l 1189 735 l 1214 735 b 1440 936 1235 854 1311 936 z m 47 0 l 538 0 b 894 131 690 0 814 53 b 1035 467 975 206 1035 318 b 888 824 1035 622 971 743 b 513 965 800 906 674 965 l 72 965 l 72 946 b 175 907 115 943 160 932 b 199 794 196 883 199 843 l 199 171 b 171 56 199 118 194 79 b 47 19 144 32 100 22 z m 517 29 b 329 172 393 29 329 76 l 329 914 b 351 936 329 928 338 936 l 510 936 b 871 464 765 936 871 722 b 517 29 871 215 758 29 z "},"ǲ":{"ha":1725,"x_min":0,"x_max":0,"o":"m 47 0 l 538 0 b 894 131 690 0 814 53 b 1035 467 975 206 1035 318 b 888 824 1035 622 971 743 b 513 965 800 906 674 965 l 72 965 l 72 946 b 175 907 115 943 160 932 b 199 794 196 883 199 843 l 199 171 b 171 56 199 118 194 79 b 47 19 144 32 100 22 z m 517 29 b 329 172 393 29 329 76 l 329 914 b 351 936 329 928 338 936 l 510 936 b 871 464 765 936 871 722 b 517 29 871 215 758 29 z m 1654 1 l 1674 175 l 1649 175 b 1410 26 1626 68 1542 26 l 1268 26 l 1669 592 l 1669 596 l 1186 596 l 1169 442 l 1194 442 b 1385 571 1211 538 1279 571 l 1518 571 l 1115 7 l 1115 1 z "},"ǳ":{"ha":1382,"x_min":0,"x_max":0,"o":"m 346 606 b 136 518 256 606 181 569 b 53 299 88 469 53 389 b 346 -11 53 119 165 -11 b 454 14 388 -11 425 -7 b 529 96 497 46 501 57 l 543 94 l 543 -11 l 729 1 l 729 21 b 686 22 711 21 697 21 b 632 149 632 31 635 85 b 631 283 631 181 631 231 l 631 1021 l 400 979 l 400 960 b 485 936 440 960 467 950 b 524 842 514 914 524 893 b 524 736 526 813 524 778 l 524 531 b 346 606 478 576 429 606 z m 346 581 b 490 514 410 581 460 551 b 521 372 519 478 521 443 l 521 225 b 464 54 521 136 499 83 b 346 17 436 31 396 17 b 181 304 217 17 181 168 b 346 581 181 438 225 581 z m 1315 3 l 1335 176 l 1310 176 b 1071 28 1288 69 1203 28 l 929 28 l 1331 593 l 1331 597 l 847 597 l 831 443 l 856 443 b 1046 572 872 539 940 572 l 1179 572 l 776 8 l 776 3 z "},"Ǻ":{"ha":971,"x_min":0,"x_max":0,"o":"m 575 18 l 575 0 l 985 0 l 985 18 b 843 146 901 18 874 86 b 793 258 829 175 813 213 l 508 965 l 468 965 l 142 149 b 118 106 135 131 126 117 b -7 17 90 68 44 24 l -7 0 l 297 0 l 297 17 b 179 110 236 17 179 54 b 194 190 179 139 186 161 b 261 365 213 242 238 308 l 606 365 l 669 214 b 683 178 676 200 679 188 b 699 103 692 156 699 133 b 575 18 699 51 640 18 z m 275 397 l 432 796 l 596 397 z m 575 1086 b 572 1107 575 1092 574 1099 b 611 1138 589 1115 603 1126 b 626 1169 621 1147 626 1158 b 590 1203 626 1189 611 1203 b 532 1174 563 1203 549 1190 b 475 1189 515 1185 496 1189 b 376 1086 417 1189 376 1146 l 376 1074 b 379 1061 378 1068 378 1065 l 303 990 l 371 990 l 411 1010 b 475 988 431 996 451 988 b 575 1086 532 988 575 1031 z m 475 1139 b 528 1086 508 1139 528 1119 b 475 1035 528 1054 507 1035 b 422 1086 443 1035 422 1054 b 475 1139 422 1119 442 1139 z "},"ǻ":{"ha":621,"x_min":0,"x_max":0,"o":"m 161 142 b 213 247 161 189 185 221 b 392 354 260 292 317 317 l 392 201 b 350 79 392 147 374 111 b 243 25 331 50 286 25 b 161 142 192 25 161 90 z m 200 -10 b 396 110 307 -11 364 43 l 400 110 b 499 -11 400 36 428 -11 b 622 50 558 -11 599 14 l 614 63 b 547 25 604 49 574 25 b 501 151 514 25 501 65 l 501 432 b 294 606 501 568 436 606 b 61 494 172 606 61 543 b 113 436 61 457 75 436 b 181 490 151 436 169 456 b 206 549 189 515 192 535 b 275 581 217 560 246 581 b 392 426 396 581 392 517 l 392 381 l 231 310 b 89 221 174 283 128 260 b 49 122 65 197 49 164 b 200 -10 49 38 113 -8 z m 294 689 b 403 797 357 689 403 735 b 294 907 403 861 358 907 b 186 797 231 907 186 861 b 294 689 186 735 232 689 z m 294 853 b 350 797 328 853 350 831 b 294 738 350 765 328 738 b 233 797 260 738 233 763 b 294 853 233 832 261 853 z m 511 1181 b 428 1139 486 1181 458 1167 l 264 990 l 322 990 l 494 1071 b 542 1101 514 1079 531 1090 b 558 1136 553 1111 558 1122 b 511 1181 558 1164 540 1181 z "},"Ǽ":{"ha":1317,"x_min":0,"x_max":0,"o":"m 1042 1199 b 993 1189 1025 1199 1008 1196 b 932 1158 976 1182 956 1172 l 769 1061 l 844 1061 l 996 1096 b 1063 1122 1025 1103 1046 1113 b 1089 1156 1081 1131 1089 1142 b 1042 1199 1089 1183 1069 1199 z m 464 25 l 464 0 l 1242 0 l 1261 247 l 1238 247 b 1196 156 1229 211 1208 179 b 942 29 1156 76 1064 29 b 778 60 869 29 818 32 b 733 181 744 81 733 126 l 733 489 b 875 458 808 489 831 483 b 957 332 913 435 949 388 l 979 332 l 979 675 l 957 675 b 872 551 951 618 914 572 b 733 522 831 525 806 522 l 733 915 b 754 936 733 929 740 936 l 914 936 b 1094 903 992 936 1050 932 b 1182 744 1138 875 1171 808 l 1206 744 l 1206 965 l 408 965 l 408 946 b 504 928 447 946 490 935 b 529 886 521 919 529 910 b 511 838 529 875 515 847 b 399 618 464 744 433 685 b 203 229 326 481 269 353 b 147 131 182 190 168 165 b 82 57 131 101 106 72 b -14 25 60 42 19 29 l -14 0 l 290 0 l 290 25 b 182 79 249 31 182 31 b 192 128 182 93 185 108 b 367 489 218 201 332 421 l 601 489 l 601 174 b 597 103 601 144 601 122 b 464 25 583 42 538 29 z m 601 522 l 388 522 l 600 931 z "},"ǽ":{"ha":967,"x_min":0,"x_max":0,"o":"m 200 -10 b 396 110 292 -10 360 39 b 408 133 401 121 408 133 b 674 -11 456 40 551 -14 b 911 104 801 -8 838 33 l 897 122 b 706 22 850 74 789 22 b 618 46 672 22 643 31 b 507 306 554 89 507 192 b 514 375 507 324 510 361 l 881 375 b 915 397 906 375 915 376 b 688 606 915 543 833 606 b 563 582 643 606 601 599 b 482 532 533 569 506 553 b 294 606 454 588 392 606 b 61 494 172 606 61 543 b 113 436 61 457 75 436 b 181 490 151 436 169 456 b 206 549 189 515 192 535 b 275 581 217 560 246 581 b 392 426 396 581 392 517 l 392 388 b 389 379 390 385 390 382 l 231 310 b 89 221 174 283 128 260 b 49 122 65 197 49 164 b 200 -10 49 38 113 -10 z m 161 142 b 213 247 161 189 185 221 b 383 350 258 289 313 315 b 379 290 381 332 379 311 b 392 193 379 256 383 224 b 350 81 389 144 372 111 b 251 39 331 51 294 39 b 161 142 200 39 161 90 z m 807 433 b 806 415 807 428 807 421 b 739 403 800 397 765 403 l 518 403 b 688 581 536 500 592 582 b 807 433 781 579 807 506 z m 708 879 b 625 838 683 879 656 865 l 461 689 l 519 689 l 692 769 b 739 800 711 778 728 789 b 756 835 750 810 756 821 b 708 879 756 863 738 879 z "},"Ǿ":{"ha":1185,"x_min":0,"x_max":0,"o":"m 828 1261 b 778 1251 811 1261 794 1258 b 717 1221 761 1244 742 1235 l 556 1124 l 631 1124 l 781 1158 b 847 1185 811 1165 831 1175 b 875 1218 867 1193 875 1204 b 828 1261 875 1246 856 1261 z m 999 1040 l 97 -101 l 147 -101 l 1049 1040 z m 593 978 b 222 832 433 978 307 914 b 71 475 139 751 71 632 b 224 131 71 324 140 208 b 593 -12 307 50 386 -12 b 963 131 781 -12 879 50 b 1114 475 1046 211 1114 322 b 964 832 1114 633 1049 750 b 593 978 879 914 753 978 z m 593 13 b 235 471 346 13 235 222 b 593 953 235 711 356 953 b 951 471 846 953 951 726 b 926 299 951 407 943 351 b 593 13 879 158 806 13 z "},"ǿ":{"ha":733,"x_min":0,"x_max":0,"o":"m 364 606 b 244 583 322 606 283 599 b 53 301 140 540 53 446 b 78 175 53 256 60 215 b 364 -11 125 74 190 -11 b 586 76 469 -11 536 26 b 681 301 638 128 681 201 b 656 424 681 344 672 385 b 364 606 606 524 511 606 z m 364 581 b 553 301 489 581 554 429 b 364 14 551 139 476 14 b 181 301 214 14 181 163 b 364 581 181 429 242 581 z m 638 664 l 58 -68 l 108 -68 l 686 664 z m 588 938 b 503 896 561 938 533 924 l 340 747 l 399 747 l 571 828 b 618 858 590 836 606 847 b 635 893 628 868 635 879 b 588 938 635 921 617 938 z "},"Ș":{"ha":808,"x_min":0,"x_max":0,"o":"m 400 -96 b 342 -157 367 -96 342 -122 b 347 -193 342 -164 342 -175 b 383 -371 357 -250 369 -314 l 419 -371 b 453 -193 432 -315 444 -251 b 458 -158 458 -178 458 -165 b 400 -96 458 -124 436 -96 z m 97 294 l 72 294 l 92 14 l 114 14 l 156 75 b 400 -12 224 18 288 -12 b 538 7 450 -12 496 -6 b 740 272 647 47 740 126 b 675 436 740 350 717 392 b 422 585 608 499 522 539 b 274 675 360 614 314 635 b 231 775 246 700 231 729 b 397 949 231 865 303 949 b 644 711 529 949 611 828 l 668 711 l 654 960 l 631 960 l 593 904 b 393 978 539 949 479 978 b 281 958 351 978 314 972 b 113 713 188 924 113 840 b 171 553 113 638 132 594 b 385 422 225 496 297 460 b 492 371 428 403 463 388 b 604 214 551 335 604 300 b 404 17 604 107 515 17 b 97 294 236 17 124 151 z "},"ș":{"ha":508,"x_min":0,"x_max":0,"o":"m 269 -94 b 211 -156 236 -94 211 -121 b 217 -192 211 -162 211 -174 b 253 -369 226 -249 239 -312 l 289 -369 b 322 -192 301 -314 314 -250 b 328 -157 328 -176 328 -164 b 269 -94 328 -122 306 -94 z m 251 581 b 389 432 325 581 363 500 l 407 432 l 407 594 l 392 594 l 363 571 b 306 597 344 581 326 592 b 243 606 285 603 263 606 b 124 558 190 606 151 586 b 75 432 94 529 75 489 b 160 293 75 361 117 326 b 357 124 211 253 357 192 b 260 14 357 67 331 14 b 90 193 178 14 119 88 l 72 193 l 72 0 l 89 0 l 114 40 b 269 -11 156 7 211 -11 b 406 33 325 -11 371 4 b 456 160 440 64 456 107 b 278 357 456 250 354 311 b 167 483 235 388 167 414 b 251 581 167 531 192 581 z "},"Ț":{"ha":1006,"x_min":0,"x_max":0,"o":"m 503 -83 b 444 -144 469 -83 444 -110 b 450 -181 444 -151 444 -162 b 486 -358 460 -237 472 -301 l 522 -358 b 556 -181 535 -303 547 -239 b 561 -146 561 -165 561 -153 b 503 -83 561 -111 539 -83 z m 429 897 l 429 174 b 401 57 429 124 422 83 b 265 19 374 29 325 22 l 265 0 l 740 0 l 740 19 b 585 106 658 22 594 36 b 578 174 579 125 578 147 l 578 897 b 644 935 578 932 610 929 b 719 936 664 935 688 936 b 897 897 789 936 861 928 b 965 742 936 868 960 808 l 985 742 l 972 965 l 44 965 l 26 742 l 46 742 b 75 846 47 786 63 821 b 306 936 110 917 200 936 b 369 935 332 936 353 935 b 429 897 401 932 429 926 z "},"ț":{"ha":424,"x_min":0,"x_max":0,"o":"m 264 -94 b 206 -156 231 -94 206 -121 b 211 -192 206 -162 206 -174 b 247 -369 221 -249 233 -312 l 283 -369 b 317 -192 296 -314 308 -250 b 322 -157 322 -176 322 -164 b 264 -94 322 -122 300 -94 z m 264 -11 b 414 75 340 -11 374 11 l 397 89 b 300 17 375 57 347 17 b 222 183 228 17 222 67 l 222 571 l 372 571 l 372 596 l 222 596 l 222 772 l 210 772 b 44 585 181 697 115 626 l 44 571 l 113 571 l 113 125 b 264 -11 113 33 171 -11 z "},"ȷ":{"ha":340,"x_min":0,"x_max":0,"o":"m 39 -264 b -39 -187 -4 -264 -22 -225 b -65 -144 -50 -165 -60 -150 b -97 -135 -72 -139 -83 -135 b -154 -187 -131 -135 -154 -153 b 8 -292 -154 -244 -71 -292 b 239 -3 171 -292 239 -172 l 239 606 l 18 563 l 18 543 b 96 514 56 543 83 524 b 129 314 126 490 129 463 l 129 -76 b 39 -264 129 -179 128 -264 z "},"ə":{"ha":643,"x_min":0,"x_max":0,"o":"m 457 226 l 89 226 b 53 204 63 226 53 228 b 282 -11 53 58 136 -11 b 407 13 326 -11 368 -4 b 589 304 513 58 589 154 b 568 426 589 349 583 390 b 294 606 526 531 438 606 b 58 490 175 606 114 558 l 86 465 b 269 561 132 514 189 561 b 463 290 407 561 463 431 b 457 226 463 271 460 242 z m 176 156 b 179 172 176 161 178 167 b 243 188 185 189 217 188 l 450 188 b 300 28 432 90 381 28 b 176 156 228 28 176 85 z "},"ʼ":{"ha":243,"x_min":0,"x_max":0,"o":"m 122 1040 b 63 979 88 1040 63 1014 b 68 943 63 972 64 961 b 104 765 79 886 90 822 l 140 765 b 175 943 153 821 167 885 b 181 978 179 958 181 971 b 122 1040 181 1013 157 1040 z "},"ˆ":{"ha":461,"x_min":0,"x_max":0,"o":"m 288 878 l 174 878 l 25 717 l 82 717 l 231 801 l 379 717 l 436 717 z "},"ˇ":{"ha":461,"x_min":0,"x_max":0,"o":"m 174 717 l 288 717 l 436 878 l 379 878 l 231 793 l 82 878 l 25 878 z "},"˘":{"ha":396,"x_min":0,"x_max":0,"o":"m 197 796 b 71 872 138 796 85 825 l 25 872 b 199 710 31 776 97 710 b 371 872 297 710 365 778 l 325 872 b 197 796 311 826 257 796 z "},"˙":{"ha":206,"x_min":0,"x_max":0,"o":"m 103 854 b 181 932 146 854 181 889 b 103 1010 181 974 144 1010 b 25 932 61 1010 25 974 b 103 854 25 889 60 854 z "},"˚":{"ha":268,"x_min":0,"x_max":0,"o":"m 133 722 b 243 831 197 722 243 768 b 133 940 243 894 197 940 b 25 831 71 940 25 894 b 133 722 25 768 71 722 z m 133 886 b 189 831 167 886 189 864 b 133 771 189 799 168 771 b 74 831 100 771 74 796 b 133 886 74 865 101 886 z "},"˛":{"ha":332,"x_min":0,"x_max":0,"o":"m 99 -158 b 140 -71 99 -121 118 -96 b 253 8 169 -39 213 -12 l 253 14 l 186 14 b 49 -74 128 -10 81 -39 b 0 -186 17 -108 0 -146 b 122 -293 0 -257 47 -293 b 324 -189 210 -293 276 -251 l 303 -169 b 232 -215 282 -192 253 -207 b 163 -232 210 -224 179 -232 b 99 -158 128 -232 99 -194 z "},"˜":{"ha":476,"x_min":0,"x_max":0,"o":"m 328 717 b 453 865 399 717 446 793 l 411 865 b 353 813 400 833 390 813 b 158 871 276 813 235 871 b 25 728 82 871 36 800 l 68 728 b 124 778 81 763 83 778 b 328 717 201 778 250 717 z "},"˝":{"ha":592,"x_min":0,"x_max":0,"o":"m 272 907 b 188 865 246 907 218 893 l 25 717 l 83 717 l 256 797 b 303 828 275 806 290 817 b 319 863 313 838 319 849 b 272 907 319 890 301 907 z m 521 907 b 436 865 494 907 467 893 l 274 717 l 332 717 l 504 797 b 551 828 524 806 539 817 b 568 863 561 838 568 849 b 521 907 568 890 550 907 z "},"μ":{"ha":807,"x_min":0,"x_max":0,"o":"m 211 -292 b 274 -212 254 -292 274 -257 b 269 -164 274 -203 274 -186 b 228 90 260 -81 244 11 l 232 92 b 372 -11 261 24 310 -11 b 471 22 407 -11 440 0 b 554 136 501 46 533 90 l 558 136 l 571 -12 l 756 1 l 756 19 b 714 28 738 19 725 25 b 665 86 696 33 669 60 b 658 250 660 114 658 167 l 658 594 l 456 594 l 456 575 b 503 557 475 575 493 565 b 549 415 535 529 549 478 l 549 247 b 547 207 549 231 549 218 b 539 151 547 183 546 168 b 463 44 517 97 492 68 b 376 15 439 24 408 15 b 285 106 335 15 303 68 b 256 289 265 144 256 204 l 256 594 l 53 594 l 53 575 b 100 560 72 575 90 569 b 146 415 128 535 146 478 l 146 -222 b 211 -292 146 -260 175 -292 z "},"Ḍ":{"ha":1107,"x_min":0,"x_max":0,"o":"m 540 -218 b 610 -153 576 -218 610 -189 b 540 -83 610 -115 578 -83 b 475 -153 506 -83 475 -118 b 540 -218 475 -187 506 -218 z m 47 0 l 538 0 b 894 131 690 0 814 53 b 1035 467 975 206 1035 318 b 888 824 1035 622 971 743 b 513 965 800 906 674 965 l 72 965 l 72 946 b 175 907 115 943 160 932 b 199 794 196 883 199 843 l 199 171 b 171 56 199 118 194 79 b 47 19 144 32 100 22 z m 517 29 b 329 172 393 29 329 76 l 329 914 b 351 936 329 928 338 936 l 510 936 b 871 464 765 936 871 722 b 517 29 871 215 758 29 z "},"ḍ":{"ha":757,"x_min":0,"x_max":0,"o":"m 444 -250 b 522 -172 488 -250 522 -215 b 444 -94 522 -131 486 -94 b 367 -172 403 -94 367 -131 b 444 -250 367 -215 401 -250 z m 346 606 b 136 518 256 606 181 569 b 53 299 88 469 53 389 b 346 -11 53 119 165 -11 b 454 14 388 -11 425 -7 b 529 96 497 46 501 57 l 543 94 l 543 -11 l 729 1 l 729 21 b 686 22 711 21 697 21 b 632 149 632 31 635 85 b 631 283 631 181 631 231 l 631 1021 l 400 979 l 400 960 b 485 936 440 960 467 950 b 524 842 514 914 524 893 b 524 736 526 813 524 778 l 524 531 b 346 606 478 576 429 606 z m 346 581 b 490 514 410 581 460 551 b 521 372 519 478 521 443 l 521 225 b 464 54 521 136 499 83 b 346 17 436 31 396 17 b 181 304 217 17 181 168 b 346 581 181 438 225 581 z "}}}
